<?xml version="1.0" encoding="UTF-8" standalone="no"?><svg xmlns="http://www.w3.org/2000/svg" xmlns:xlink="http://www.w3.org/1999/xlink" contentScriptType="application/ecmascript" contentStyleType="text/css" height="535px" preserveAspectRatio="none" style="width:763px;height:535px;" version="1.1" viewBox="0 0 763 535" width="763px" zoomAndPan="magnify"><defs><filter height="300%" id="fijs4i9jjnoh9" width="300%" x="-1" y="-1"><feGaussianBlur result="blurOut" stdDeviation="2.0"/><feColorMatrix in="blurOut" result="blurOut2" type="matrix" values="0 0 0 0 0 0 0 0 0 0 0 0 0 0 0 0 0 0 .4 0"/><feOffset dx="4.0" dy="4.0" in="blurOut2" result="blurOut3"/><feBlend in="SourceGraphic" in2="blurOut3" mode="normal"/></filter></defs><g><!--MD5=[59d99d98b6670a8a468165c37957bdae]
cluster example1--><polygon fill="#FFFFFF" filter="url(#fijs4i9jjnoh9)" points="22,24,104,24,111,46.2969,184,46.2969,184,523,22,523,22,24" style="stroke: #000000; stroke-width: 1.5;"/><line style="stroke: #000000; stroke-width: 1.5;" x1="22" x2="111" y1="46.2969" y2="46.2969"/><text fill="#000000" font-family="sans-serif" font-size="14" font-weight="bold" lengthAdjust="spacingAndGlyphs" textLength="76" x="26" y="38.9951">example1</text><!--MD5=[bd0d67886468a2ad8c7c2495c027baa8]
cluster example2--><polygon fill="#FFFFFF" filter="url(#fijs4i9jjnoh9)" points="208,24,290,24,297,46.2969,380,46.2969,380,510,208,510,208,24" style="stroke: #000000; stroke-width: 1.5;"/><line style="stroke: #000000; stroke-width: 1.5;" x1="208" x2="297" y1="46.2969" y2="46.2969"/><text fill="#000000" font-family="sans-serif" font-size="14" font-weight="bold" lengthAdjust="spacingAndGlyphs" textLength="76" x="212" y="38.9951">example2</text><!--MD5=[92f28e37f3dec77b5194b2639e3ce7ec]
cluster example3--><polygon fill="#FFFFFF" filter="url(#fijs4i9jjnoh9)" points="404,27,486,27,493,49.2969,741,49.2969,741,507,404,507,404,27" style="stroke: #000000; stroke-width: 1.5;"/><line style="stroke: #000000; stroke-width: 1.5;" x1="404" x2="493" y1="49.2969" y2="49.2969"/><text fill="#000000" font-family="sans-serif" font-size="14" font-weight="bold" lengthAdjust="spacingAndGlyphs" textLength="76" x="408" y="41.9951">example3</text><!--MD5=[f01451b7c9992005ddc8db32e07882da]
class example1.TargetInterface--><rect fill="#FF0000" filter="url(#fijs4i9jjnoh9)" height="79.5469" id="example1.TargetInterface" style="stroke: #A80036; stroke-width: 1.5;" width="130" x="38" y="59"/><ellipse cx="53" cy="77.9688" fill="#B4A7E5" rx="11" ry="11" style="stroke: #A80036; stroke-width: 1.0;"/><path d="M53.9531,74.75 L53.9531,81.2656 L55.6719,81.2656 C56.125,81.2656 56.2656,81.2969 56.4375,81.4219 C56.6719,81.5938 56.7813,81.8438 56.7813,82.125 C56.7813,82.6875 56.4219,82.9688 55.6719,82.9688 L50.5313,82.9688 C50.125,82.9688 49.9219,82.9219 49.7656,82.7969 C49.5469,82.6406 49.4063,82.375 49.4063,82.125 C49.4063,81.8281 49.5625,81.5469 49.8125,81.3906 C49.9688,81.2813 50.0938,81.2656 50.5313,81.2656 L52.25,81.2656 L52.25,74.75 L50.5313,74.75 C50.1094,74.75 49.9219,74.7188 49.7656,74.6094 C49.5469,74.4375 49.4063,74.1875 49.4063,73.9063 C49.4063,73.625 49.5625,73.3281 49.8125,73.1719 C49.9688,73.0781 50.0938,73.0625 50.5313,73.0625 L55.6719,73.0625 C56.125,73.0625 56.2656,73.0938 56.4375,73.2031 C56.6719,73.375 56.7813,73.6406 56.7813,73.9063 C56.7813,74.2031 56.6406,74.4844 56.375,74.6406 C56.25,74.7188 56.0625,74.75 55.6719,74.75 Z "/><text fill="#000000" font-family="sans-serif" font-size="12" font-style="italic" lengthAdjust="spacingAndGlyphs" textLength="53" x="89.5" y="75.1387">«target»</text><text fill="#000000" font-family="sans-serif" font-size="12" font-style="italic" lengthAdjust="spacingAndGlyphs" textLength="98" x="67" y="89.1074">TargetInterface</text><line style="stroke: #A80036; stroke-width: 1.5;" x1="39" x2="167" y1="96.9375" y2="96.9375"/><line style="stroke: #A80036; stroke-width: 1.5;" x1="39" x2="167" y1="104.9375" y2="104.9375"/><ellipse cx="49" cy="115.9375" fill="#84BE84" rx="3" ry="3" style="stroke: #038048; stroke-width: 1.0;"/><text fill="#000000" font-family="sans-serif" font-size="11" lengthAdjust="spacingAndGlyphs" textLength="73" x="58" y="119.1479">myMethodA()</text><ellipse cx="49" cy="128.7422" fill="#84BE84" rx="3" ry="3" style="stroke: #038048; stroke-width: 1.0;"/><text fill="#000000" font-family="sans-serif" font-size="11" lengthAdjust="spacingAndGlyphs" textLength="74" x="58" y="131.9526">myMethodB()</text><!--MD5=[63f38cf70facd7e9900e7fdd6232b5c8]
class example1.MyAdapter--><rect fill="#FF0000" filter="url(#fijs4i9jjnoh9)" height="79.5469" id="example1.MyAdapter" style="stroke: #A80036; stroke-width: 1.5;" width="100" x="53" y="216"/><ellipse cx="68.9" cy="234.9688" fill="#ADD1B2" rx="11" ry="11" style="stroke: #A80036; stroke-width: 1.0;"/><path d="M71.2438,230.6406 L71.4156,230.7188 C71.6344,230.4063 71.8375,230.3125 72.1344,230.3125 C72.4313,230.3125 72.7125,230.4531 72.8688,230.7188 C72.9625,230.875 72.9781,231 72.9781,231.4375 L72.9781,232.8594 C72.9781,233.2813 72.9469,233.4688 72.8375,233.625 C72.6656,233.8438 72.4,233.9844 72.1344,233.9844 C71.9156,233.9844 71.6813,233.875 71.5406,233.7344 C71.4,233.6094 71.3688,233.4844 71.3063,233.0781 C71.2125,232.6719 71.0406,232.4531 70.5563,232.1719 C70.0875,231.9219 69.4781,231.7656 68.9,231.7656 C67.1656,231.7656 65.9156,233.0781 65.9156,234.8594 L65.9156,235.9531 C65.9156,237.6563 67.2125,238.75 69.2594,238.75 C70.025,238.75 70.7125,238.625 71.1344,238.3594 C71.3219,238.2656 71.3219,238.2656 71.775,237.7813 C71.9625,237.5938 72.1656,237.5156 72.3844,237.5156 C72.8531,237.5156 73.2438,237.9063 73.2438,238.3594 C73.2438,238.75 72.9156,239.2031 72.3375,239.6094 C71.5875,240.1563 70.4313,240.4531 69.2125,240.4531 C66.3219,240.4531 64.2125,238.5625 64.2125,235.9844 L64.2125,234.8594 C64.2125,232.1406 66.2125,230.0625 68.8375,230.0625 C69.7125,230.0625 70.3063,230.2031 71.2438,230.6406 Z "/><text fill="#000000" font-family="sans-serif" font-size="12" font-style="italic" lengthAdjust="spacingAndGlyphs" textLength="64" x="84.1" y="232.1387">«adapter»</text><text fill="#000000" font-family="sans-serif" font-size="12" lengthAdjust="spacingAndGlyphs" textLength="66" x="83.1" y="246.1074">MyAdapter</text><line style="stroke: #A80036; stroke-width: 1.5;" x1="54" x2="152" y1="253.9375" y2="253.9375"/><line style="stroke: #A80036; stroke-width: 1.5;" x1="54" x2="152" y1="261.9375" y2="261.9375"/><ellipse cx="64" cy="272.9375" fill="#84BE84" rx="3" ry="3" style="stroke: #038048; stroke-width: 1.0;"/><text fill="#000000" font-family="sans-serif" font-size="11" lengthAdjust="spacingAndGlyphs" textLength="73" x="73" y="276.1479">myMethodA()</text><ellipse cx="64" cy="285.7422" fill="#84BE84" rx="3" ry="3" style="stroke: #038048; stroke-width: 1.0;"/><text fill="#000000" font-family="sans-serif" font-size="11" lengthAdjust="spacingAndGlyphs" textLength="74" x="73" y="288.9526">myMethodB()</text><!--MD5=[eb4bf96f5bac98200a33e2a971d7d2f6]
class example1.MyAdaptee--><rect fill="#FF0000" filter="url(#fijs4i9jjnoh9)" height="117.9609" id="example1.MyAdaptee" style="stroke: #A80036; stroke-width: 1.5;" width="101" x="52.5" y="389"/><ellipse cx="67.5" cy="407.9688" fill="#ADD1B2" rx="11" ry="11" style="stroke: #A80036; stroke-width: 1.0;"/><path d="M69.8438,403.6406 L70.0156,403.7188 C70.2344,403.4063 70.4375,403.3125 70.7344,403.3125 C71.0313,403.3125 71.3125,403.4531 71.4688,403.7188 C71.5625,403.875 71.5781,404 71.5781,404.4375 L71.5781,405.8594 C71.5781,406.2813 71.5469,406.4688 71.4375,406.625 C71.2656,406.8438 71,406.9844 70.7344,406.9844 C70.5156,406.9844 70.2813,406.875 70.1406,406.7344 C70,406.6094 69.9688,406.4844 69.9063,406.0781 C69.8125,405.6719 69.6406,405.4531 69.1563,405.1719 C68.6875,404.9219 68.0781,404.7656 67.5,404.7656 C65.7656,404.7656 64.5156,406.0781 64.5156,407.8594 L64.5156,408.9531 C64.5156,410.6563 65.8125,411.75 67.8594,411.75 C68.625,411.75 69.3125,411.625 69.7344,411.3594 C69.9219,411.2656 69.9219,411.2656 70.375,410.7813 C70.5625,410.5938 70.7656,410.5156 70.9844,410.5156 C71.4531,410.5156 71.8438,410.9063 71.8438,411.3594 C71.8438,411.75 71.5156,412.2031 70.9375,412.6094 C70.1875,413.1563 69.0313,413.4531 67.8125,413.4531 C64.9219,413.4531 62.8125,411.5625 62.8125,408.9844 L62.8125,407.8594 C62.8125,405.1406 64.8125,403.0625 67.4375,403.0625 C68.3125,403.0625 68.9063,403.2031 69.8438,403.6406 Z "/><text fill="#000000" font-family="sans-serif" font-size="12" font-style="italic" lengthAdjust="spacingAndGlyphs" textLength="67" x="82.5" y="405.1387">«adaptee»</text><text fill="#000000" font-family="sans-serif" font-size="12" lengthAdjust="spacingAndGlyphs" textLength="69" x="81.5" y="419.1074">MyAdaptee</text><line style="stroke: #A80036; stroke-width: 1.5;" x1="53.5" x2="152.5" y1="426.9375" y2="426.9375"/><line style="stroke: #A80036; stroke-width: 1.5;" x1="53.5" x2="152.5" y1="434.9375" y2="434.9375"/><ellipse cx="63.5" cy="445.9375" fill="#84BE84" rx="3" ry="3" style="stroke: #038048; stroke-width: 1.0;"/><text fill="#000000" font-family="sans-serif" font-size="11" lengthAdjust="spacingAndGlyphs" textLength="73" x="72.5" y="449.1479">myMethodA()</text><ellipse cx="63.5" cy="458.7422" fill="#84BE84" rx="3" ry="3" style="stroke: #038048; stroke-width: 1.0;"/><text fill="#000000" font-family="sans-serif" font-size="11" lengthAdjust="spacingAndGlyphs" textLength="74" x="72.5" y="461.9526">myMethodB()</text><ellipse cx="63.5" cy="471.5469" fill="#84BE84" rx="3" ry="3" style="stroke: #038048; stroke-width: 1.0;"/><text fill="#000000" font-family="sans-serif" font-size="11" lengthAdjust="spacingAndGlyphs" textLength="69" x="72.5" y="474.7573">operation1()</text><ellipse cx="63.5" cy="484.3516" fill="#84BE84" rx="3" ry="3" style="stroke: #038048; stroke-width: 1.0;"/><text fill="#000000" font-family="sans-serif" font-size="11" lengthAdjust="spacingAndGlyphs" textLength="69" x="72.5" y="487.562">operation2()</text><ellipse cx="63.5" cy="497.1563" fill="#84BE84" rx="3" ry="3" style="stroke: #038048; stroke-width: 1.0;"/><text fill="#000000" font-family="sans-serif" font-size="11" lengthAdjust="spacingAndGlyphs" textLength="69" x="72.5" y="500.3667">operation3()</text><!--MD5=[58b8d0ec76e4fa95291d7677de9d77b8]
class example2.TargetInterface--><rect fill="#FF0000" filter="url(#fijs4i9jjnoh9)" height="79.5469" id="example2.TargetInterface" style="stroke: #A80036; stroke-width: 1.5;" width="130" x="229" y="59"/><ellipse cx="244" cy="77.9688" fill="#B4A7E5" rx="11" ry="11" style="stroke: #A80036; stroke-width: 1.0;"/><path d="M244.9531,74.75 L244.9531,81.2656 L246.6719,81.2656 C247.125,81.2656 247.2656,81.2969 247.4375,81.4219 C247.6719,81.5938 247.7813,81.8438 247.7813,82.125 C247.7813,82.6875 247.4219,82.9688 246.6719,82.9688 L241.5313,82.9688 C241.125,82.9688 240.9219,82.9219 240.7656,82.7969 C240.5469,82.6406 240.4063,82.375 240.4063,82.125 C240.4063,81.8281 240.5625,81.5469 240.8125,81.3906 C240.9688,81.2813 241.0938,81.2656 241.5313,81.2656 L243.25,81.2656 L243.25,74.75 L241.5313,74.75 C241.1094,74.75 240.9219,74.7188 240.7656,74.6094 C240.5469,74.4375 240.4063,74.1875 240.4063,73.9063 C240.4063,73.625 240.5625,73.3281 240.8125,73.1719 C240.9688,73.0781 241.0938,73.0625 241.5313,73.0625 L246.6719,73.0625 C247.125,73.0625 247.2656,73.0938 247.4375,73.2031 C247.6719,73.375 247.7813,73.6406 247.7813,73.9063 C247.7813,74.2031 247.6406,74.4844 247.375,74.6406 C247.25,74.7188 247.0625,74.75 246.6719,74.75 Z "/><text fill="#000000" font-family="sans-serif" font-size="12" font-style="italic" lengthAdjust="spacingAndGlyphs" textLength="53" x="280.5" y="75.1387">«target»</text><text fill="#000000" font-family="sans-serif" font-size="12" font-style="italic" lengthAdjust="spacingAndGlyphs" textLength="98" x="258" y="89.1074">TargetInterface</text><line style="stroke: #A80036; stroke-width: 1.5;" x1="230" x2="358" y1="96.9375" y2="96.9375"/><line style="stroke: #A80036; stroke-width: 1.5;" x1="230" x2="358" y1="104.9375" y2="104.9375"/><ellipse cx="240" cy="115.9375" fill="#84BE84" rx="3" ry="3" style="stroke: #038048; stroke-width: 1.0;"/><text fill="#000000" font-family="sans-serif" font-size="11" lengthAdjust="spacingAndGlyphs" textLength="73" x="249" y="119.1479">myMethodA()</text><ellipse cx="240" cy="128.7422" fill="#84BE84" rx="3" ry="3" style="stroke: #038048; stroke-width: 1.0;"/><text fill="#000000" font-family="sans-serif" font-size="11" lengthAdjust="spacingAndGlyphs" textLength="74" x="249" y="131.9526">myMethodB()</text><!--MD5=[04c06c84a36f6fbef80611e5e797d144]
class example2.MyAdapter--><rect fill="#FF0000" filter="url(#fijs4i9jjnoh9)" height="105.1563" id="example2.MyAdapter" style="stroke: #A80036; stroke-width: 1.5;" width="139" x="224.5" y="203.5"/><ellipse cx="257.95" cy="222.4688" fill="#ADD1B2" rx="11" ry="11" style="stroke: #A80036; stroke-width: 1.0;"/><path d="M260.2938,218.1406 L260.4656,218.2188 C260.6844,217.9063 260.8875,217.8125 261.1844,217.8125 C261.4813,217.8125 261.7625,217.9531 261.9188,218.2188 C262.0125,218.375 262.0281,218.5 262.0281,218.9375 L262.0281,220.3594 C262.0281,220.7813 261.9969,220.9688 261.8875,221.125 C261.7156,221.3438 261.45,221.4844 261.1844,221.4844 C260.9656,221.4844 260.7313,221.375 260.5906,221.2344 C260.45,221.1094 260.4188,220.9844 260.3563,220.5781 C260.2625,220.1719 260.0906,219.9531 259.6063,219.6719 C259.1375,219.4219 258.5281,219.2656 257.95,219.2656 C256.2156,219.2656 254.9656,220.5781 254.9656,222.3594 L254.9656,223.4531 C254.9656,225.1563 256.2625,226.25 258.3094,226.25 C259.075,226.25 259.7625,226.125 260.1844,225.8594 C260.3719,225.7656 260.3719,225.7656 260.825,225.2813 C261.0125,225.0938 261.2156,225.0156 261.4344,225.0156 C261.9031,225.0156 262.2938,225.4063 262.2938,225.8594 C262.2938,226.25 261.9656,226.7031 261.3875,227.1094 C260.6375,227.6563 259.4813,227.9531 258.2625,227.9531 C255.3719,227.9531 253.2625,226.0625 253.2625,223.4844 L253.2625,222.3594 C253.2625,219.6406 255.2625,217.5625 257.8875,217.5625 C258.7625,217.5625 259.3563,217.7031 260.2938,218.1406 Z "/><text fill="#000000" font-family="sans-serif" font-size="12" font-style="italic" lengthAdjust="spacingAndGlyphs" textLength="64" x="277.05" y="219.6387">«adapter»</text><text fill="#000000" font-family="sans-serif" font-size="12" lengthAdjust="spacingAndGlyphs" textLength="66" x="276.05" y="233.6074">MyAdapter</text><line style="stroke: #A80036; stroke-width: 1.5;" x1="225.5" x2="362.5" y1="241.4375" y2="241.4375"/><line style="stroke: #A80036; stroke-width: 1.5;" x1="225.5" x2="362.5" y1="249.4375" y2="249.4375"/><ellipse cx="235.5" cy="260.4375" fill="#84BE84" rx="3" ry="3" style="stroke: #038048; stroke-width: 1.0;"/><text fill="#000000" font-family="sans-serif" font-size="11" lengthAdjust="spacingAndGlyphs" textLength="73" x="244.5" y="263.6479">myMethodA()</text><ellipse cx="235.5" cy="273.2422" fill="#84BE84" rx="3" ry="3" style="stroke: #038048; stroke-width: 1.0;"/><text fill="#000000" font-family="sans-serif" font-size="11" lengthAdjust="spacingAndGlyphs" textLength="74" x="244.5" y="276.4526">myMethodB()</text><rect fill="#F24D5C" height="6" style="stroke: #C82930; stroke-width: 1.0;" width="6" x="232.5" y="283.0469"/><text fill="#000000" font-family="sans-serif" font-size="11" lengthAdjust="spacingAndGlyphs" textLength="112" x="244.5" y="289.2573">myPrivateMethodA()</text><rect fill="#F24D5C" height="6" style="stroke: #C82930; stroke-width: 1.0;" width="6" x="232.5" y="295.8516"/><text fill="#000000" font-family="sans-serif" font-size="11" lengthAdjust="spacingAndGlyphs" textLength="113" x="244.5" y="302.062">myPrivateMethodB()</text><!--MD5=[6e73ad37586322530e46c26caaf3fe4d]
class example2.MyAdaptee--><rect fill="#FF0000" filter="url(#fijs4i9jjnoh9)" height="92.3516" id="example2.MyAdaptee" style="stroke: #A80036; stroke-width: 1.5;" width="101" x="243.5" y="402"/><ellipse cx="258.5" cy="420.9688" fill="#ADD1B2" rx="11" ry="11" style="stroke: #A80036; stroke-width: 1.0;"/><path d="M260.8438,416.6406 L261.0156,416.7188 C261.2344,416.4063 261.4375,416.3125 261.7344,416.3125 C262.0313,416.3125 262.3125,416.4531 262.4688,416.7188 C262.5625,416.875 262.5781,417 262.5781,417.4375 L262.5781,418.8594 C262.5781,419.2813 262.5469,419.4688 262.4375,419.625 C262.2656,419.8438 262,419.9844 261.7344,419.9844 C261.5156,419.9844 261.2813,419.875 261.1406,419.7344 C261,419.6094 260.9688,419.4844 260.9063,419.0781 C260.8125,418.6719 260.6406,418.4531 260.1563,418.1719 C259.6875,417.9219 259.0781,417.7656 258.5,417.7656 C256.7656,417.7656 255.5156,419.0781 255.5156,420.8594 L255.5156,421.9531 C255.5156,423.6563 256.8125,424.75 258.8594,424.75 C259.625,424.75 260.3125,424.625 260.7344,424.3594 C260.9219,424.2656 260.9219,424.2656 261.375,423.7813 C261.5625,423.5938 261.7656,423.5156 261.9844,423.5156 C262.4531,423.5156 262.8438,423.9063 262.8438,424.3594 C262.8438,424.75 262.5156,425.2031 261.9375,425.6094 C261.1875,426.1563 260.0313,426.4531 258.8125,426.4531 C255.9219,426.4531 253.8125,424.5625 253.8125,421.9844 L253.8125,420.8594 C253.8125,418.1406 255.8125,416.0625 258.4375,416.0625 C259.3125,416.0625 259.9063,416.2031 260.8438,416.6406 Z "/><text fill="#000000" font-family="sans-serif" font-size="12" font-style="italic" lengthAdjust="spacingAndGlyphs" textLength="67" x="273.5" y="418.1387">«adaptee»</text><text fill="#000000" font-family="sans-serif" font-size="12" lengthAdjust="spacingAndGlyphs" textLength="69" x="272.5" y="432.1074">MyAdaptee</text><line style="stroke: #A80036; stroke-width: 1.5;" x1="244.5" x2="343.5" y1="439.9375" y2="439.9375"/><line style="stroke: #A80036; stroke-width: 1.5;" x1="244.5" x2="343.5" y1="447.9375" y2="447.9375"/><ellipse cx="254.5" cy="458.9375" fill="#84BE84" rx="3" ry="3" style="stroke: #038048; stroke-width: 1.0;"/><text fill="#000000" font-family="sans-serif" font-size="11" lengthAdjust="spacingAndGlyphs" textLength="69" x="263.5" y="462.1479">operation1()</text><ellipse cx="254.5" cy="471.7422" fill="#84BE84" rx="3" ry="3" style="stroke: #038048; stroke-width: 1.0;"/><text fill="#000000" font-family="sans-serif" font-size="11" lengthAdjust="spacingAndGlyphs" textLength="69" x="263.5" y="474.9526">operation2()</text><ellipse cx="254.5" cy="484.5469" fill="#84BE84" rx="3" ry="3" style="stroke: #038048; stroke-width: 1.0;"/><text fill="#000000" font-family="sans-serif" font-size="11" lengthAdjust="spacingAndGlyphs" textLength="69" x="263.5" y="487.7573">operation3()</text><!--MD5=[190bfa2811bcca6f488901680b7a0121]
class example3.MyAdapter--><rect fill="#FEFECE" filter="url(#fijs4i9jjnoh9)" height="73.6094" id="example3.MyAdapter" style="stroke: #A80036; stroke-width: 1.5;" width="100" x="420" y="219"/><ellipse cx="435.9" cy="235" fill="#ADD1B2" rx="11" ry="11" style="stroke: #A80036; stroke-width: 1.0;"/><path d="M438.2438,230.6719 L438.4156,230.75 C438.6344,230.4375 438.8375,230.3438 439.1344,230.3438 C439.4313,230.3438 439.7125,230.4844 439.8688,230.75 C439.9625,230.9063 439.9781,231.0313 439.9781,231.4688 L439.9781,232.8906 C439.9781,233.3125 439.9469,233.5 439.8375,233.6563 C439.6656,233.875 439.4,234.0156 439.1344,234.0156 C438.9156,234.0156 438.6813,233.9063 438.5406,233.7656 C438.4,233.6406 438.3688,233.5156 438.3063,233.1094 C438.2125,232.7031 438.0406,232.4844 437.5563,232.2031 C437.0875,231.9531 436.4781,231.7969 435.9,231.7969 C434.1656,231.7969 432.9156,233.1094 432.9156,234.8906 L432.9156,235.9844 C432.9156,237.6875 434.2125,238.7813 436.2594,238.7813 C437.025,238.7813 437.7125,238.6563 438.1344,238.3906 C438.3219,238.2969 438.3219,238.2969 438.775,237.8125 C438.9625,237.625 439.1656,237.5469 439.3844,237.5469 C439.8531,237.5469 440.2438,237.9375 440.2438,238.3906 C440.2438,238.7813 439.9156,239.2344 439.3375,239.6406 C438.5875,240.1875 437.4313,240.4844 436.2125,240.4844 C433.3219,240.4844 431.2125,238.5938 431.2125,236.0156 L431.2125,234.8906 C431.2125,232.1719 433.2125,230.0938 435.8375,230.0938 C436.7125,230.0938 437.3063,230.2344 438.2438,230.6719 Z "/><text fill="#000000" font-family="sans-serif" font-size="12" lengthAdjust="spacingAndGlyphs" textLength="66" x="450.1" y="239.1543">MyAdapter</text><line style="stroke: #A80036; stroke-width: 1.5;" x1="421" x2="519" y1="251" y2="251"/><line style="stroke: #A80036; stroke-width: 1.5;" x1="421" x2="519" y1="259" y2="259"/><ellipse cx="431" cy="270" fill="#84BE84" rx="3" ry="3" style="stroke: #038048; stroke-width: 1.0;"/><text fill="#000000" font-family="sans-serif" font-size="11" lengthAdjust="spacingAndGlyphs" textLength="73" x="440" y="273.2104">myMethodA()</text><ellipse cx="431" cy="282.8047" fill="#84BE84" rx="3" ry="3" style="stroke: #038048; stroke-width: 1.0;"/><text fill="#000000" font-family="sans-serif" font-size="11" lengthAdjust="spacingAndGlyphs" textLength="74" x="440" y="286.0151">myMethodB()</text><!--MD5=[8e2edb136e68fd67138daa7b6ac564e4]
class example3.TargetInterface--><rect fill="#FEFECE" filter="url(#fijs4i9jjnoh9)" height="73.6094" id="example3.TargetInterface" style="stroke: #A80036; stroke-width: 1.5;" width="130" x="497" y="62"/><ellipse cx="512" cy="78" fill="#B4A7E5" rx="11" ry="11" style="stroke: #A80036; stroke-width: 1.0;"/><path d="M512.9531,74.7813 L512.9531,81.2969 L514.6719,81.2969 C515.125,81.2969 515.2656,81.3281 515.4375,81.4531 C515.6719,81.625 515.7813,81.875 515.7813,82.1563 C515.7813,82.7188 515.4219,83 514.6719,83 L509.5313,83 C509.125,83 508.9219,82.9531 508.7656,82.8281 C508.5469,82.6719 508.4063,82.4063 508.4063,82.1563 C508.4063,81.8594 508.5625,81.5781 508.8125,81.4219 C508.9688,81.3125 509.0938,81.2969 509.5313,81.2969 L511.25,81.2969 L511.25,74.7813 L509.5313,74.7813 C509.1094,74.7813 508.9219,74.75 508.7656,74.6406 C508.5469,74.4688 508.4063,74.2188 508.4063,73.9375 C508.4063,73.6563 508.5625,73.3594 508.8125,73.2031 C508.9688,73.1094 509.0938,73.0938 509.5313,73.0938 L514.6719,73.0938 C515.125,73.0938 515.2656,73.125 515.4375,73.2344 C515.6719,73.4063 515.7813,73.6719 515.7813,73.9375 C515.7813,74.2344 515.6406,74.5156 515.375,74.6719 C515.25,74.75 515.0625,74.7813 514.6719,74.7813 Z "/><text fill="#000000" font-family="sans-serif" font-size="12" font-style="italic" lengthAdjust="spacingAndGlyphs" textLength="98" x="526" y="82.1543">TargetInterface</text><line style="stroke: #A80036; stroke-width: 1.5;" x1="498" x2="626" y1="94" y2="94"/><line style="stroke: #A80036; stroke-width: 1.5;" x1="498" x2="626" y1="102" y2="102"/><ellipse cx="508" cy="113" fill="#84BE84" rx="3" ry="3" style="stroke: #038048; stroke-width: 1.0;"/><text fill="#000000" font-family="sans-serif" font-size="11" lengthAdjust="spacingAndGlyphs" textLength="58" x="517" y="116.2104">methodA()</text><ellipse cx="508" cy="125.8047" fill="#84BE84" rx="3" ry="3" style="stroke: #038048; stroke-width: 1.0;"/><text fill="#000000" font-family="sans-serif" font-size="11" lengthAdjust="spacingAndGlyphs" textLength="59" x="517" y="129.0151">methodB()</text><!--MD5=[6258be400231af4b74d3ec46e8b6346e]
class example3.MyAdaptee--><rect fill="#FEFECE" filter="url(#fijs4i9jjnoh9)" height="86.4141" id="example3.MyAdaptee" style="stroke: #A80036; stroke-width: 1.5;" width="101" x="463.5" y="405"/><ellipse cx="478.5" cy="421" fill="#ADD1B2" rx="11" ry="11" style="stroke: #A80036; stroke-width: 1.0;"/><path d="M480.8438,416.6719 L481.0156,416.75 C481.2344,416.4375 481.4375,416.3438 481.7344,416.3438 C482.0313,416.3438 482.3125,416.4844 482.4688,416.75 C482.5625,416.9063 482.5781,417.0313 482.5781,417.4688 L482.5781,418.8906 C482.5781,419.3125 482.5469,419.5 482.4375,419.6563 C482.2656,419.875 482,420.0156 481.7344,420.0156 C481.5156,420.0156 481.2813,419.9063 481.1406,419.7656 C481,419.6406 480.9688,419.5156 480.9063,419.1094 C480.8125,418.7031 480.6406,418.4844 480.1563,418.2031 C479.6875,417.9531 479.0781,417.7969 478.5,417.7969 C476.7656,417.7969 475.5156,419.1094 475.5156,420.8906 L475.5156,421.9844 C475.5156,423.6875 476.8125,424.7813 478.8594,424.7813 C479.625,424.7813 480.3125,424.6563 480.7344,424.3906 C480.9219,424.2969 480.9219,424.2969 481.375,423.8125 C481.5625,423.625 481.7656,423.5469 481.9844,423.5469 C482.4531,423.5469 482.8438,423.9375 482.8438,424.3906 C482.8438,424.7813 482.5156,425.2344 481.9375,425.6406 C481.1875,426.1875 480.0313,426.4844 478.8125,426.4844 C475.9219,426.4844 473.8125,424.5938 473.8125,422.0156 L473.8125,420.8906 C473.8125,418.1719 475.8125,416.0938 478.4375,416.0938 C479.3125,416.0938 479.9063,416.2344 480.8438,416.6719 Z "/><text fill="#000000" font-family="sans-serif" font-size="12" lengthAdjust="spacingAndGlyphs" textLength="69" x="492.5" y="425.1543">MyAdaptee</text><line style="stroke: #A80036; stroke-width: 1.5;" x1="464.5" x2="563.5" y1="437" y2="437"/><line style="stroke: #A80036; stroke-width: 1.5;" x1="464.5" x2="563.5" y1="445" y2="445"/><ellipse cx="474.5" cy="456" fill="#84BE84" rx="3" ry="3" style="stroke: #038048; stroke-width: 1.0;"/><text fill="#000000" font-family="sans-serif" font-size="11" lengthAdjust="spacingAndGlyphs" textLength="69" x="483.5" y="459.2104">operation1()</text><ellipse cx="474.5" cy="468.8047" fill="#84BE84" rx="3" ry="3" style="stroke: #038048; stroke-width: 1.0;"/><text fill="#000000" font-family="sans-serif" font-size="11" lengthAdjust="spacingAndGlyphs" textLength="69" x="483.5" y="472.0151">operation2()</text><ellipse cx="474.5" cy="481.6094" fill="#84BE84" rx="3" ry="3" style="stroke: #038048; stroke-width: 1.0;"/><text fill="#000000" font-family="sans-serif" font-size="11" lengthAdjust="spacingAndGlyphs" textLength="69" x="483.5" y="484.8198">operation3()</text><!--MD5=[35e0893f13b5feb56b8de681a2020a20]
class example3.MyAdapteeSuperclass--><rect fill="#FEFECE" filter="url(#fijs4i9jjnoh9)" height="112.0234" id="example3.MyAdapteeSuperclass" style="stroke: #A80036; stroke-width: 1.5;" width="170" x="555" y="200"/><ellipse cx="570" cy="216" fill="#ADD1B2" rx="11" ry="11" style="stroke: #A80036; stroke-width: 1.0;"/><path d="M572.3438,211.6719 L572.5156,211.75 C572.7344,211.4375 572.9375,211.3438 573.2344,211.3438 C573.5313,211.3438 573.8125,211.4844 573.9688,211.75 C574.0625,211.9063 574.0781,212.0313 574.0781,212.4688 L574.0781,213.8906 C574.0781,214.3125 574.0469,214.5 573.9375,214.6563 C573.7656,214.875 573.5,215.0156 573.2344,215.0156 C573.0156,215.0156 572.7813,214.9063 572.6406,214.7656 C572.5,214.6406 572.4688,214.5156 572.4063,214.1094 C572.3125,213.7031 572.1406,213.4844 571.6563,213.2031 C571.1875,212.9531 570.5781,212.7969 570,212.7969 C568.2656,212.7969 567.0156,214.1094 567.0156,215.8906 L567.0156,216.9844 C567.0156,218.6875 568.3125,219.7813 570.3594,219.7813 C571.125,219.7813 571.8125,219.6563 572.2344,219.3906 C572.4219,219.2969 572.4219,219.2969 572.875,218.8125 C573.0625,218.625 573.2656,218.5469 573.4844,218.5469 C573.9531,218.5469 574.3438,218.9375 574.3438,219.3906 C574.3438,219.7813 574.0156,220.2344 573.4375,220.6406 C572.6875,221.1875 571.5313,221.4844 570.3125,221.4844 C567.4219,221.4844 565.3125,219.5938 565.3125,217.0156 L565.3125,215.8906 C565.3125,213.1719 567.3125,211.0938 569.9375,211.0938 C570.8125,211.0938 571.4063,211.2344 572.3438,211.6719 Z "/><text fill="#000000" font-family="sans-serif" font-size="12" lengthAdjust="spacingAndGlyphs" textLength="138" x="584" y="220.1543">MyAdapteeSuperclass</text><line style="stroke: #A80036; stroke-width: 1.5;" x1="556" x2="724" y1="232" y2="232"/><line style="stroke: #A80036; stroke-width: 1.5;" x1="556" x2="724" y1="240" y2="240"/><ellipse cx="566" cy="251" fill="#84BE84" rx="3" ry="3" style="stroke: #038048; stroke-width: 1.0;"/><text fill="#000000" font-family="sans-serif" font-size="11" lengthAdjust="spacingAndGlyphs" textLength="73" x="575" y="254.2104">myMethodA()</text><ellipse cx="566" cy="263.8047" fill="#84BE84" rx="3" ry="3" style="stroke: #038048; stroke-width: 1.0;"/><text fill="#000000" font-family="sans-serif" font-size="11" lengthAdjust="spacingAndGlyphs" textLength="74" x="575" y="267.0151">myMethodB()</text><ellipse cx="566" cy="276.6094" fill="#84BE84" rx="3" ry="3" style="stroke: #038048; stroke-width: 1.0;"/><text fill="#000000" font-family="sans-serif" font-size="11" lengthAdjust="spacingAndGlyphs" textLength="69" x="575" y="279.8198">operation1()</text><ellipse cx="566" cy="289.4141" fill="#84BE84" rx="3" ry="3" style="stroke: #038048; stroke-width: 1.0;"/><text fill="#000000" font-family="sans-serif" font-size="11" lengthAdjust="spacingAndGlyphs" textLength="69" x="575" y="292.6245">operation2()</text><ellipse cx="566" cy="302.2188" fill="#84BE84" rx="3" ry="3" style="stroke: #038048; stroke-width: 1.0;"/><text fill="#000000" font-family="sans-serif" font-size="11" lengthAdjust="spacingAndGlyphs" textLength="69" x="575" y="305.4292">operation3()</text><!--MD5=[529740a97100f8f6e885e1d444eb85b1]
reverse link example1.TargetInterface to example1.MyAdapter--><path d="M103,159.238 C103,178.214 103,198.737 103,215.899 " fill="none" id="example1.TargetInterface&lt;-example1.MyAdapter" style="stroke: #A80036; stroke-width: 1.0; stroke-dasharray: 7.0,7.0;"/><polygon fill="none" points="96.0001,159.113,103,139.113,110,159.113,96.0001,159.113" style="stroke: #A80036; stroke-width: 1.0;"/><!--MD5=[8b11cf7170f82e6e3dd9cd4d4b2b496c]
link example1.MyAdapter to example1.MyAdaptee--><path d="M103,296.368 C103,321.541 103,354.759 103,383.595 " fill="none" id="example1.MyAdapter-&gt;example1.MyAdaptee" style="stroke: #A80036; stroke-width: 1.0;"/><polygon fill="#A80036" points="103,388.925,107,379.925,103,383.925,99,379.925,103,388.925" style="stroke: #A80036; stroke-width: 1.0;"/><text fill="#000000" font-family="sans-serif" font-size="13" lengthAdjust="spacingAndGlyphs" textLength="60" x="104" y="355.0669">«adapts»</text><!--MD5=[c9eb122f04196f5455af3c9cb1516282]
reverse link example2.TargetInterface to example2.MyAdapter--><path d="M294,159.161 C294,173.697 294,189.146 294,203.3 " fill="none" id="example2.TargetInterface&lt;-example2.MyAdapter" style="stroke: #A80036; stroke-width: 1.0; stroke-dasharray: 7.0,7.0;"/><polygon fill="none" points="287,159.113,294,139.113,301,159.113,287,159.113" style="stroke: #A80036; stroke-width: 1.0;"/><!--MD5=[a889d9c983c6f8a00f3194669e9492fc]
link example2.MyAdapter to example2.MyAdaptee--><path d="M294,308.667 C294,335.968 294,369.344 294,396.473 " fill="none" id="example2.MyAdapter-&gt;example2.MyAdaptee" style="stroke: #A80036; stroke-width: 1.0;"/><polygon fill="#A80036" points="294,401.811,298,392.811,294,396.811,290,392.811,294,401.811" style="stroke: #A80036; stroke-width: 1.0;"/><text fill="#000000" font-family="sans-serif" font-size="13" lengthAdjust="spacingAndGlyphs" textLength="60" x="295" y="355.0669">«adapts»</text><!--MD5=[3b9dcab1cafac29a0f5f541b67d4f2fe]
reverse link example3.TargetInterface to example3.MyAdapter--><path d="M530.161,153.642 C517.364,175.202 502.947,199.491 491.435,218.887 " fill="none" id="example3.TargetInterface&lt;-example3.MyAdapter" style="stroke: #A80036; stroke-width: 1.0; stroke-dasharray: 7.0,7.0;"/><polygon fill="none" points="524.202,149.966,540.43,136.341,536.241,157.112,524.202,149.966" style="stroke: #A80036; stroke-width: 1.0;"/><!--MD5=[bf3fec6a9197e2b7a160eac1ee1b04dd]
reverse link example3.MyAdapteeSuperclass to example3.MyAdaptee--><path d="M592.221,329.048 C575.226,354.675 556.66,382.671 541.882,404.955 " fill="none" id="example3.MyAdapteeSuperclass&lt;-example3.MyAdaptee" style="stroke: #A80036; stroke-width: 1.0;"/><polygon fill="none" points="586.499,325.01,603.386,312.211,598.167,332.748,586.499,325.01" style="stroke: #A80036; stroke-width: 1.0;"/><!--MD5=[7f971f522ee7ce99bfbec186a1d2a7d6]
reverse link example3.TargetInterface to example3.MyAdapteeSuperclass--><path d="M589.516,154.679 C596.874,169.301 604.831,185.112 612.204,199.764 " fill="none" id="example3.TargetInterface&lt;-example3.MyAdapteeSuperclass" style="stroke: #A80036; stroke-width: 1.0; stroke-dasharray: 7.0,7.0;"/><polygon fill="none" points="583.025,157.353,580.288,136.341,595.531,151.059,583.025,157.353" style="stroke: #A80036; stroke-width: 1.0;"/><!--MD5=[7fcb88d4a8826bdd34f18e5fd3994401]
link example3.MyAdapter to example3.MyAdaptee--><path d="M478.38,293.185 C485.385,323.437 495.429,366.807 503.067,399.787 " fill="none" id="example3.MyAdapter-&gt;example3.MyAdaptee" style="stroke: #A80036; stroke-width: 1.0;"/><polygon fill="#A80036" points="504.271,404.988,506.1392,395.318,503.1439,400.1167,498.3452,397.1213,504.271,404.988" style="stroke: #A80036; stroke-width: 1.0;"/><!--MD5=[9e3f54e957675ecdf7d5073f4a2e025f]
@startuml
interface example1.TargetInterface <<target>> {

+myMethodA()
+myMethodB()

}

class example1.MyAdapter <<adapter>> implements example1.TargetInterface {

+myMethodA()
+myMethodB()

}

class example1.MyAdaptee <<adaptee>> {
+myMethodA() 
+myMethodB() 
+operation1()
+operation2()
+operation3()
}

example1.MyAdapter - -> example1.MyAdaptee : <<adapts>>

skinparam class {
 BackgroundColor<<adapter>> RED
 BackgroundColor<<adaptee>> RED
 BackgroundColor<<target>> RED

}


interface example2.TargetInterface <<target>> {

+myMethodA()
+myMethodB()

}

class example2.MyAdapter <<adapter>> implements example2.TargetInterface {

+myMethodA()
+myMethodB()
-myPrivateMethodA()
-myPrivateMethodB()

}

class example2.MyAdaptee <<adaptee>> {
+operation1()
+operation2()
+operation3()
}

example2.MyAdapter - -> example2.MyAdaptee : <<adapts>>

skinparam class {
 BackgroundColor<<adapter>> RED
 BackgroundColor<<adaptee>> RED
 BackgroundColor<<target>> RED

}



class example3.MyAdapter  implements example3.TargetInterface {

+myMethodA()
+myMethodB()

}

interface example3.TargetInterface {
 +methodA() 
 +methodB() 
}

class example3.MyAdaptee extends example3.MyAdapteeSuperclass {
+operation1()
+operation2()
+operation3()
}

class example3.MyAdapteeSuperclass implements example3.TargetInterface{
+myMethodA() 
+myMethodB()
+operation1()
+operation2()
+operation3()
}


example3.MyAdapter - -> example3.MyAdaptee
@enduml

PlantUML version 1.2020.01beta16(Unknown compile time)
(GPL source distribution)
Java Runtime: Java(TM) SE Runtime Environment
JVM: Java HotSpot(TM) 64-Bit Server VM
Java Version: 1.7.0_25-b15
Operating System: Linux
Default Encoding: UTF-8
Language: en
Country: US
--></g></svg>