<?xml version="1.0" encoding="UTF-8" standalone="no"?><svg xmlns="http://www.w3.org/2000/svg" xmlns:xlink="http://www.w3.org/1999/xlink" contentScriptType="application/ecmascript" contentStyleType="text/css" height="491px" preserveAspectRatio="none" style="width:1785px;height:491px;" version="1.1" viewBox="0 0 1785 491" width="1785px" zoomAndPan="magnify"><defs><filter height="300%" id="f1lbejxq41daur" width="300%" x="-1" y="-1"><feGaussianBlur result="blurOut" stdDeviation="2.0"/><feColorMatrix in="blurOut" result="blurOut2" type="matrix" values="0 0 0 0 0 0 0 0 0 0 0 0 0 0 0 0 0 0 .4 0"/><feOffset dx="4.0" dy="4.0" in="blurOut2" result="blurOut3"/><feBlend in="SourceGraphic" in2="blurOut3" mode="normal"/></filter></defs><g><!--MD5=[59d99d98b6670a8a468165c37957bdae]
cluster example1--><polygon fill="#FFFFFF" filter="url(#f1lbejxq41daur)" points="22,24,104,24,111,46.2969,428,46.2969,428,473,22,473,22,24" style="stroke: #000000; stroke-width: 1.5;"/><line style="stroke: #000000; stroke-width: 1.5;" x1="22" x2="111" y1="46.2969" y2="46.2969"/><text fill="#000000" font-family="sans-serif" font-size="14" font-weight="bold" lengthAdjust="spacingAndGlyphs" textLength="76" x="26" y="38.9951">example1</text><!--MD5=[bd0d67886468a2ad8c7c2495c027baa8]
cluster example2--><polygon fill="#FFFFFF" filter="url(#f1lbejxq41daur)" points="452,24,534,24,541,46.2969,948,46.2969,948,479,452,479,452,24" style="stroke: #000000; stroke-width: 1.5;"/><line style="stroke: #000000; stroke-width: 1.5;" x1="452" x2="541" y1="46.2969" y2="46.2969"/><text fill="#000000" font-family="sans-serif" font-size="14" font-weight="bold" lengthAdjust="spacingAndGlyphs" textLength="76" x="456" y="38.9951">example2</text><!--MD5=[92f28e37f3dec77b5194b2639e3ce7ec]
cluster example3--><polygon fill="#FFFFFF" filter="url(#f1lbejxq41daur)" points="972,24,1054,24,1061,46.2969,1523,46.2969,1523,479,972,479,972,24" style="stroke: #000000; stroke-width: 1.5;"/><line style="stroke: #000000; stroke-width: 1.5;" x1="972" x2="1061" y1="46.2969" y2="46.2969"/><text fill="#000000" font-family="sans-serif" font-size="14" font-weight="bold" lengthAdjust="spacingAndGlyphs" textLength="76" x="976" y="38.9951">example3</text><!--MD5=[7a9e568bb181fe78a3bf622746dbf3bf]
cluster example4--><polygon fill="#FFFFFF" filter="url(#f1lbejxq41daur)" points="1547,24,1629,24,1636,46.2969,1763,46.2969,1763,324,1547,324,1547,24" style="stroke: #000000; stroke-width: 1.5;"/><line style="stroke: #000000; stroke-width: 1.5;" x1="1547" x2="1636" y1="46.2969" y2="46.2969"/><text fill="#000000" font-family="sans-serif" font-size="14" font-weight="bold" lengthAdjust="spacingAndGlyphs" textLength="76" x="1551" y="38.9951">example4</text><!--MD5=[faed20337e1b3e8654a5d8e6721e8005]
class example1.IComponent--><rect fill="#90EE90" filter="url(#f1lbejxq41daur)" height="79.5469" id="example1.IComponent" style="stroke: #A80036; stroke-width: 1.5;" width="113" x="229.5" y="59"/><ellipse cx="244.5" cy="77.9688" fill="#B4A7E5" rx="11" ry="11" style="stroke: #A80036; stroke-width: 1.0;"/><path d="M245.4531,74.75 L245.4531,81.2656 L247.1719,81.2656 C247.625,81.2656 247.7656,81.2969 247.9375,81.4219 C248.1719,81.5938 248.2813,81.8438 248.2813,82.125 C248.2813,82.6875 247.9219,82.9688 247.1719,82.9688 L242.0313,82.9688 C241.625,82.9688 241.4219,82.9219 241.2656,82.7969 C241.0469,82.6406 240.9063,82.375 240.9063,82.125 C240.9063,81.8281 241.0625,81.5469 241.3125,81.3906 C241.4688,81.2813 241.5938,81.2656 242.0313,81.2656 L243.75,81.2656 L243.75,74.75 L242.0313,74.75 C241.6094,74.75 241.4219,74.7188 241.2656,74.6094 C241.0469,74.4375 240.9063,74.1875 240.9063,73.9063 C240.9063,73.625 241.0625,73.3281 241.3125,73.1719 C241.4688,73.0781 241.5938,73.0625 242.0313,73.0625 L247.1719,73.0625 C247.625,73.0625 247.7656,73.0938 247.9375,73.2031 C248.1719,73.375 248.2813,73.6406 248.2813,73.9063 C248.2813,74.2031 248.1406,74.4844 247.875,74.6406 C247.75,74.7188 247.5625,74.75 247.1719,74.75 Z "/><text fill="#000000" font-family="sans-serif" font-size="12" font-style="italic" lengthAdjust="spacingAndGlyphs" textLength="85" x="256.5" y="75.1387">«component»</text><text fill="#000000" font-family="sans-serif" font-size="12" font-style="italic" lengthAdjust="spacingAndGlyphs" textLength="76" x="261" y="89.1074">IComponent</text><line style="stroke: #A80036; stroke-width: 1.5;" x1="230.5" x2="341.5" y1="96.9375" y2="96.9375"/><line style="stroke: #A80036; stroke-width: 1.5;" x1="230.5" x2="341.5" y1="104.9375" y2="104.9375"/><ellipse cx="240.5" cy="115.9375" fill="#84BE84" rx="3" ry="3" style="stroke: #038048; stroke-width: 1.0;"/><text fill="#000000" font-family="sans-serif" font-size="11" lengthAdjust="spacingAndGlyphs" textLength="58" x="249.5" y="119.1479">method1()</text><ellipse cx="240.5" cy="128.7422" fill="#84BE84" rx="3" ry="3" style="stroke: #038048; stroke-width: 1.0;"/><text fill="#000000" font-family="sans-serif" font-size="11" lengthAdjust="spacingAndGlyphs" textLength="58" x="249.5" y="131.9526">method2()</text><!--MD5=[593f97a92e51343045950c728d82727c]
class example1.ConcreteComponenet--><rect fill="#FEFECE" filter="url(#f1lbejxq41daur)" height="73.6094" id="example1.ConcreteComponenet" style="stroke: #A80036; stroke-width: 1.5;" width="169" x="38.5" y="225"/><ellipse cx="53.5" cy="241" fill="#ADD1B2" rx="11" ry="11" style="stroke: #A80036; stroke-width: 1.0;"/><path d="M55.8438,236.6719 L56.0156,236.75 C56.2344,236.4375 56.4375,236.3438 56.7344,236.3438 C57.0313,236.3438 57.3125,236.4844 57.4688,236.75 C57.5625,236.9063 57.5781,237.0313 57.5781,237.4688 L57.5781,238.8906 C57.5781,239.3125 57.5469,239.5 57.4375,239.6563 C57.2656,239.875 57,240.0156 56.7344,240.0156 C56.5156,240.0156 56.2813,239.9063 56.1406,239.7656 C56,239.6406 55.9688,239.5156 55.9063,239.1094 C55.8125,238.7031 55.6406,238.4844 55.1563,238.2031 C54.6875,237.9531 54.0781,237.7969 53.5,237.7969 C51.7656,237.7969 50.5156,239.1094 50.5156,240.8906 L50.5156,241.9844 C50.5156,243.6875 51.8125,244.7813 53.8594,244.7813 C54.625,244.7813 55.3125,244.6563 55.7344,244.3906 C55.9219,244.2969 55.9219,244.2969 56.375,243.8125 C56.5625,243.625 56.7656,243.5469 56.9844,243.5469 C57.4531,243.5469 57.8438,243.9375 57.8438,244.3906 C57.8438,244.7813 57.5156,245.2344 56.9375,245.6406 C56.1875,246.1875 55.0313,246.4844 53.8125,246.4844 C50.9219,246.4844 48.8125,244.5938 48.8125,242.0156 L48.8125,240.8906 C48.8125,238.1719 50.8125,236.0938 53.4375,236.0938 C54.3125,236.0938 54.9063,236.2344 55.8438,236.6719 Z "/><text fill="#000000" font-family="sans-serif" font-size="12" lengthAdjust="spacingAndGlyphs" textLength="137" x="67.5" y="245.1543">ConcreteComponenet</text><line style="stroke: #A80036; stroke-width: 1.5;" x1="39.5" x2="206.5" y1="257" y2="257"/><line style="stroke: #A80036; stroke-width: 1.5;" x1="39.5" x2="206.5" y1="265" y2="265"/><ellipse cx="49.5" cy="276" fill="#84BE84" rx="3" ry="3" style="stroke: #038048; stroke-width: 1.0;"/><text fill="#000000" font-family="sans-serif" font-size="11" lengthAdjust="spacingAndGlyphs" textLength="58" x="58.5" y="279.2104">method1()</text><ellipse cx="49.5" cy="288.8047" fill="#84BE84" rx="3" ry="3" style="stroke: #038048; stroke-width: 1.0;"/><text fill="#000000" font-family="sans-serif" font-size="11" lengthAdjust="spacingAndGlyphs" textLength="58" x="58.5" y="292.0151">method2()</text><!--MD5=[600a9b39bf72f6399f320827933457f6]
class example1.AbstractDecorator--><rect fill="#90EE90" filter="url(#f1lbejxq41daur)" height="92.3516" id="example1.AbstractDecorator" style="stroke: #A80036; stroke-width: 1.5;" width="169" x="242.5" y="216"/><ellipse cx="267.4" cy="234.9688" fill="#A9DCDF" rx="11" ry="11" style="stroke: #A80036; stroke-width: 1.0;"/><path d="M268.9781,236.7813 L264.9313,236.7813 L264.5406,237.7656 L264.9313,237.7656 C265.3844,237.7656 265.525,237.7969 265.6969,237.9219 C265.9156,238.0938 266.0406,238.3438 266.0406,238.625 C266.0406,238.9063 265.9,239.2031 265.6344,239.3438 C265.5094,239.4375 265.2906,239.4688 264.9313,239.4688 L262.6656,239.4688 C261.9156,239.4688 261.5406,239.1875 261.5406,238.625 C261.5406,238.3281 261.6969,238.0469 261.9469,237.8906 C262.1031,237.7813 262.2594,237.7656 262.6813,237.7656 L265.3219,231.25 L264.2438,231.25 C263.8063,231.25 263.6344,231.2188 263.4625,231.1094 C263.2438,230.9375 263.1031,230.6875 263.1031,230.4063 C263.1031,230.125 263.2594,229.8438 263.5094,229.6719 C263.6656,229.5781 263.7906,229.5625 264.2438,229.5625 L267.9156,229.5625 L271.3063,237.7656 C271.775,237.7656 271.9313,237.7969 272.1031,237.9375 C272.3219,238.0938 272.4625,238.3438 272.4625,238.625 C272.4625,238.9063 272.3063,239.2031 272.0563,239.3438 C271.9156,239.4375 271.6969,239.4688 271.3375,239.4688 L268.9781,239.4688 C268.5563,239.4688 268.3531,239.4219 268.2125,239.2969 C267.9938,239.1406 267.8531,238.8906 267.8531,238.625 C267.8531,238.3281 268.0094,238.0469 268.2594,237.8906 C268.4156,237.7813 268.525,237.7656 268.9781,237.7656 L269.3688,237.7656 Z M268.275,235.0781 L266.9469,231.8125 L265.6031,235.0781 Z "/><text fill="#000000" font-family="sans-serif" font-size="12" font-style="italic" lengthAdjust="spacingAndGlyphs" textLength="76" x="303.1" y="232.1387">«decorator»</text><text fill="#000000" font-family="sans-serif" font-size="12" font-style="italic" lengthAdjust="spacingAndGlyphs" textLength="115" x="283.6" y="246.1074">AbstractDecorator</text><line style="stroke: #A80036; stroke-width: 1.5;" x1="243.5" x2="410.5" y1="253.9375" y2="253.9375"/><polygon fill="none" points="253.5,259.9375,257.5,263.9375,253.5,267.9375,249.5,263.9375" style="stroke: #B38D22; stroke-width: 1.0;"/><text fill="#000000" font-family="sans-serif" font-size="11" lengthAdjust="spacingAndGlyphs" textLength="143" x="262.5" y="268.1479">component : IComponent</text><line style="stroke: #A80036; stroke-width: 1.5;" x1="243.5" x2="410.5" y1="274.7422" y2="274.7422"/><ellipse cx="253.5" cy="285.7422" fill="#84BE84" rx="3" ry="3" style="stroke: #038048; stroke-width: 1.0;"/><text fill="#000000" font-family="sans-serif" font-size="11" lengthAdjust="spacingAndGlyphs" textLength="58" x="262.5" y="288.9526">method1()</text><ellipse cx="253.5" cy="298.5469" fill="#84BE84" rx="3" ry="3" style="stroke: #038048; stroke-width: 1.0;"/><text fill="#000000" font-family="sans-serif" font-size="11" lengthAdjust="spacingAndGlyphs" textLength="58" x="262.5" y="301.7573">method2()</text><!--MD5=[5cf17f06bd0e0254963b174bfd129682]
class example1.ConcreteDecorator1--><rect fill="#90EE90" filter="url(#f1lbejxq41daur)" height="79.5469" id="example1.ConcreteDecorator1" style="stroke: #A80036; stroke-width: 1.5;" width="160" x="55" y="377"/><ellipse cx="70" cy="395.9688" fill="#ADD1B2" rx="11" ry="11" style="stroke: #A80036; stroke-width: 1.0;"/><path d="M72.3438,391.6406 L72.5156,391.7188 C72.7344,391.4063 72.9375,391.3125 73.2344,391.3125 C73.5313,391.3125 73.8125,391.4531 73.9688,391.7188 C74.0625,391.875 74.0781,392 74.0781,392.4375 L74.0781,393.8594 C74.0781,394.2813 74.0469,394.4688 73.9375,394.625 C73.7656,394.8438 73.5,394.9844 73.2344,394.9844 C73.0156,394.9844 72.7813,394.875 72.6406,394.7344 C72.5,394.6094 72.4688,394.4844 72.4063,394.0781 C72.3125,393.6719 72.1406,393.4531 71.6563,393.1719 C71.1875,392.9219 70.5781,392.7656 70,392.7656 C68.2656,392.7656 67.0156,394.0781 67.0156,395.8594 L67.0156,396.9531 C67.0156,398.6563 68.3125,399.75 70.3594,399.75 C71.125,399.75 71.8125,399.625 72.2344,399.3594 C72.4219,399.2656 72.4219,399.2656 72.875,398.7813 C73.0625,398.5938 73.2656,398.5156 73.4844,398.5156 C73.9531,398.5156 74.3438,398.9063 74.3438,399.3594 C74.3438,399.75 74.0156,400.2031 73.4375,400.6094 C72.6875,401.1563 71.5313,401.4531 70.3125,401.4531 C67.4219,401.4531 65.3125,399.5625 65.3125,396.9844 L65.3125,395.8594 C65.3125,393.1406 67.3125,391.0625 69.9375,391.0625 C70.8125,391.0625 71.4063,391.2031 72.3438,391.6406 Z "/><text fill="#000000" font-family="sans-serif" font-size="12" font-style="italic" lengthAdjust="spacingAndGlyphs" textLength="76" x="110" y="393.1387">«decorator»</text><text fill="#000000" font-family="sans-serif" font-size="12" lengthAdjust="spacingAndGlyphs" textLength="128" x="84" y="407.1074">ConcreteDecorator1</text><line style="stroke: #A80036; stroke-width: 1.5;" x1="56" x2="214" y1="414.9375" y2="414.9375"/><line style="stroke: #A80036; stroke-width: 1.5;" x1="56" x2="214" y1="422.9375" y2="422.9375"/><ellipse cx="66" cy="433.9375" fill="#84BE84" rx="3" ry="3" style="stroke: #038048; stroke-width: 1.0;"/><text fill="#000000" font-family="sans-serif" font-size="11" lengthAdjust="spacingAndGlyphs" textLength="58" x="75" y="437.1479">method1()</text><ellipse cx="66" cy="446.7422" fill="#84BE84" rx="3" ry="3" style="stroke: #038048; stroke-width: 1.0;"/><text fill="#000000" font-family="sans-serif" font-size="11" lengthAdjust="spacingAndGlyphs" textLength="58" x="75" y="449.9526">method2()</text><!--MD5=[a311e7161d7654fbce0401d49feb251e]
class example1.ConcreteDecorator2--><rect fill="#90EE90" filter="url(#f1lbejxq41daur)" height="79.5469" id="example1.ConcreteDecorator2" style="stroke: #A80036; stroke-width: 1.5;" width="160" x="250" y="377"/><ellipse cx="265" cy="395.9688" fill="#ADD1B2" rx="11" ry="11" style="stroke: #A80036; stroke-width: 1.0;"/><path d="M267.3438,391.6406 L267.5156,391.7188 C267.7344,391.4063 267.9375,391.3125 268.2344,391.3125 C268.5313,391.3125 268.8125,391.4531 268.9688,391.7188 C269.0625,391.875 269.0781,392 269.0781,392.4375 L269.0781,393.8594 C269.0781,394.2813 269.0469,394.4688 268.9375,394.625 C268.7656,394.8438 268.5,394.9844 268.2344,394.9844 C268.0156,394.9844 267.7813,394.875 267.6406,394.7344 C267.5,394.6094 267.4688,394.4844 267.4063,394.0781 C267.3125,393.6719 267.1406,393.4531 266.6563,393.1719 C266.1875,392.9219 265.5781,392.7656 265,392.7656 C263.2656,392.7656 262.0156,394.0781 262.0156,395.8594 L262.0156,396.9531 C262.0156,398.6563 263.3125,399.75 265.3594,399.75 C266.125,399.75 266.8125,399.625 267.2344,399.3594 C267.4219,399.2656 267.4219,399.2656 267.875,398.7813 C268.0625,398.5938 268.2656,398.5156 268.4844,398.5156 C268.9531,398.5156 269.3438,398.9063 269.3438,399.3594 C269.3438,399.75 269.0156,400.2031 268.4375,400.6094 C267.6875,401.1563 266.5313,401.4531 265.3125,401.4531 C262.4219,401.4531 260.3125,399.5625 260.3125,396.9844 L260.3125,395.8594 C260.3125,393.1406 262.3125,391.0625 264.9375,391.0625 C265.8125,391.0625 266.4063,391.2031 267.3438,391.6406 Z "/><text fill="#000000" font-family="sans-serif" font-size="12" font-style="italic" lengthAdjust="spacingAndGlyphs" textLength="76" x="305" y="393.1387">«decorator»</text><text fill="#000000" font-family="sans-serif" font-size="12" lengthAdjust="spacingAndGlyphs" textLength="128" x="279" y="407.1074">ConcreteDecorator2</text><line style="stroke: #A80036; stroke-width: 1.5;" x1="251" x2="409" y1="414.9375" y2="414.9375"/><line style="stroke: #A80036; stroke-width: 1.5;" x1="251" x2="409" y1="422.9375" y2="422.9375"/><ellipse cx="261" cy="433.9375" fill="#84BE84" rx="3" ry="3" style="stroke: #038048; stroke-width: 1.0;"/><text fill="#000000" font-family="sans-serif" font-size="11" lengthAdjust="spacingAndGlyphs" textLength="58" x="270" y="437.1479">method1()</text><ellipse cx="261" cy="446.7422" fill="#84BE84" rx="3" ry="3" style="stroke: #038048; stroke-width: 1.0;"/><text fill="#000000" font-family="sans-serif" font-size="11" lengthAdjust="spacingAndGlyphs" textLength="58" x="270" y="449.9526">method2()</text><!--MD5=[456dc14d6984a1d27dc6eb64d415d016]
class example2.IComponent--><rect fill="#90EE90" filter="url(#f1lbejxq41daur)" height="79.5469" id="example2.IComponent" style="stroke: #A80036; stroke-width: 1.5;" width="113" x="665.5" y="59"/><ellipse cx="680.5" cy="77.9688" fill="#B4A7E5" rx="11" ry="11" style="stroke: #A80036; stroke-width: 1.0;"/><path d="M681.4531,74.75 L681.4531,81.2656 L683.1719,81.2656 C683.625,81.2656 683.7656,81.2969 683.9375,81.4219 C684.1719,81.5938 684.2813,81.8438 684.2813,82.125 C684.2813,82.6875 683.9219,82.9688 683.1719,82.9688 L678.0313,82.9688 C677.625,82.9688 677.4219,82.9219 677.2656,82.7969 C677.0469,82.6406 676.9063,82.375 676.9063,82.125 C676.9063,81.8281 677.0625,81.5469 677.3125,81.3906 C677.4688,81.2813 677.5938,81.2656 678.0313,81.2656 L679.75,81.2656 L679.75,74.75 L678.0313,74.75 C677.6094,74.75 677.4219,74.7188 677.2656,74.6094 C677.0469,74.4375 676.9063,74.1875 676.9063,73.9063 C676.9063,73.625 677.0625,73.3281 677.3125,73.1719 C677.4688,73.0781 677.5938,73.0625 678.0313,73.0625 L683.1719,73.0625 C683.625,73.0625 683.7656,73.0938 683.9375,73.2031 C684.1719,73.375 684.2813,73.6406 684.2813,73.9063 C684.2813,74.2031 684.1406,74.4844 683.875,74.6406 C683.75,74.7188 683.5625,74.75 683.1719,74.75 Z "/><text fill="#000000" font-family="sans-serif" font-size="12" font-style="italic" lengthAdjust="spacingAndGlyphs" textLength="85" x="692.5" y="75.1387">«component»</text><text fill="#000000" font-family="sans-serif" font-size="12" font-style="italic" lengthAdjust="spacingAndGlyphs" textLength="76" x="697" y="89.1074">IComponent</text><line style="stroke: #A80036; stroke-width: 1.5;" x1="666.5" x2="777.5" y1="96.9375" y2="96.9375"/><line style="stroke: #A80036; stroke-width: 1.5;" x1="666.5" x2="777.5" y1="104.9375" y2="104.9375"/><ellipse cx="676.5" cy="115.9375" fill="#84BE84" rx="3" ry="3" style="stroke: #038048; stroke-width: 1.0;"/><text fill="#000000" font-family="sans-serif" font-size="11" lengthAdjust="spacingAndGlyphs" textLength="58" x="685.5" y="119.1479">method1()</text><ellipse cx="676.5" cy="128.7422" fill="#84BE84" rx="3" ry="3" style="stroke: #038048; stroke-width: 1.0;"/><text fill="#000000" font-family="sans-serif" font-size="11" lengthAdjust="spacingAndGlyphs" textLength="58" x="685.5" y="131.9526">method2()</text><!--MD5=[75419202f120e544513abed5be141cf8]
class example2.ConcreteComponent--><rect fill="#FEFECE" filter="url(#f1lbejxq41daur)" height="73.6094" id="example2.ConcreteComponent" style="stroke: #A80036; stroke-width: 1.5;" width="161" x="468.5" y="225"/><ellipse cx="483.5" cy="241" fill="#ADD1B2" rx="11" ry="11" style="stroke: #A80036; stroke-width: 1.0;"/><path d="M485.8438,236.6719 L486.0156,236.75 C486.2344,236.4375 486.4375,236.3438 486.7344,236.3438 C487.0313,236.3438 487.3125,236.4844 487.4688,236.75 C487.5625,236.9063 487.5781,237.0313 487.5781,237.4688 L487.5781,238.8906 C487.5781,239.3125 487.5469,239.5 487.4375,239.6563 C487.2656,239.875 487,240.0156 486.7344,240.0156 C486.5156,240.0156 486.2813,239.9063 486.1406,239.7656 C486,239.6406 485.9688,239.5156 485.9063,239.1094 C485.8125,238.7031 485.6406,238.4844 485.1563,238.2031 C484.6875,237.9531 484.0781,237.7969 483.5,237.7969 C481.7656,237.7969 480.5156,239.1094 480.5156,240.8906 L480.5156,241.9844 C480.5156,243.6875 481.8125,244.7813 483.8594,244.7813 C484.625,244.7813 485.3125,244.6563 485.7344,244.3906 C485.9219,244.2969 485.9219,244.2969 486.375,243.8125 C486.5625,243.625 486.7656,243.5469 486.9844,243.5469 C487.4531,243.5469 487.8438,243.9375 487.8438,244.3906 C487.8438,244.7813 487.5156,245.2344 486.9375,245.6406 C486.1875,246.1875 485.0313,246.4844 483.8125,246.4844 C480.9219,246.4844 478.8125,244.5938 478.8125,242.0156 L478.8125,240.8906 C478.8125,238.1719 480.8125,236.0938 483.4375,236.0938 C484.3125,236.0938 484.9063,236.2344 485.8438,236.6719 Z "/><text fill="#000000" font-family="sans-serif" font-size="12" lengthAdjust="spacingAndGlyphs" textLength="129" x="497.5" y="245.1543">ConcreteComponent</text><line style="stroke: #A80036; stroke-width: 1.5;" x1="469.5" x2="628.5" y1="257" y2="257"/><line style="stroke: #A80036; stroke-width: 1.5;" x1="469.5" x2="628.5" y1="265" y2="265"/><ellipse cx="479.5" cy="276" fill="#84BE84" rx="3" ry="3" style="stroke: #038048; stroke-width: 1.0;"/><text fill="#000000" font-family="sans-serif" font-size="11" lengthAdjust="spacingAndGlyphs" textLength="58" x="488.5" y="279.2104">method1()</text><ellipse cx="479.5" cy="288.8047" fill="#84BE84" rx="3" ry="3" style="stroke: #038048; stroke-width: 1.0;"/><text fill="#000000" font-family="sans-serif" font-size="11" lengthAdjust="spacingAndGlyphs" textLength="58" x="488.5" y="292.0151">method2()</text><!--MD5=[558d921eb3cdff6140be7c0a2a7a3ffe]
class example2.AbstractClass--><rect fill="#FEFECE" filter="url(#f1lbejxq41daur)" height="73.6094" id="example2.AbstractClass" style="stroke: #A80036; stroke-width: 1.5;" width="115" x="664.5" y="225"/><ellipse cx="679.5" cy="241" fill="#A9DCDF" rx="11" ry="11" style="stroke: #A80036; stroke-width: 1.0;"/><path d="M681.0781,242.8125 L677.0313,242.8125 L676.6406,243.7969 L677.0313,243.7969 C677.4844,243.7969 677.625,243.8281 677.7969,243.9531 C678.0156,244.125 678.1406,244.375 678.1406,244.6563 C678.1406,244.9375 678,245.2344 677.7344,245.375 C677.6094,245.4688 677.3906,245.5 677.0313,245.5 L674.7656,245.5 C674.0156,245.5 673.6406,245.2188 673.6406,244.6563 C673.6406,244.3594 673.7969,244.0781 674.0469,243.9219 C674.2031,243.8125 674.3594,243.7969 674.7813,243.7969 L677.4219,237.2813 L676.3438,237.2813 C675.9063,237.2813 675.7344,237.25 675.5625,237.1406 C675.3438,236.9688 675.2031,236.7188 675.2031,236.4375 C675.2031,236.1563 675.3594,235.875 675.6094,235.7031 C675.7656,235.6094 675.8906,235.5938 676.3438,235.5938 L680.0156,235.5938 L683.4063,243.7969 C683.875,243.7969 684.0313,243.8281 684.2031,243.9688 C684.4219,244.125 684.5625,244.375 684.5625,244.6563 C684.5625,244.9375 684.4063,245.2344 684.1563,245.375 C684.0156,245.4688 683.7969,245.5 683.4375,245.5 L681.0781,245.5 C680.6563,245.5 680.4531,245.4531 680.3125,245.3281 C680.0938,245.1719 679.9531,244.9219 679.9531,244.6563 C679.9531,244.3594 680.1094,244.0781 680.3594,243.9219 C680.5156,243.8125 680.625,243.7969 681.0781,243.7969 L681.4688,243.7969 Z M680.375,241.1094 L679.0469,237.8438 L677.7031,241.1094 Z "/><text fill="#000000" font-family="sans-serif" font-size="12" font-style="italic" lengthAdjust="spacingAndGlyphs" textLength="83" x="693.5" y="245.1543">AbstractClass</text><line style="stroke: #A80036; stroke-width: 1.5;" x1="665.5" x2="778.5" y1="257" y2="257"/><line style="stroke: #A80036; stroke-width: 1.5;" x1="665.5" x2="778.5" y1="265" y2="265"/><ellipse cx="675.5" cy="276" fill="#84BE84" rx="3" ry="3" style="stroke: #038048; stroke-width: 1.0;"/><text fill="#000000" font-family="sans-serif" font-size="11" lengthAdjust="spacingAndGlyphs" textLength="58" x="684.5" y="279.2104">method1()</text><ellipse cx="675.5" cy="288.8047" fill="#84BE84" rx="3" ry="3" style="stroke: #038048; stroke-width: 1.0;"/><text fill="#000000" font-family="sans-serif" font-size="11" lengthAdjust="spacingAndGlyphs" textLength="58" x="684.5" y="292.0151">method2()</text><!--MD5=[ef4e4f1bd1b24d070b8068ab2bcda1b4]
class example2.ConcreteAbstractClass--><rect fill="#FEFECE" filter="url(#f1lbejxq41daur)" height="73.6094" id="example2.ConcreteAbstractClass" style="stroke: #A80036; stroke-width: 1.5;" width="175" x="552.5" y="380"/><ellipse cx="567.5" cy="396" fill="#ADD1B2" rx="11" ry="11" style="stroke: #A80036; stroke-width: 1.0;"/><path d="M569.8438,391.6719 L570.0156,391.75 C570.2344,391.4375 570.4375,391.3438 570.7344,391.3438 C571.0313,391.3438 571.3125,391.4844 571.4688,391.75 C571.5625,391.9063 571.5781,392.0313 571.5781,392.4688 L571.5781,393.8906 C571.5781,394.3125 571.5469,394.5 571.4375,394.6563 C571.2656,394.875 571,395.0156 570.7344,395.0156 C570.5156,395.0156 570.2813,394.9063 570.1406,394.7656 C570,394.6406 569.9688,394.5156 569.9063,394.1094 C569.8125,393.7031 569.6406,393.4844 569.1563,393.2031 C568.6875,392.9531 568.0781,392.7969 567.5,392.7969 C565.7656,392.7969 564.5156,394.1094 564.5156,395.8906 L564.5156,396.9844 C564.5156,398.6875 565.8125,399.7813 567.8594,399.7813 C568.625,399.7813 569.3125,399.6563 569.7344,399.3906 C569.9219,399.2969 569.9219,399.2969 570.375,398.8125 C570.5625,398.625 570.7656,398.5469 570.9844,398.5469 C571.4531,398.5469 571.8438,398.9375 571.8438,399.3906 C571.8438,399.7813 571.5156,400.2344 570.9375,400.6406 C570.1875,401.1875 569.0313,401.4844 567.8125,401.4844 C564.9219,401.4844 562.8125,399.5938 562.8125,397.0156 L562.8125,395.8906 C562.8125,393.1719 564.8125,391.0938 567.4375,391.0938 C568.3125,391.0938 568.9063,391.2344 569.8438,391.6719 Z "/><text fill="#000000" font-family="sans-serif" font-size="12" lengthAdjust="spacingAndGlyphs" textLength="143" x="581.5" y="400.1543">ConcreteAbstractClass</text><line style="stroke: #A80036; stroke-width: 1.5;" x1="553.5" x2="726.5" y1="412" y2="412"/><line style="stroke: #A80036; stroke-width: 1.5;" x1="553.5" x2="726.5" y1="420" y2="420"/><ellipse cx="563.5" cy="431" fill="#84BE84" rx="3" ry="3" style="stroke: #038048; stroke-width: 1.0;"/><text fill="#000000" font-family="sans-serif" font-size="11" lengthAdjust="spacingAndGlyphs" textLength="58" x="572.5" y="434.2104">method1()</text><ellipse cx="563.5" cy="443.8047" fill="#84BE84" rx="3" ry="3" style="stroke: #038048; stroke-width: 1.0;"/><text fill="#000000" font-family="sans-serif" font-size="11" lengthAdjust="spacingAndGlyphs" textLength="58" x="572.5" y="447.0151">method2()</text><!--MD5=[b0cc5afe1e3991236a123e6979cdb6ff]
class example2.ConcreteDecorator2--><rect fill="#90EE90" filter="url(#f1lbejxq41daur)" height="92.3516" id="example2.ConcreteDecorator2" style="stroke: #A80036; stroke-width: 1.5;" width="169" x="762.5" y="371"/><ellipse cx="781.55" cy="389.9688" fill="#ADD1B2" rx="11" ry="11" style="stroke: #A80036; stroke-width: 1.0;"/><path d="M783.8938,385.6406 L784.0656,385.7188 C784.2844,385.4063 784.4875,385.3125 784.7844,385.3125 C785.0813,385.3125 785.3625,385.4531 785.5188,385.7188 C785.6125,385.875 785.6281,386 785.6281,386.4375 L785.6281,387.8594 C785.6281,388.2813 785.5969,388.4688 785.4875,388.625 C785.3156,388.8438 785.05,388.9844 784.7844,388.9844 C784.5656,388.9844 784.3313,388.875 784.1906,388.7344 C784.05,388.6094 784.0188,388.4844 783.9563,388.0781 C783.8625,387.6719 783.6906,387.4531 783.2063,387.1719 C782.7375,386.9219 782.1281,386.7656 781.55,386.7656 C779.8156,386.7656 778.5656,388.0781 778.5656,389.8594 L778.5656,390.9531 C778.5656,392.6563 779.8625,393.75 781.9094,393.75 C782.675,393.75 783.3625,393.625 783.7844,393.3594 C783.9719,393.2656 783.9719,393.2656 784.425,392.7813 C784.6125,392.5938 784.8156,392.5156 785.0344,392.5156 C785.5031,392.5156 785.8938,392.9063 785.8938,393.3594 C785.8938,393.75 785.5656,394.2031 784.9875,394.6094 C784.2375,395.1563 783.0813,395.4531 781.8625,395.4531 C778.9719,395.4531 776.8625,393.5625 776.8625,390.9844 L776.8625,389.8594 C776.8625,387.1406 778.8625,385.0625 781.4875,385.0625 C782.3625,385.0625 782.9563,385.2031 783.8938,385.6406 Z "/><text fill="#000000" font-family="sans-serif" font-size="12" font-style="italic" lengthAdjust="spacingAndGlyphs" textLength="76" x="822.45" y="387.1387">«decorator»</text><text fill="#000000" font-family="sans-serif" font-size="12" lengthAdjust="spacingAndGlyphs" textLength="128" x="796.45" y="401.1074">ConcreteDecorator2</text><line style="stroke: #A80036; stroke-width: 1.5;" x1="763.5" x2="930.5" y1="408.9375" y2="408.9375"/><polygon fill="none" points="773.5,414.9375,777.5,418.9375,773.5,422.9375,769.5,418.9375" style="stroke: #B38D22; stroke-width: 1.0;"/><text fill="#000000" font-family="sans-serif" font-size="11" lengthAdjust="spacingAndGlyphs" textLength="143" x="782.5" y="423.1479">component : IComponent</text><line style="stroke: #A80036; stroke-width: 1.5;" x1="763.5" x2="930.5" y1="429.7422" y2="429.7422"/><ellipse cx="773.5" cy="440.7422" fill="#84BE84" rx="3" ry="3" style="stroke: #038048; stroke-width: 1.0;"/><text fill="#000000" font-family="sans-serif" font-size="11" lengthAdjust="spacingAndGlyphs" textLength="58" x="782.5" y="443.9526">method1()</text><ellipse cx="773.5" cy="453.5469" fill="#84BE84" rx="3" ry="3" style="stroke: #038048; stroke-width: 1.0;"/><text fill="#000000" font-family="sans-serif" font-size="11" lengthAdjust="spacingAndGlyphs" textLength="58" x="782.5" y="456.7573">method2()</text><!--MD5=[f7c91a7845681ac870665fb8a60962c5]
class example3.IComponent--><rect fill="#90EE90" filter="url(#f1lbejxq41daur)" height="79.5469" id="example3.IComponent" style="stroke: #A80036; stroke-width: 1.5;" width="113" x="1213.5" y="59"/><ellipse cx="1228.5" cy="77.9688" fill="#B4A7E5" rx="11" ry="11" style="stroke: #A80036; stroke-width: 1.0;"/><path d="M1229.4531,74.75 L1229.4531,81.2656 L1231.1719,81.2656 C1231.625,81.2656 1231.7656,81.2969 1231.9375,81.4219 C1232.1719,81.5938 1232.2813,81.8438 1232.2813,82.125 C1232.2813,82.6875 1231.9219,82.9688 1231.1719,82.9688 L1226.0313,82.9688 C1225.625,82.9688 1225.4219,82.9219 1225.2656,82.7969 C1225.0469,82.6406 1224.9063,82.375 1224.9063,82.125 C1224.9063,81.8281 1225.0625,81.5469 1225.3125,81.3906 C1225.4688,81.2813 1225.5938,81.2656 1226.0313,81.2656 L1227.75,81.2656 L1227.75,74.75 L1226.0313,74.75 C1225.6094,74.75 1225.4219,74.7188 1225.2656,74.6094 C1225.0469,74.4375 1224.9063,74.1875 1224.9063,73.9063 C1224.9063,73.625 1225.0625,73.3281 1225.3125,73.1719 C1225.4688,73.0781 1225.5938,73.0625 1226.0313,73.0625 L1231.1719,73.0625 C1231.625,73.0625 1231.7656,73.0938 1231.9375,73.2031 C1232.1719,73.375 1232.2813,73.6406 1232.2813,73.9063 C1232.2813,74.2031 1232.1406,74.4844 1231.875,74.6406 C1231.75,74.7188 1231.5625,74.75 1231.1719,74.75 Z "/><text fill="#000000" font-family="sans-serif" font-size="12" font-style="italic" lengthAdjust="spacingAndGlyphs" textLength="85" x="1240.5" y="75.1387">«component»</text><text fill="#000000" font-family="sans-serif" font-size="12" font-style="italic" lengthAdjust="spacingAndGlyphs" textLength="76" x="1245" y="89.1074">IComponent</text><line style="stroke: #A80036; stroke-width: 1.5;" x1="1214.5" x2="1325.5" y1="96.9375" y2="96.9375"/><line style="stroke: #A80036; stroke-width: 1.5;" x1="1214.5" x2="1325.5" y1="104.9375" y2="104.9375"/><ellipse cx="1224.5" cy="115.9375" fill="#84BE84" rx="3" ry="3" style="stroke: #038048; stroke-width: 1.0;"/><text fill="#000000" font-family="sans-serif" font-size="11" lengthAdjust="spacingAndGlyphs" textLength="58" x="1233.5" y="119.1479">method1()</text><ellipse cx="1224.5" cy="128.7422" fill="#84BE84" rx="3" ry="3" style="stroke: #038048; stroke-width: 1.0;"/><text fill="#000000" font-family="sans-serif" font-size="11" lengthAdjust="spacingAndGlyphs" textLength="58" x="1233.5" y="131.9526">method2()</text><!--MD5=[497d45930d53c2fbbd0a3764537fb091]
class example3.ConcreteComponent--><rect fill="#FEFECE" filter="url(#f1lbejxq41daur)" height="73.6094" id="example3.ConcreteComponent" style="stroke: #A80036; stroke-width: 1.5;" width="161" x="988.5" y="225"/><ellipse cx="1003.5" cy="241" fill="#ADD1B2" rx="11" ry="11" style="stroke: #A80036; stroke-width: 1.0;"/><path d="M1005.8438,236.6719 L1006.0156,236.75 C1006.2344,236.4375 1006.4375,236.3438 1006.7344,236.3438 C1007.0313,236.3438 1007.3125,236.4844 1007.4688,236.75 C1007.5625,236.9063 1007.5781,237.0313 1007.5781,237.4688 L1007.5781,238.8906 C1007.5781,239.3125 1007.5469,239.5 1007.4375,239.6563 C1007.2656,239.875 1007,240.0156 1006.7344,240.0156 C1006.5156,240.0156 1006.2813,239.9063 1006.1406,239.7656 C1006,239.6406 1005.9688,239.5156 1005.9063,239.1094 C1005.8125,238.7031 1005.6406,238.4844 1005.1563,238.2031 C1004.6875,237.9531 1004.0781,237.7969 1003.5,237.7969 C1001.7656,237.7969 1000.5156,239.1094 1000.5156,240.8906 L1000.5156,241.9844 C1000.5156,243.6875 1001.8125,244.7813 1003.8594,244.7813 C1004.625,244.7813 1005.3125,244.6563 1005.7344,244.3906 C1005.9219,244.2969 1005.9219,244.2969 1006.375,243.8125 C1006.5625,243.625 1006.7656,243.5469 1006.9844,243.5469 C1007.4531,243.5469 1007.8438,243.9375 1007.8438,244.3906 C1007.8438,244.7813 1007.5156,245.2344 1006.9375,245.6406 C1006.1875,246.1875 1005.0313,246.4844 1003.8125,246.4844 C1000.9219,246.4844 998.8125,244.5938 998.8125,242.0156 L998.8125,240.8906 C998.8125,238.1719 1000.8125,236.0938 1003.4375,236.0938 C1004.3125,236.0938 1004.9063,236.2344 1005.8438,236.6719 Z "/><text fill="#000000" font-family="sans-serif" font-size="12" lengthAdjust="spacingAndGlyphs" textLength="129" x="1017.5" y="245.1543">ConcreteComponent</text><line style="stroke: #A80036; stroke-width: 1.5;" x1="989.5" x2="1148.5" y1="257" y2="257"/><line style="stroke: #A80036; stroke-width: 1.5;" x1="989.5" x2="1148.5" y1="265" y2="265"/><ellipse cx="999.5" cy="276" fill="#84BE84" rx="3" ry="3" style="stroke: #038048; stroke-width: 1.0;"/><text fill="#000000" font-family="sans-serif" font-size="11" lengthAdjust="spacingAndGlyphs" textLength="58" x="1008.5" y="279.2104">method1()</text><ellipse cx="999.5" cy="288.8047" fill="#84BE84" rx="3" ry="3" style="stroke: #038048; stroke-width: 1.0;"/><text fill="#000000" font-family="sans-serif" font-size="11" lengthAdjust="spacingAndGlyphs" textLength="58" x="1008.5" y="292.0151">method2()</text><!--MD5=[01f9cb3932406db77cb071b3cf9b02f0]
class example3.IntermediateInterface--><rect fill="#FEFECE" filter="url(#f1lbejxq41daur)" height="73.6094" id="example3.IntermediateInterface" style="stroke: #A80036; stroke-width: 1.5;" width="170" x="1185" y="225"/><ellipse cx="1200" cy="241" fill="#B4A7E5" rx="11" ry="11" style="stroke: #A80036; stroke-width: 1.0;"/><path d="M1200.9531,237.7813 L1200.9531,244.2969 L1202.6719,244.2969 C1203.125,244.2969 1203.2656,244.3281 1203.4375,244.4531 C1203.6719,244.625 1203.7813,244.875 1203.7813,245.1563 C1203.7813,245.7188 1203.4219,246 1202.6719,246 L1197.5313,246 C1197.125,246 1196.9219,245.9531 1196.7656,245.8281 C1196.5469,245.6719 1196.4063,245.4063 1196.4063,245.1563 C1196.4063,244.8594 1196.5625,244.5781 1196.8125,244.4219 C1196.9688,244.3125 1197.0938,244.2969 1197.5313,244.2969 L1199.25,244.2969 L1199.25,237.7813 L1197.5313,237.7813 C1197.1094,237.7813 1196.9219,237.75 1196.7656,237.6406 C1196.5469,237.4688 1196.4063,237.2188 1196.4063,236.9375 C1196.4063,236.6563 1196.5625,236.3594 1196.8125,236.2031 C1196.9688,236.1094 1197.0938,236.0938 1197.5313,236.0938 L1202.6719,236.0938 C1203.125,236.0938 1203.2656,236.125 1203.4375,236.2344 C1203.6719,236.4063 1203.7813,236.6719 1203.7813,236.9375 C1203.7813,237.2344 1203.6406,237.5156 1203.375,237.6719 C1203.25,237.75 1203.0625,237.7813 1202.6719,237.7813 Z "/><text fill="#000000" font-family="sans-serif" font-size="12" font-style="italic" lengthAdjust="spacingAndGlyphs" textLength="138" x="1214" y="245.1543">IntermediateInterface</text><line style="stroke: #A80036; stroke-width: 1.5;" x1="1186" x2="1354" y1="257" y2="257"/><line style="stroke: #A80036; stroke-width: 1.5;" x1="1186" x2="1354" y1="265" y2="265"/><ellipse cx="1196" cy="276" fill="#84BE84" rx="3" ry="3" style="stroke: #038048; stroke-width: 1.0;"/><text fill="#000000" font-family="sans-serif" font-size="11" lengthAdjust="spacingAndGlyphs" textLength="58" x="1205" y="279.2104">method1()</text><ellipse cx="1196" cy="288.8047" fill="#84BE84" rx="3" ry="3" style="stroke: #038048; stroke-width: 1.0;"/><text fill="#000000" font-family="sans-serif" font-size="11" lengthAdjust="spacingAndGlyphs" textLength="58" x="1205" y="292.0151">method2()</text><!--MD5=[744a486e8f4ce48ae0424e91b7ffdc49]
class example3.ConcreteImplementation--><rect fill="#FEFECE" filter="url(#f1lbejxq41daur)" height="73.6094" id="example3.ConcreteImplementation" style="stroke: #A80036; stroke-width: 1.5;" width="186" x="1116" y="380"/><ellipse cx="1131" cy="396" fill="#ADD1B2" rx="11" ry="11" style="stroke: #A80036; stroke-width: 1.0;"/><path d="M1133.3438,391.6719 L1133.5156,391.75 C1133.7344,391.4375 1133.9375,391.3438 1134.2344,391.3438 C1134.5313,391.3438 1134.8125,391.4844 1134.9688,391.75 C1135.0625,391.9063 1135.0781,392.0313 1135.0781,392.4688 L1135.0781,393.8906 C1135.0781,394.3125 1135.0469,394.5 1134.9375,394.6563 C1134.7656,394.875 1134.5,395.0156 1134.2344,395.0156 C1134.0156,395.0156 1133.7813,394.9063 1133.6406,394.7656 C1133.5,394.6406 1133.4688,394.5156 1133.4063,394.1094 C1133.3125,393.7031 1133.1406,393.4844 1132.6563,393.2031 C1132.1875,392.9531 1131.5781,392.7969 1131,392.7969 C1129.2656,392.7969 1128.0156,394.1094 1128.0156,395.8906 L1128.0156,396.9844 C1128.0156,398.6875 1129.3125,399.7813 1131.3594,399.7813 C1132.125,399.7813 1132.8125,399.6563 1133.2344,399.3906 C1133.4219,399.2969 1133.4219,399.2969 1133.875,398.8125 C1134.0625,398.625 1134.2656,398.5469 1134.4844,398.5469 C1134.9531,398.5469 1135.3438,398.9375 1135.3438,399.3906 C1135.3438,399.7813 1135.0156,400.2344 1134.4375,400.6406 C1133.6875,401.1875 1132.5313,401.4844 1131.3125,401.4844 C1128.4219,401.4844 1126.3125,399.5938 1126.3125,397.0156 L1126.3125,395.8906 C1126.3125,393.1719 1128.3125,391.0938 1130.9375,391.0938 C1131.8125,391.0938 1132.4063,391.2344 1133.3438,391.6719 Z "/><text fill="#000000" font-family="sans-serif" font-size="12" lengthAdjust="spacingAndGlyphs" textLength="154" x="1145" y="400.1543">ConcreteImplementation</text><line style="stroke: #A80036; stroke-width: 1.5;" x1="1117" x2="1301" y1="412" y2="412"/><line style="stroke: #A80036; stroke-width: 1.5;" x1="1117" x2="1301" y1="420" y2="420"/><ellipse cx="1127" cy="431" fill="#84BE84" rx="3" ry="3" style="stroke: #038048; stroke-width: 1.0;"/><text fill="#000000" font-family="sans-serif" font-size="11" lengthAdjust="spacingAndGlyphs" textLength="58" x="1136" y="434.2104">method1()</text><ellipse cx="1127" cy="443.8047" fill="#84BE84" rx="3" ry="3" style="stroke: #038048; stroke-width: 1.0;"/><text fill="#000000" font-family="sans-serif" font-size="11" lengthAdjust="spacingAndGlyphs" textLength="58" x="1136" y="447.0151">method2()</text><!--MD5=[b9ec77a4537817eefe36a05ca0d91b6f]
class example3.ConcreteDecorator--><rect fill="#90EE90" filter="url(#f1lbejxq41daur)" height="92.3516" id="example3.ConcreteDecorator" style="stroke: #A80036; stroke-width: 1.5;" width="169" x="1337.5" y="371"/><ellipse cx="1360.15" cy="389.9688" fill="#ADD1B2" rx="11" ry="11" style="stroke: #A80036; stroke-width: 1.0;"/><path d="M1362.4938,385.6406 L1362.6656,385.7188 C1362.8844,385.4063 1363.0875,385.3125 1363.3844,385.3125 C1363.6813,385.3125 1363.9625,385.4531 1364.1188,385.7188 C1364.2125,385.875 1364.2281,386 1364.2281,386.4375 L1364.2281,387.8594 C1364.2281,388.2813 1364.1969,388.4688 1364.0875,388.625 C1363.9156,388.8438 1363.65,388.9844 1363.3844,388.9844 C1363.1656,388.9844 1362.9313,388.875 1362.7906,388.7344 C1362.65,388.6094 1362.6188,388.4844 1362.5563,388.0781 C1362.4625,387.6719 1362.2906,387.4531 1361.8063,387.1719 C1361.3375,386.9219 1360.7281,386.7656 1360.15,386.7656 C1358.4156,386.7656 1357.1656,388.0781 1357.1656,389.8594 L1357.1656,390.9531 C1357.1656,392.6563 1358.4625,393.75 1360.5094,393.75 C1361.275,393.75 1361.9625,393.625 1362.3844,393.3594 C1362.5719,393.2656 1362.5719,393.2656 1363.025,392.7813 C1363.2125,392.5938 1363.4156,392.5156 1363.6344,392.5156 C1364.1031,392.5156 1364.4938,392.9063 1364.4938,393.3594 C1364.4938,393.75 1364.1656,394.2031 1363.5875,394.6094 C1362.8375,395.1563 1361.6813,395.4531 1360.4625,395.4531 C1357.5719,395.4531 1355.4625,393.5625 1355.4625,390.9844 L1355.4625,389.8594 C1355.4625,387.1406 1357.4625,385.0625 1360.0875,385.0625 C1360.9625,385.0625 1361.5563,385.2031 1362.4938,385.6406 Z "/><text fill="#000000" font-family="sans-serif" font-size="12" font-style="italic" lengthAdjust="spacingAndGlyphs" textLength="76" x="1397.85" y="387.1387">«decorator»</text><text fill="#000000" font-family="sans-serif" font-size="12" lengthAdjust="spacingAndGlyphs" textLength="120" x="1375.85" y="401.1074">ConcreteDecorator</text><line style="stroke: #A80036; stroke-width: 1.5;" x1="1338.5" x2="1505.5" y1="408.9375" y2="408.9375"/><polygon fill="none" points="1348.5,414.9375,1352.5,418.9375,1348.5,422.9375,1344.5,418.9375" style="stroke: #B38D22; stroke-width: 1.0;"/><text fill="#000000" font-family="sans-serif" font-size="11" lengthAdjust="spacingAndGlyphs" textLength="143" x="1357.5" y="423.1479">component : IComponent</text><line style="stroke: #A80036; stroke-width: 1.5;" x1="1338.5" x2="1505.5" y1="429.7422" y2="429.7422"/><ellipse cx="1348.5" cy="440.7422" fill="#84BE84" rx="3" ry="3" style="stroke: #038048; stroke-width: 1.0;"/><text fill="#000000" font-family="sans-serif" font-size="11" lengthAdjust="spacingAndGlyphs" textLength="58" x="1357.5" y="443.9526">method1()</text><ellipse cx="1348.5" cy="453.5469" fill="#84BE84" rx="3" ry="3" style="stroke: #038048; stroke-width: 1.0;"/><text fill="#000000" font-family="sans-serif" font-size="11" lengthAdjust="spacingAndGlyphs" textLength="58" x="1357.5" y="456.7573">method2()</text><!--MD5=[204ffc9c4191e628d32f29cb3f621021]
class example4.ConcreteClass--><rect fill="#90EE90" filter="url(#f1lbejxq41daur)" height="79.5469" id="example4.ConcreteClass" style="stroke: #A80036; stroke-width: 1.5;" width="122" x="1581" y="59"/><ellipse cx="1596" cy="77.9688" fill="#ADD1B2" rx="11" ry="11" style="stroke: #A80036; stroke-width: 1.0;"/><path d="M1598.3438,73.6406 L1598.5156,73.7188 C1598.7344,73.4063 1598.9375,73.3125 1599.2344,73.3125 C1599.5313,73.3125 1599.8125,73.4531 1599.9688,73.7188 C1600.0625,73.875 1600.0781,74 1600.0781,74.4375 L1600.0781,75.8594 C1600.0781,76.2813 1600.0469,76.4688 1599.9375,76.625 C1599.7656,76.8438 1599.5,76.9844 1599.2344,76.9844 C1599.0156,76.9844 1598.7813,76.875 1598.6406,76.7344 C1598.5,76.6094 1598.4688,76.4844 1598.4063,76.0781 C1598.3125,75.6719 1598.1406,75.4531 1597.6563,75.1719 C1597.1875,74.9219 1596.5781,74.7656 1596,74.7656 C1594.2656,74.7656 1593.0156,76.0781 1593.0156,77.8594 L1593.0156,78.9531 C1593.0156,80.6563 1594.3125,81.75 1596.3594,81.75 C1597.125,81.75 1597.8125,81.625 1598.2344,81.3594 C1598.4219,81.2656 1598.4219,81.2656 1598.875,80.7813 C1599.0625,80.5938 1599.2656,80.5156 1599.4844,80.5156 C1599.9531,80.5156 1600.3438,80.9063 1600.3438,81.3594 C1600.3438,81.75 1600.0156,82.2031 1599.4375,82.6094 C1598.6875,83.1563 1597.5313,83.4531 1596.3125,83.4531 C1593.4219,83.4531 1591.3125,81.5625 1591.3125,78.9844 L1591.3125,77.8594 C1591.3125,75.1406 1593.3125,73.0625 1595.9375,73.0625 C1596.8125,73.0625 1597.4063,73.2031 1598.3438,73.6406 Z "/><text fill="#000000" font-family="sans-serif" font-size="12" font-style="italic" lengthAdjust="spacingAndGlyphs" textLength="85" x="1612.5" y="75.1387">«component»</text><text fill="#000000" font-family="sans-serif" font-size="12" lengthAdjust="spacingAndGlyphs" textLength="90" x="1610" y="89.1074">ConcreteClass</text><line style="stroke: #A80036; stroke-width: 1.5;" x1="1582" x2="1702" y1="96.9375" y2="96.9375"/><line style="stroke: #A80036; stroke-width: 1.5;" x1="1582" x2="1702" y1="104.9375" y2="104.9375"/><ellipse cx="1592" cy="115.9375" fill="#84BE84" rx="3" ry="3" style="stroke: #038048; stroke-width: 1.0;"/><text fill="#000000" font-family="sans-serif" font-size="11" lengthAdjust="spacingAndGlyphs" textLength="58" x="1601" y="119.1479">method1()</text><ellipse cx="1592" cy="128.7422" fill="#84BE84" rx="3" ry="3" style="stroke: #038048; stroke-width: 1.0;"/><text fill="#000000" font-family="sans-serif" font-size="11" lengthAdjust="spacingAndGlyphs" textLength="58" x="1601" y="131.9526">method2()</text><!--MD5=[54e5415ee0d1b219a71c1b2c770e80da]
class example4.ConcreteDecorator--><rect fill="#90EE90" filter="url(#f1lbejxq41daur)" height="92.3516" id="example4.ConcreteDecorator" style="stroke: #A80036; stroke-width: 1.5;" width="184" x="1563" y="216"/><ellipse cx="1592.4" cy="234.9688" fill="#ADD1B2" rx="11" ry="11" style="stroke: #A80036; stroke-width: 1.0;"/><path d="M1594.7438,230.6406 L1594.9156,230.7188 C1595.1344,230.4063 1595.3375,230.3125 1595.6344,230.3125 C1595.9313,230.3125 1596.2125,230.4531 1596.3688,230.7188 C1596.4625,230.875 1596.4781,231 1596.4781,231.4375 L1596.4781,232.8594 C1596.4781,233.2813 1596.4469,233.4688 1596.3375,233.625 C1596.1656,233.8438 1595.9,233.9844 1595.6344,233.9844 C1595.4156,233.9844 1595.1813,233.875 1595.0406,233.7344 C1594.9,233.6094 1594.8688,233.4844 1594.8063,233.0781 C1594.7125,232.6719 1594.5406,232.4531 1594.0563,232.1719 C1593.5875,231.9219 1592.9781,231.7656 1592.4,231.7656 C1590.6656,231.7656 1589.4156,233.0781 1589.4156,234.8594 L1589.4156,235.9531 C1589.4156,237.6563 1590.7125,238.75 1592.7594,238.75 C1593.525,238.75 1594.2125,238.625 1594.6344,238.3594 C1594.8219,238.2656 1594.8219,238.2656 1595.275,237.7813 C1595.4625,237.5938 1595.6656,237.5156 1595.8844,237.5156 C1596.3531,237.5156 1596.7438,237.9063 1596.7438,238.3594 C1596.7438,238.75 1596.4156,239.2031 1595.8375,239.6094 C1595.0875,240.1563 1593.9313,240.4531 1592.7125,240.4531 C1589.8219,240.4531 1587.7125,238.5625 1587.7125,235.9844 L1587.7125,234.8594 C1587.7125,232.1406 1589.7125,230.0625 1592.3375,230.0625 C1593.2125,230.0625 1593.8063,230.2031 1594.7438,230.6406 Z "/><text fill="#000000" font-family="sans-serif" font-size="12" font-style="italic" lengthAdjust="spacingAndGlyphs" textLength="76" x="1631.6" y="232.1387">«decorator»</text><text fill="#000000" font-family="sans-serif" font-size="12" lengthAdjust="spacingAndGlyphs" textLength="120" x="1609.6" y="246.1074">ConcreteDecorator</text><line style="stroke: #A80036; stroke-width: 1.5;" x1="1564" x2="1746" y1="253.9375" y2="253.9375"/><rect fill="none" height="6" style="stroke: #C82930; stroke-width: 1.0;" width="6" x="1571" y="261.9375"/><text fill="#000000" font-family="sans-serif" font-size="11" lengthAdjust="spacingAndGlyphs" textLength="158" x="1583" y="268.1479">component : ConcreteClass</text><line style="stroke: #A80036; stroke-width: 1.5;" x1="1564" x2="1746" y1="274.7422" y2="274.7422"/><ellipse cx="1574" cy="285.7422" fill="#84BE84" rx="3" ry="3" style="stroke: #038048; stroke-width: 1.0;"/><text fill="#000000" font-family="sans-serif" font-size="11" lengthAdjust="spacingAndGlyphs" textLength="58" x="1583" y="288.9526">method1()</text><ellipse cx="1574" cy="298.5469" fill="#84BE84" rx="3" ry="3" style="stroke: #038048; stroke-width: 1.0;"/><text fill="#000000" font-family="sans-serif" font-size="11" lengthAdjust="spacingAndGlyphs" textLength="58" x="1583" y="301.7573">method2()</text><!--MD5=[d0fde1835d7e5c2c05b357f0c58e82b6]
reverse link example1.IComponent to example1.ConcreteComponenet--><path d="M231.561,153.771 C207.927,177.115 180.867,203.843 159.676,224.774 " fill="none" id="example1.IComponent&lt;-example1.ConcreteComponenet" style="stroke: #A80036; stroke-width: 1.0; stroke-dasharray: 7.0,7.0;"/><polygon fill="none" points="226.977,148.459,246.126,139.385,236.816,158.42,226.977,148.459" style="stroke: #A80036; stroke-width: 1.0;"/><!--MD5=[fa9640abcf5c41c94b7398b0c8b20ee1]
reverse link example1.IComponent to example1.AbstractDecorator--><path d="M286.39,159.08 C287.322,168.186 288.781,177.411 291,186 C293.565,195.929 297.476,206.119 301.79,215.662 " fill="none" id="example1.IComponent&lt;-example1.AbstractDecorator" style="stroke: #A80036; stroke-width: 1.0; stroke-dasharray: 7.0,7.0;"/><polygon fill="none" points="279.399,159.438,285.08,139.025,293.369,158.526,279.399,159.438" style="stroke: #A80036; stroke-width: 1.0;"/><!--MD5=[1ae442380f26b6d3acfaa1327e7a27a0]
link example1.AbstractDecorator to example1.IComponent--><path d="M315.479,215.758 C309.789,193.417 302.95,166.56 297.292,144.342 " fill="none" id="example1.AbstractDecorator-&gt;example1.IComponent" style="stroke: #A80036; stroke-width: 1.0;"/><polygon fill="#A80036" points="296.03,139.385,294.3753,149.0939,297.2642,144.2303,302.1277,147.1192,296.03,139.385" style="stroke: #A80036; stroke-width: 1.0;"/><text fill="#000000" font-family="sans-serif" font-size="13" lengthAdjust="spacingAndGlyphs" textLength="80" x="309" y="182.0669">«decorates»</text><!--MD5=[14db8ff1117ae8c3d2e73e5cddba0b11]
reverse link example1.AbstractDecorator to example1.ConcreteDecorator1--><path d="M254.528,320.751 C230.983,339.514 205.425,359.88 184.009,376.946 " fill="none" id="example1.AbstractDecorator&lt;-example1.ConcreteDecorator1" style="stroke: #A80036; stroke-width: 1.0;"/><polygon fill="none" points="250.428,315.067,270.432,308.078,259.153,326.016,250.428,315.067" style="stroke: #A80036; stroke-width: 1.0;"/><!--MD5=[645a3cf9942360ec1975bca486da67d5]
reverse link example1.AbstractDecorator to example1.ConcreteDecorator2--><path d="M328.277,328.128 C328.603,344.745 328.943,362.095 329.234,376.946 " fill="none" id="example1.AbstractDecorator&lt;-example1.ConcreteDecorator2" style="stroke: #A80036; stroke-width: 1.0;"/><polygon fill="none" points="321.277,328.211,327.884,308.078,335.275,327.936,321.277,328.211" style="stroke: #A80036; stroke-width: 1.0;"/><!--MD5=[bee134d50ac740c289b35d42d9d7e6ae]
reverse link example2.IComponent to example2.ConcreteComponent--><path d="M664.934,153.108 C639.682,176.608 610.63,203.645 587.926,224.774 " fill="none" id="example2.IComponent&lt;-example2.ConcreteComponent" style="stroke: #A80036; stroke-width: 1.0; stroke-dasharray: 7.0,7.0;"/><polygon fill="none" points="660.27,147.886,679.679,139.385,669.807,158.135,660.27,147.886" style="stroke: #A80036; stroke-width: 1.0;"/><!--MD5=[45c738ffedca9c23d38dcd16802a2550]
reverse link example2.IComponent to example2.AbstractClass--><path d="M722,159.474 C722,181.385 722,205.53 722,224.774 " fill="none" id="example2.IComponent&lt;-example2.AbstractClass" style="stroke: #A80036; stroke-width: 1.0; stroke-dasharray: 7.0,7.0;"/><polygon fill="none" points="715,159.385,722,139.385,729,159.385,715,159.385" style="stroke: #A80036; stroke-width: 1.0;"/><!--MD5=[589d3c904694c52a4cef7c6a9b3f0b32]
reverse link example2.AbstractClass to example2.ConcreteAbstractClass--><path d="M693.015,317.082 C681.884,337.85 669.458,361.035 659.435,379.737 " fill="none" id="example2.AbstractClass&lt;-example2.ConcreteAbstractClass" style="stroke: #A80036; stroke-width: 1.0;"/><polygon fill="none" points="686.95,313.58,702.567,299.259,699.289,320.193,686.95,313.58" style="stroke: #A80036; stroke-width: 1.0;"/><!--MD5=[11e277ee94ee2add061fa0640deffca5]
reverse link example2.AbstractClass to example2.ConcreteDecorator2--><path d="M764.418,314.92 C779.283,333.115 795.844,353.385 810.21,370.969 " fill="none" id="example2.AbstractClass&lt;-example2.ConcreteDecorator2" style="stroke: #A80036; stroke-width: 1.0;"/><polygon fill="none" points="758.856,319.176,751.623,299.259,769.698,310.318,758.856,319.176" style="stroke: #A80036; stroke-width: 1.0;"/><!--MD5=[7934e7bdc6706b6e205e42af5f135fa6]
link example2.ConcreteDecorator2 to example2.IComponent--><path d="M840.106,370.935 C832.757,329.474 819.086,266.89 797,216 C785.946,190.529 769.549,164.37 754.904,143.355 " fill="none" id="example2.ConcreteDecorator2-&gt;example2.IComponent" style="stroke: #A80036; stroke-width: 1.0;"/><polygon fill="#A80036" points="752.001,139.223,753.9015,148.8867,754.8752,143.3143,760.4476,144.288,752.001,139.223" style="stroke: #A80036; stroke-width: 1.0;"/><text fill="#000000" font-family="sans-serif" font-size="13" lengthAdjust="spacingAndGlyphs" textLength="80" x="834" y="266.5669">«decorates»</text><!--MD5=[7c0d1d62ea2008089904c0efe4ed2730]
reverse link example3.IComponent to example3.ConcreteComponent--><path d="M1205.13,151.961 C1175.38,175.792 1140.84,203.456 1114,224.956 " fill="none" id="example3.IComponent&lt;-example3.ConcreteComponent" style="stroke: #A80036; stroke-width: 1.0; stroke-dasharray: 7.0,7.0;"/><polygon fill="none" points="1201.1,146.219,1221.09,139.179,1209.85,157.146,1201.1,146.219" style="stroke: #A80036; stroke-width: 1.0;"/><!--MD5=[e3549c5ee028471d2ef34b35ec1ec372]
reverse link example3.IComponent to example3.IntermediateInterface--><path d="M1270,159.474 C1270,181.385 1270,205.53 1270,224.774 " fill="none" id="example3.IComponent&lt;-example3.IntermediateInterface" style="stroke: #A80036; stroke-width: 1.0;"/><polygon fill="none" points="1263,159.385,1270,139.385,1277,159.385,1263,159.385" style="stroke: #A80036; stroke-width: 1.0;"/><!--MD5=[6af884f5108da0ab3b1aa9c739b0bdcd]
reverse link example3.IntermediateInterface to example3.ConcreteImplementation--><path d="M1248.06,318.033 C1239.88,338.555 1230.8,361.32 1223.46,379.737 " fill="none" id="example3.IntermediateInterface&lt;-example3.ConcreteImplementation" style="stroke: #A80036; stroke-width: 1.0; stroke-dasharray: 7.0,7.0;"/><polygon fill="none" points="1241.63,315.244,1255.54,299.259,1254.64,320.429,1241.63,315.244" style="stroke: #A80036; stroke-width: 1.0;"/><!--MD5=[4e0f70a267a76165d2a94802b750e362]
reverse link example3.IntermediateInterface to example3.ConcreteDecorator--><path d="M1320.21,313.539 C1338.63,332.084 1359.35,352.939 1377.26,370.969 " fill="none" id="example3.IntermediateInterface&lt;-example3.ConcreteDecorator" style="stroke: #A80036; stroke-width: 1.0; stroke-dasharray: 7.0,7.0;"/><polygon fill="none" points="1315.15,318.381,1306.02,299.259,1325.08,308.514,1315.15,318.381" style="stroke: #A80036; stroke-width: 1.0;"/><!--MD5=[b77ffa53a6386a48c058178dc00f919b]
link example3.ConcreteDecorator to example3.IComponent--><path d="M1416.95,370.923 C1410.83,328.895 1397.94,265.443 1372,216 C1357.87,189.061 1336.23,163.219 1316.52,142.791 " fill="none" id="example3.ConcreteDecorator-&gt;example3.IComponent" style="stroke: #A80036; stroke-width: 1.0;"/><polygon fill="#A80036" points="1312.86,139.041,1316.2912,148.2728,1316.3553,142.6164,1322.0118,142.6804,1312.86,139.041" style="stroke: #A80036; stroke-width: 1.0;"/><text fill="#000000" font-family="sans-serif" font-size="13" lengthAdjust="spacingAndGlyphs" textLength="80" x="1412" y="266.5669">«decorates»</text><!--MD5=[0d17cd5891b34afb152bf1184f40412f]
reverse link example4.ConcreteClass to example4.ConcreteDecorator--><path d="M1623.27,159.103 C1622.26,168.107 1622.27,177.296 1624,186 C1625.98,195.95 1629.29,206.236 1633.04,215.881 " fill="none" id="example4.ConcreteClass&lt;-example4.ConcreteDecorator" style="stroke: #A80036; stroke-width: 1.0;"/><polygon fill="none" points="1616.41,157.704,1627.01,139.353,1630.17,160.306,1616.41,157.704" style="stroke: #A80036; stroke-width: 1.0;"/><!--MD5=[b312a8ba3fbf20d8450638cc3e1c4837]
link example4.ConcreteDecorator to example4.ConcreteClass--><path d="M1651.35,215.758 C1649.55,193.51 1647.39,166.786 1645.6,144.623 " fill="none" id="example4.ConcreteDecorator-&gt;example4.ConcreteClass" style="stroke: #A80036; stroke-width: 1.0;"/><polygon fill="#A80036" points="1645.18,139.385,1641.9179,148.6779,1645.5827,144.3688,1649.8919,148.0336,1645.18,139.385" style="stroke: #A80036; stroke-width: 1.0;"/><text fill="#000000" font-family="sans-serif" font-size="13" lengthAdjust="spacingAndGlyphs" textLength="80" x="1649" y="182.0669">«decorates»</text><!--MD5=[183a64cc57c830b4e5352e4952f85cb2]
@startuml
interface example1.IComponent <<component>> {
 +method1() 
 +method2() 
}

class example1.ConcreteComponenet implements example1.IComponent {
 +method1() 
 +method2() 
}

abstract class example1.AbstractDecorator <<decorator>> implements example1.IComponent {
 #component : IComponent
 +method1() 
 +method2() 
}

example1.AbstractDecorator - -> example1.IComponent : <<decorates>>

class example1.ConcreteDecorator1 <<decorator>> extends example1.AbstractDecorator {
 +method1() 
 +method2()
}

class example1.ConcreteDecorator2 <<decorator>> extends example1.AbstractDecorator {
 +method1() 
 +method2()
}

interface example2.IComponent <<component>> {
 +method1() 
 +method2() 
}

class example2.ConcreteComponent implements example2.IComponent {
 +method1() 
 +method2() 
}

abstract class example2.AbstractClass implements example2.IComponent {
 +method1() 
 +method2() 
}

class example2.ConcreteAbstractClass extends example2.AbstractClass {
 +method1() 
 +method2()
}

class example2.ConcreteDecorator2 <<decorator>> extends example2.AbstractClass {
 #component : IComponent 
 +method1() 
 +method2()
}

example2.ConcreteDecorator2 - -> example2.IComponent : <<decorates>>








interface example3.IComponent <<component>> {
 +method1() 
 +method2() 
}

class example3.ConcreteComponent implements example3.IComponent {
 +method1() 
 +method2() 
}

interface example3.IntermediateInterface extends example3.IComponent {
 +method1() 
 +method2() 
}

class example3.ConcreteImplementation implements example3.IntermediateInterface {
 +method1() 
 +method2()
}

class example3.ConcreteDecorator <<decorator>> implements example3.IntermediateInterface {
 #component : IComponent 
 +method1() 
 +method2()
}

example3.ConcreteDecorator - -> example3.IComponent : <<decorates>>





class example4.ConcreteClass <<component>> {
 +method1() 
 +method2() 
} 

class example4.ConcreteDecorator <<decorator>> extends example4.ConcreteClass {
 -component : ConcreteClass
 +method1() 
 +method2() 
}

example4.ConcreteDecorator - -> example4.ConcreteClass : <<decorates>>

skinparam class {
	BackgroundColor<<component>> LightGreen
	BackgroundColor<<decorator>> LightGreen
}
@enduml

PlantUML version 1.2020.01beta16(Unknown compile time)
(GPL source distribution)
Java Runtime: Java(TM) SE Runtime Environment
JVM: Java HotSpot(TM) 64-Bit Server VM
Java Version: 1.7.0_25-b15
Operating System: Linux
Default Encoding: UTF-8
Language: en
Country: US
--></g></svg>