<?xml version="1.0" encoding="UTF-8" standalone="no"?><svg xmlns="http://www.w3.org/2000/svg" xmlns:xlink="http://www.w3.org/1999/xlink" contentScriptType="application/ecmascript" contentStyleType="text/css" height="301px" preserveAspectRatio="none" style="width:807px;height:301px;" version="1.1" viewBox="0 0 807 301" width="807px" zoomAndPan="magnify"><defs><filter height="300%" id="f8jgb52w6t6rw" width="300%" x="-1" y="-1"><feGaussianBlur result="blurOut" stdDeviation="2.0"/><feColorMatrix in="blurOut" result="blurOut2" type="matrix" values="0 0 0 0 0 0 0 0 0 0 0 0 0 0 0 0 0 0 .4 0"/><feOffset dx="4.0" dy="4.0" in="blurOut2" result="blurOut3"/><feBlend in="SourceGraphic" in2="blurOut3" mode="normal"/></filter></defs><g><!--MD5=[848b46b174149981b25a38327a39e101]
cluster noviolation--><polygon fill="#FFFFFF" filter="url(#f8jgb52w6t6rw)" points="22,27,114,27,121,49.2969,215,49.2969,215,289,22,289,22,27" style="stroke: #000000; stroke-width: 1.5;"/><line style="stroke: #000000; stroke-width: 1.5;" x1="22" x2="121" y1="49.2969" y2="49.2969"/><text fill="#000000" font-family="sans-serif" font-size="14" font-weight="bold" lengthAdjust="spacingAndGlyphs" textLength="86" x="26" y="41.9951">noviolation</text><!--MD5=[d72b82cff2ed8e3f9aa793fb9380a8ff]
cluster violation--><polygon fill="#FFFFFF" filter="url(#f8jgb52w6t6rw)" points="239,24,311,24,318,46.2969,785,46.2969,785,285.5,239,285.5,239,24" style="stroke: #000000; stroke-width: 1.5;"/><line style="stroke: #000000; stroke-width: 1.5;" x1="239" x2="318" y1="46.2969" y2="46.2969"/><text fill="#000000" font-family="sans-serif" font-size="14" font-weight="bold" lengthAdjust="spacingAndGlyphs" textLength="66" x="243" y="38.9951">violation</text><!--MD5=[ecdbdfca6b2b5c5ad2042a675dd18dbc]
class noviolation.A--><rect fill="#FEFECE" filter="url(#f8jgb52w6t6rw)" height="73.6094" id="noviolation.A" style="stroke: #A80036; stroke-width: 1.5;" width="84" x="115" y="62"/><ellipse cx="149.8" cy="78" fill="#A9DCDF" rx="11" ry="11" style="stroke: #A80036; stroke-width: 1.0;"/><path d="M151.3781,79.8125 L147.3313,79.8125 L146.9406,80.7969 L147.3313,80.7969 C147.7844,80.7969 147.925,80.8281 148.0969,80.9531 C148.3156,81.125 148.4406,81.375 148.4406,81.6563 C148.4406,81.9375 148.3,82.2344 148.0344,82.375 C147.9094,82.4688 147.6906,82.5 147.3313,82.5 L145.0656,82.5 C144.3156,82.5 143.9406,82.2188 143.9406,81.6563 C143.9406,81.3594 144.0969,81.0781 144.3469,80.9219 C144.5031,80.8125 144.6594,80.7969 145.0813,80.7969 L147.7219,74.2813 L146.6438,74.2813 C146.2063,74.2813 146.0344,74.25 145.8625,74.1406 C145.6438,73.9688 145.5031,73.7188 145.5031,73.4375 C145.5031,73.1563 145.6594,72.875 145.9094,72.7031 C146.0656,72.6094 146.1906,72.5938 146.6438,72.5938 L150.3156,72.5938 L153.7063,80.7969 C154.175,80.7969 154.3313,80.8281 154.5031,80.9688 C154.7219,81.125 154.8625,81.375 154.8625,81.6563 C154.8625,81.9375 154.7063,82.2344 154.4563,82.375 C154.3156,82.4688 154.0969,82.5 153.7375,82.5 L151.3781,82.5 C150.9563,82.5 150.7531,82.4531 150.6125,82.3281 C150.3938,82.1719 150.2531,81.9219 150.2531,81.6563 C150.2531,81.3594 150.4094,81.0781 150.6594,80.9219 C150.8156,80.8125 150.925,80.7969 151.3781,80.7969 L151.7688,80.7969 Z M150.675,78.1094 L149.3469,74.8438 L148.0031,78.1094 Z "/><text fill="#000000" font-family="sans-serif" font-size="12" font-style="italic" lengthAdjust="spacingAndGlyphs" textLength="8" x="168.2" y="82.1543">A</text><line style="stroke: #A80036; stroke-width: 1.5;" x1="116" x2="198" y1="94" y2="94"/><line style="stroke: #A80036; stroke-width: 1.5;" x1="116" x2="198" y1="102" y2="102"/><ellipse cx="126" cy="113" fill="#84BE84" rx="3" ry="3" style="stroke: #038048; stroke-width: 1.0;"/><text fill="#000000" font-family="sans-serif" font-size="11" font-style="italic" lengthAdjust="spacingAndGlyphs" textLength="58" x="135" y="116.2104">method1()</text><ellipse cx="126" cy="125.8047" fill="#84BE84" rx="3" ry="3" style="stroke: #038048; stroke-width: 1.0;"/><text fill="#000000" font-family="sans-serif" font-size="11" font-style="italic" lengthAdjust="spacingAndGlyphs" textLength="58" x="135" y="129.0151">method2()</text><!--MD5=[2aa701729dfece5da38e5a6bd72b7562]
class noviolation.B--><rect fill="#FEFECE" filter="url(#f8jgb52w6t6rw)" height="73.6094" id="noviolation.B" style="stroke: #A80036; stroke-width: 1.5;" width="84" x="115" y="199"/><ellipse cx="149.8" cy="215" fill="#ADD1B2" rx="11" ry="11" style="stroke: #A80036; stroke-width: 1.0;"/><path d="M152.1438,210.6719 L152.3156,210.75 C152.5344,210.4375 152.7375,210.3438 153.0344,210.3438 C153.3313,210.3438 153.6125,210.4844 153.7688,210.75 C153.8625,210.9063 153.8781,211.0313 153.8781,211.4688 L153.8781,212.8906 C153.8781,213.3125 153.8469,213.5 153.7375,213.6563 C153.5656,213.875 153.3,214.0156 153.0344,214.0156 C152.8156,214.0156 152.5813,213.9063 152.4406,213.7656 C152.3,213.6406 152.2688,213.5156 152.2063,213.1094 C152.1125,212.7031 151.9406,212.4844 151.4563,212.2031 C150.9875,211.9531 150.3781,211.7969 149.8,211.7969 C148.0656,211.7969 146.8156,213.1094 146.8156,214.8906 L146.8156,215.9844 C146.8156,217.6875 148.1125,218.7813 150.1594,218.7813 C150.925,218.7813 151.6125,218.6563 152.0344,218.3906 C152.2219,218.2969 152.2219,218.2969 152.675,217.8125 C152.8625,217.625 153.0656,217.5469 153.2844,217.5469 C153.7531,217.5469 154.1438,217.9375 154.1438,218.3906 C154.1438,218.7813 153.8156,219.2344 153.2375,219.6406 C152.4875,220.1875 151.3313,220.4844 150.1125,220.4844 C147.2219,220.4844 145.1125,218.5938 145.1125,216.0156 L145.1125,214.8906 C145.1125,212.1719 147.1125,210.0938 149.7375,210.0938 C150.6125,210.0938 151.2063,210.2344 152.1438,210.6719 Z "/><text fill="#000000" font-family="sans-serif" font-size="12" lengthAdjust="spacingAndGlyphs" textLength="8" x="168.2" y="219.1543">B</text><line style="stroke: #A80036; stroke-width: 1.5;" x1="116" x2="198" y1="231" y2="231"/><line style="stroke: #A80036; stroke-width: 1.5;" x1="116" x2="198" y1="239" y2="239"/><ellipse cx="126" cy="250" fill="#84BE84" rx="3" ry="3" style="stroke: #038048; stroke-width: 1.0;"/><text fill="#000000" font-family="sans-serif" font-size="11" lengthAdjust="spacingAndGlyphs" textLength="58" x="135" y="253.2104">method1()</text><ellipse cx="126" cy="262.8047" fill="#84BE84" rx="3" ry="3" style="stroke: #038048; stroke-width: 1.0;"/><text fill="#000000" font-family="sans-serif" font-size="11" lengthAdjust="spacingAndGlyphs" textLength="58" x="135" y="266.0151">method2()</text><!--MD5=[116dc52d216f1551605303efd6892ec6]
class noviolation.C--><rect fill="#FEFECE" filter="url(#f8jgb52w6t6rw)" height="48" id="noviolation.C" style="stroke: #A80036; stroke-width: 1.5;" width="40" x="39" y="75"/><ellipse cx="54" cy="91" fill="#ADD1B2" rx="11" ry="11" style="stroke: #A80036; stroke-width: 1.0;"/><path d="M56.3438,86.6719 L56.5156,86.75 C56.7344,86.4375 56.9375,86.3438 57.2344,86.3438 C57.5313,86.3438 57.8125,86.4844 57.9688,86.75 C58.0625,86.9063 58.0781,87.0313 58.0781,87.4688 L58.0781,88.8906 C58.0781,89.3125 58.0469,89.5 57.9375,89.6563 C57.7656,89.875 57.5,90.0156 57.2344,90.0156 C57.0156,90.0156 56.7813,89.9063 56.6406,89.7656 C56.5,89.6406 56.4688,89.5156 56.4063,89.1094 C56.3125,88.7031 56.1406,88.4844 55.6563,88.2031 C55.1875,87.9531 54.5781,87.7969 54,87.7969 C52.2656,87.7969 51.0156,89.1094 51.0156,90.8906 L51.0156,91.9844 C51.0156,93.6875 52.3125,94.7813 54.3594,94.7813 C55.125,94.7813 55.8125,94.6563 56.2344,94.3906 C56.4219,94.2969 56.4219,94.2969 56.875,93.8125 C57.0625,93.625 57.2656,93.5469 57.4844,93.5469 C57.9531,93.5469 58.3438,93.9375 58.3438,94.3906 C58.3438,94.7813 58.0156,95.2344 57.4375,95.6406 C56.6875,96.1875 55.5313,96.4844 54.3125,96.4844 C51.4219,96.4844 49.3125,94.5938 49.3125,92.0156 L49.3125,90.8906 C49.3125,88.1719 51.3125,86.0938 53.9375,86.0938 C54.8125,86.0938 55.4063,86.2344 56.3438,86.6719 Z "/><text fill="#000000" font-family="sans-serif" font-size="12" lengthAdjust="spacingAndGlyphs" textLength="8" x="68" y="95.1543">C</text><line style="stroke: #A80036; stroke-width: 1.5;" x1="40" x2="78" y1="107" y2="107"/><line style="stroke: #A80036; stroke-width: 1.5;" x1="40" x2="78" y1="115" y2="115"/><!--MD5=[390bc22ffe93344a473717e653851dfb]
class noviolation.D--><rect fill="#FEFECE" filter="url(#f8jgb52w6t6rw)" height="48" id="noviolation.D" style="stroke: #A80036; stroke-width: 1.5;" width="41" x="38.5" y="212"/><ellipse cx="53.5" cy="228" fill="#ADD1B2" rx="11" ry="11" style="stroke: #A80036; stroke-width: 1.0;"/><path d="M55.8438,223.6719 L56.0156,223.75 C56.2344,223.4375 56.4375,223.3438 56.7344,223.3438 C57.0313,223.3438 57.3125,223.4844 57.4688,223.75 C57.5625,223.9063 57.5781,224.0313 57.5781,224.4688 L57.5781,225.8906 C57.5781,226.3125 57.5469,226.5 57.4375,226.6563 C57.2656,226.875 57,227.0156 56.7344,227.0156 C56.5156,227.0156 56.2813,226.9063 56.1406,226.7656 C56,226.6406 55.9688,226.5156 55.9063,226.1094 C55.8125,225.7031 55.6406,225.4844 55.1563,225.2031 C54.6875,224.9531 54.0781,224.7969 53.5,224.7969 C51.7656,224.7969 50.5156,226.1094 50.5156,227.8906 L50.5156,228.9844 C50.5156,230.6875 51.8125,231.7813 53.8594,231.7813 C54.625,231.7813 55.3125,231.6563 55.7344,231.3906 C55.9219,231.2969 55.9219,231.2969 56.375,230.8125 C56.5625,230.625 56.7656,230.5469 56.9844,230.5469 C57.4531,230.5469 57.8438,230.9375 57.8438,231.3906 C57.8438,231.7813 57.5156,232.2344 56.9375,232.6406 C56.1875,233.1875 55.0313,233.4844 53.8125,233.4844 C50.9219,233.4844 48.8125,231.5938 48.8125,229.0156 L48.8125,227.8906 C48.8125,225.1719 50.8125,223.0938 53.4375,223.0938 C54.3125,223.0938 54.9063,223.2344 55.8438,223.6719 Z "/><text fill="#000000" font-family="sans-serif" font-size="12" lengthAdjust="spacingAndGlyphs" textLength="9" x="67.5" y="232.1543">D</text><line style="stroke: #A80036; stroke-width: 1.5;" x1="39.5" x2="78.5" y1="244" y2="244"/><line style="stroke: #A80036; stroke-width: 1.5;" x1="39.5" x2="78.5" y1="252" y2="252"/><!--MD5=[65f0ac0633a1039666ee6c7442b3afdf]
class violation.E--><rect fill="#FFA500" filter="url(#f8jgb52w6t6rw)" height="79.5469" id="violation.E" style="stroke: #A80036; stroke-width: 1.5;" width="148" x="621" y="59"/><ellipse cx="636" cy="77.9688" fill="#A9DCDF" rx="11" ry="11" style="stroke: #A80036; stroke-width: 1.0;"/><path d="M637.5781,79.7813 L633.5313,79.7813 L633.1406,80.7656 L633.5313,80.7656 C633.9844,80.7656 634.125,80.7969 634.2969,80.9219 C634.5156,81.0938 634.6406,81.3438 634.6406,81.625 C634.6406,81.9063 634.5,82.2031 634.2344,82.3438 C634.1094,82.4375 633.8906,82.4688 633.5313,82.4688 L631.2656,82.4688 C630.5156,82.4688 630.1406,82.1875 630.1406,81.625 C630.1406,81.3281 630.2969,81.0469 630.5469,80.8906 C630.7031,80.7813 630.8594,80.7656 631.2813,80.7656 L633.9219,74.25 L632.8438,74.25 C632.4063,74.25 632.2344,74.2188 632.0625,74.1094 C631.8438,73.9375 631.7031,73.6875 631.7031,73.4063 C631.7031,73.125 631.8594,72.8438 632.1094,72.6719 C632.2656,72.5781 632.3906,72.5625 632.8438,72.5625 L636.5156,72.5625 L639.9063,80.7656 C640.375,80.7656 640.5313,80.7969 640.7031,80.9375 C640.9219,81.0938 641.0625,81.3438 641.0625,81.625 C641.0625,81.9063 640.9063,82.2031 640.6563,82.3438 C640.5156,82.4375 640.2969,82.4688 639.9375,82.4688 L637.5781,82.4688 C637.1563,82.4688 636.9531,82.4219 636.8125,82.2969 C636.5938,82.1406 636.4531,81.8906 636.4531,81.625 C636.4531,81.3281 636.6094,81.0469 636.8594,80.8906 C637.0156,80.7813 637.125,80.7656 637.5781,80.7656 L637.9688,80.7656 Z M636.875,78.0781 L635.5469,74.8125 L634.2031,78.0781 Z "/><text fill="#000000" font-family="sans-serif" font-size="12" font-style="italic" lengthAdjust="spacingAndGlyphs" textLength="120" x="648" y="75.1387">«favorcomposition»</text><text fill="#000000" font-family="sans-serif" font-size="12" font-style="italic" lengthAdjust="spacingAndGlyphs" textLength="8" x="704" y="89.1074">E</text><line style="stroke: #A80036; stroke-width: 1.5;" x1="622" x2="768" y1="96.9375" y2="96.9375"/><line style="stroke: #A80036; stroke-width: 1.5;" x1="622" x2="768" y1="104.9375" y2="104.9375"/><ellipse cx="632" cy="115.9375" fill="#84BE84" rx="3" ry="3" style="stroke: #038048; stroke-width: 1.0;"/><text fill="#000000" font-family="sans-serif" font-size="11" font-style="italic" lengthAdjust="spacingAndGlyphs" textLength="58" x="641" y="119.1479">method1()</text><ellipse cx="632" cy="128.7422" fill="#84BE84" rx="3" ry="3" style="stroke: #038048; stroke-width: 1.0;"/><text fill="#000000" font-family="sans-serif" font-size="11" lengthAdjust="spacingAndGlyphs" textLength="58" x="641" y="131.9526">method2()</text><!--MD5=[ee008b753dab5939d47628fbf73daa0d]
class violation.F--><rect fill="#FFA500" filter="url(#f8jgb52w6t6rw)" height="66.7422" id="violation.F" style="stroke: #A80036; stroke-width: 1.5;" width="148" x="621" y="202.5"/><ellipse cx="636" cy="221.4688" fill="#ADD1B2" rx="11" ry="11" style="stroke: #A80036; stroke-width: 1.0;"/><path d="M638.3438,217.1406 L638.5156,217.2188 C638.7344,216.9063 638.9375,216.8125 639.2344,216.8125 C639.5313,216.8125 639.8125,216.9531 639.9688,217.2188 C640.0625,217.375 640.0781,217.5 640.0781,217.9375 L640.0781,219.3594 C640.0781,219.7813 640.0469,219.9688 639.9375,220.125 C639.7656,220.3438 639.5,220.4844 639.2344,220.4844 C639.0156,220.4844 638.7813,220.375 638.6406,220.2344 C638.5,220.1094 638.4688,219.9844 638.4063,219.5781 C638.3125,219.1719 638.1406,218.9531 637.6563,218.6719 C637.1875,218.4219 636.5781,218.2656 636,218.2656 C634.2656,218.2656 633.0156,219.5781 633.0156,221.3594 L633.0156,222.4531 C633.0156,224.1563 634.3125,225.25 636.3594,225.25 C637.125,225.25 637.8125,225.125 638.2344,224.8594 C638.4219,224.7656 638.4219,224.7656 638.875,224.2813 C639.0625,224.0938 639.2656,224.0156 639.4844,224.0156 C639.9531,224.0156 640.3438,224.4063 640.3438,224.8594 C640.3438,225.25 640.0156,225.7031 639.4375,226.1094 C638.6875,226.6563 637.5313,226.9531 636.3125,226.9531 C633.4219,226.9531 631.3125,225.0625 631.3125,222.4844 L631.3125,221.3594 C631.3125,218.6406 633.3125,216.5625 635.9375,216.5625 C636.8125,216.5625 637.4063,216.7031 638.3438,217.1406 Z "/><text fill="#000000" font-family="sans-serif" font-size="12" font-style="italic" lengthAdjust="spacingAndGlyphs" textLength="120" x="648" y="218.6387">«favorcomposition»</text><text fill="#000000" font-family="sans-serif" font-size="12" lengthAdjust="spacingAndGlyphs" textLength="7" x="704.5" y="232.6074">F</text><line style="stroke: #A80036; stroke-width: 1.5;" x1="622" x2="768" y1="240.4375" y2="240.4375"/><line style="stroke: #A80036; stroke-width: 1.5;" x1="622" x2="768" y1="248.4375" y2="248.4375"/><ellipse cx="632" cy="259.4375" fill="#84BE84" rx="3" ry="3" style="stroke: #038048; stroke-width: 1.0;"/><text fill="#000000" font-family="sans-serif" font-size="11" lengthAdjust="spacingAndGlyphs" textLength="58" x="641" y="262.6479">method1()</text><!--MD5=[d7edbfb29dd958511d9aa3b930dd74ff]
class violation.G--><rect fill="#FFA500" filter="url(#f8jgb52w6t6rw)" height="79.5469" id="violation.G" style="stroke: #A80036; stroke-width: 1.5;" width="148" x="438" y="59"/><ellipse cx="453" cy="77.9688" fill="#ADD1B2" rx="11" ry="11" style="stroke: #A80036; stroke-width: 1.0;"/><path d="M455.3438,73.6406 L455.5156,73.7188 C455.7344,73.4063 455.9375,73.3125 456.2344,73.3125 C456.5313,73.3125 456.8125,73.4531 456.9688,73.7188 C457.0625,73.875 457.0781,74 457.0781,74.4375 L457.0781,75.8594 C457.0781,76.2813 457.0469,76.4688 456.9375,76.625 C456.7656,76.8438 456.5,76.9844 456.2344,76.9844 C456.0156,76.9844 455.7813,76.875 455.6406,76.7344 C455.5,76.6094 455.4688,76.4844 455.4063,76.0781 C455.3125,75.6719 455.1406,75.4531 454.6563,75.1719 C454.1875,74.9219 453.5781,74.7656 453,74.7656 C451.2656,74.7656 450.0156,76.0781 450.0156,77.8594 L450.0156,78.9531 C450.0156,80.6563 451.3125,81.75 453.3594,81.75 C454.125,81.75 454.8125,81.625 455.2344,81.3594 C455.4219,81.2656 455.4219,81.2656 455.875,80.7813 C456.0625,80.5938 456.2656,80.5156 456.4844,80.5156 C456.9531,80.5156 457.3438,80.9063 457.3438,81.3594 C457.3438,81.75 457.0156,82.2031 456.4375,82.6094 C455.6875,83.1563 454.5313,83.4531 453.3125,83.4531 C450.4219,83.4531 448.3125,81.5625 448.3125,78.9844 L448.3125,77.8594 C448.3125,75.1406 450.3125,73.0625 452.9375,73.0625 C453.8125,73.0625 454.4063,73.2031 455.3438,73.6406 Z "/><text fill="#000000" font-family="sans-serif" font-size="12" font-style="italic" lengthAdjust="spacingAndGlyphs" textLength="120" x="465" y="75.1387">«favorcomposition»</text><text fill="#000000" font-family="sans-serif" font-size="12" lengthAdjust="spacingAndGlyphs" textLength="9" x="520.5" y="89.1074">G</text><line style="stroke: #A80036; stroke-width: 1.5;" x1="439" x2="585" y1="96.9375" y2="96.9375"/><line style="stroke: #A80036; stroke-width: 1.5;" x1="439" x2="585" y1="104.9375" y2="104.9375"/><ellipse cx="449" cy="115.9375" fill="#84BE84" rx="3" ry="3" style="stroke: #038048; stroke-width: 1.0;"/><text fill="#000000" font-family="sans-serif" font-size="11" lengthAdjust="spacingAndGlyphs" textLength="58" x="458" y="119.1479">method1()</text><ellipse cx="449" cy="128.7422" fill="#84BE84" rx="3" ry="3" style="stroke: #038048; stroke-width: 1.0;"/><text fill="#000000" font-family="sans-serif" font-size="11" lengthAdjust="spacingAndGlyphs" textLength="58" x="458" y="131.9526">method2()</text><!--MD5=[2cfbe42c45417cad8a9db54e386752cc]
class violation.H--><rect fill="#FFA500" filter="url(#f8jgb52w6t6rw)" height="53.9375" id="violation.H" style="stroke: #A80036; stroke-width: 1.5;" width="148" x="438" y="209"/><ellipse cx="453" cy="227.9688" fill="#ADD1B2" rx="11" ry="11" style="stroke: #A80036; stroke-width: 1.0;"/><path d="M455.3438,223.6406 L455.5156,223.7188 C455.7344,223.4063 455.9375,223.3125 456.2344,223.3125 C456.5313,223.3125 456.8125,223.4531 456.9688,223.7188 C457.0625,223.875 457.0781,224 457.0781,224.4375 L457.0781,225.8594 C457.0781,226.2813 457.0469,226.4688 456.9375,226.625 C456.7656,226.8438 456.5,226.9844 456.2344,226.9844 C456.0156,226.9844 455.7813,226.875 455.6406,226.7344 C455.5,226.6094 455.4688,226.4844 455.4063,226.0781 C455.3125,225.6719 455.1406,225.4531 454.6563,225.1719 C454.1875,224.9219 453.5781,224.7656 453,224.7656 C451.2656,224.7656 450.0156,226.0781 450.0156,227.8594 L450.0156,228.9531 C450.0156,230.6563 451.3125,231.75 453.3594,231.75 C454.125,231.75 454.8125,231.625 455.2344,231.3594 C455.4219,231.2656 455.4219,231.2656 455.875,230.7813 C456.0625,230.5938 456.2656,230.5156 456.4844,230.5156 C456.9531,230.5156 457.3438,230.9063 457.3438,231.3594 C457.3438,231.75 457.0156,232.2031 456.4375,232.6094 C455.6875,233.1563 454.5313,233.4531 453.3125,233.4531 C450.4219,233.4531 448.3125,231.5625 448.3125,228.9844 L448.3125,227.8594 C448.3125,225.1406 450.3125,223.0625 452.9375,223.0625 C453.8125,223.0625 454.4063,223.2031 455.3438,223.6406 Z "/><text fill="#000000" font-family="sans-serif" font-size="12" font-style="italic" lengthAdjust="spacingAndGlyphs" textLength="120" x="465" y="225.1387">«favorcomposition»</text><text fill="#000000" font-family="sans-serif" font-size="12" lengthAdjust="spacingAndGlyphs" textLength="9" x="520.5" y="239.1074">H</text><line style="stroke: #A80036; stroke-width: 1.5;" x1="439" x2="585" y1="246.9375" y2="246.9375"/><line style="stroke: #A80036; stroke-width: 1.5;" x1="439" x2="585" y1="254.9375" y2="254.9375"/><!--MD5=[aaa60d39b27422acc1307af7211c31b0]
class violation.I--><rect fill="#FFA500" filter="url(#f8jgb52w6t6rw)" height="79.5469" id="violation.I" style="stroke: #A80036; stroke-width: 1.5;" width="148" x="255" y="59"/><ellipse cx="270" cy="77.9688" fill="#ADD1B2" rx="11" ry="11" style="stroke: #A80036; stroke-width: 1.0;"/><path d="M272.3438,73.6406 L272.5156,73.7188 C272.7344,73.4063 272.9375,73.3125 273.2344,73.3125 C273.5313,73.3125 273.8125,73.4531 273.9688,73.7188 C274.0625,73.875 274.0781,74 274.0781,74.4375 L274.0781,75.8594 C274.0781,76.2813 274.0469,76.4688 273.9375,76.625 C273.7656,76.8438 273.5,76.9844 273.2344,76.9844 C273.0156,76.9844 272.7813,76.875 272.6406,76.7344 C272.5,76.6094 272.4688,76.4844 272.4063,76.0781 C272.3125,75.6719 272.1406,75.4531 271.6563,75.1719 C271.1875,74.9219 270.5781,74.7656 270,74.7656 C268.2656,74.7656 267.0156,76.0781 267.0156,77.8594 L267.0156,78.9531 C267.0156,80.6563 268.3125,81.75 270.3594,81.75 C271.125,81.75 271.8125,81.625 272.2344,81.3594 C272.4219,81.2656 272.4219,81.2656 272.875,80.7813 C273.0625,80.5938 273.2656,80.5156 273.4844,80.5156 C273.9531,80.5156 274.3438,80.9063 274.3438,81.3594 C274.3438,81.75 274.0156,82.2031 273.4375,82.6094 C272.6875,83.1563 271.5313,83.4531 270.3125,83.4531 C267.4219,83.4531 265.3125,81.5625 265.3125,78.9844 L265.3125,77.8594 C265.3125,75.1406 267.3125,73.0625 269.9375,73.0625 C270.8125,73.0625 271.4063,73.2031 272.3438,73.6406 Z "/><text fill="#000000" font-family="sans-serif" font-size="12" font-style="italic" lengthAdjust="spacingAndGlyphs" textLength="120" x="282" y="75.1387">«favorcomposition»</text><text fill="#000000" font-family="sans-serif" font-size="12" lengthAdjust="spacingAndGlyphs" textLength="3" x="340.5" y="89.1074">I</text><line style="stroke: #A80036; stroke-width: 1.5;" x1="256" x2="402" y1="96.9375" y2="96.9375"/><line style="stroke: #A80036; stroke-width: 1.5;" x1="256" x2="402" y1="104.9375" y2="104.9375"/><ellipse cx="266" cy="115.9375" fill="#84BE84" rx="3" ry="3" style="stroke: #038048; stroke-width: 1.0;"/><text fill="#000000" font-family="sans-serif" font-size="11" lengthAdjust="spacingAndGlyphs" textLength="58" x="275" y="119.1479">method1()</text><ellipse cx="266" cy="128.7422" fill="#84BE84" rx="3" ry="3" style="stroke: #038048; stroke-width: 1.0;"/><text fill="#000000" font-family="sans-serif" font-size="11" lengthAdjust="spacingAndGlyphs" textLength="58" x="275" y="131.9526">method2()</text><!--MD5=[b6d0627ce4be6924b9a66fb602fb6b4b]
class violation.J--><rect fill="#FFA500" filter="url(#f8jgb52w6t6rw)" height="66.7422" id="violation.J" style="stroke: #A80036; stroke-width: 1.5;" width="148" x="255" y="202.5"/><ellipse cx="270" cy="221.4688" fill="#ADD1B2" rx="11" ry="11" style="stroke: #A80036; stroke-width: 1.0;"/><path d="M272.3438,217.1406 L272.5156,217.2188 C272.7344,216.9063 272.9375,216.8125 273.2344,216.8125 C273.5313,216.8125 273.8125,216.9531 273.9688,217.2188 C274.0625,217.375 274.0781,217.5 274.0781,217.9375 L274.0781,219.3594 C274.0781,219.7813 274.0469,219.9688 273.9375,220.125 C273.7656,220.3438 273.5,220.4844 273.2344,220.4844 C273.0156,220.4844 272.7813,220.375 272.6406,220.2344 C272.5,220.1094 272.4688,219.9844 272.4063,219.5781 C272.3125,219.1719 272.1406,218.9531 271.6563,218.6719 C271.1875,218.4219 270.5781,218.2656 270,218.2656 C268.2656,218.2656 267.0156,219.5781 267.0156,221.3594 L267.0156,222.4531 C267.0156,224.1563 268.3125,225.25 270.3594,225.25 C271.125,225.25 271.8125,225.125 272.2344,224.8594 C272.4219,224.7656 272.4219,224.7656 272.875,224.2813 C273.0625,224.0938 273.2656,224.0156 273.4844,224.0156 C273.9531,224.0156 274.3438,224.4063 274.3438,224.8594 C274.3438,225.25 274.0156,225.7031 273.4375,226.1094 C272.6875,226.6563 271.5313,226.9531 270.3125,226.9531 C267.4219,226.9531 265.3125,225.0625 265.3125,222.4844 L265.3125,221.3594 C265.3125,218.6406 267.3125,216.5625 269.9375,216.5625 C270.8125,216.5625 271.4063,216.7031 272.3438,217.1406 Z "/><text fill="#000000" font-family="sans-serif" font-size="12" font-style="italic" lengthAdjust="spacingAndGlyphs" textLength="120" x="282" y="218.6387">«favorcomposition»</text><text fill="#000000" font-family="sans-serif" font-size="12" lengthAdjust="spacingAndGlyphs" textLength="3" x="340.5" y="232.6074">J</text><line style="stroke: #A80036; stroke-width: 1.5;" x1="256" x2="402" y1="240.4375" y2="240.4375"/><line style="stroke: #A80036; stroke-width: 1.5;" x1="256" x2="402" y1="248.4375" y2="248.4375"/><ellipse cx="266" cy="259.4375" fill="#84BE84" rx="3" ry="3" style="stroke: #038048; stroke-width: 1.0;"/><text fill="#000000" font-family="sans-serif" font-size="11" lengthAdjust="spacingAndGlyphs" textLength="58" x="275" y="262.6479">method1()</text><!--MD5=[403df4f1b74619048fba206c9b47c81b]
reverse link noviolation.A to noviolation.B--><path d="M157,156.361 C157,170.685 157,185.699 157,198.723 " fill="none" id="noviolation.A&lt;-noviolation.B" style="stroke: #A80036; stroke-width: 1.0;"/><polygon fill="none" points="150,156.178,157,136.178,164,156.177,150,156.178" style="stroke: #A80036; stroke-width: 1.0;"/><!--MD5=[eb4bd729accd2042423049ff6e3878f4]
link noviolation.C to noviolation.D--><path d="M59,123.207 C59,146.292 59,181.753 59,206.5275 " fill="none" id="noviolation.C-&gt;noviolation.D" style="stroke: #A80036; stroke-width: 1.0;"/><polygon fill="#A80036" points="59,211.6437,63,202.6437,59,206.6437,55,202.6437,59,211.6437" style="stroke: #A80036; stroke-width: 1.0;"/><!--MD5=[4d42be094ef43963b8464bc70cbfae72]
reverse link violation.E to violation.F--><path d="M695,159.062 C695,173.943 695,189.381 695,202.42 " fill="none" id="violation.E&lt;-violation.F" style="stroke: #A80036; stroke-width: 1.0;"/><polygon fill="none" points="688,159.048,695,139.048,702,159.048,688,159.048" style="stroke: #A80036; stroke-width: 1.0;"/><!--MD5=[64dc087796b465c000fd4ed14fed0a68]
reverse link violation.G to violation.H--><path d="M512,159.186 C512,176.562 512,194.683 512,208.8506 " fill="none" id="violation.G&lt;-violation.H" style="stroke: #A80036; stroke-width: 1.0;"/><polygon fill="none" points="505,159.048,512,139.048,519,159.048,505,159.048" style="stroke: #A80036; stroke-width: 1.0;"/><!--MD5=[cbf9caa4e40114b5a9b244129eebce7f]
reverse link violation.I to violation.J--><path d="M329,159.062 C329,173.943 329,189.381 329,202.42 " fill="none" id="violation.I&lt;-violation.J" style="stroke: #A80036; stroke-width: 1.0;"/><polygon fill="none" points="322,159.048,329,139.048,336,159.048,322,159.048" style="stroke: #A80036; stroke-width: 1.0;"/><!--MD5=[6945888331596d9dfc40571e2b646e34]
@startuml
abstract class noviolation.A {
 {abstract} +method1()
 {abstract} +method2()  
}

class noviolation.B extends noviolation.A {
 +method1() 
 +method2() 
}

class noviolation.C {

}

class noviolation.D {
 
}

noviolation.C - -> noviolation.D

abstract class violation.E <<favorcomposition>> {
 {abstract} +method1()
 +method2() 
}

class violation.F <<favorcomposition>> extends violation.E {
 +method1() 
}

class violation.G <<favorcomposition>> {
 +method1()
 +method2()  
}

class violation.H <<favorcomposition>> extends violation.G {
}

class violation.I <<favorcomposition>> {
 +method1() 
 +method2() 
}

class violation.J <<favorcomposition>> extends violation.I {
 +method1()
}

skinparam class {
 BackgroundColor<<favorcomposition>> Orange
}
@enduml

PlantUML version 1.2020.01beta16(Unknown compile time)
(GPL source distribution)
Java Runtime: Java(TM) SE Runtime Environment
JVM: Java HotSpot(TM) 64-Bit Server VM
Java Version: 1.7.0_25-b15
Operating System: Linux
Default Encoding: UTF-8
Language: en
Country: US
--></g></svg>