<?xml version="1.0" encoding="UTF-8" standalone="no"?><svg xmlns="http://www.w3.org/2000/svg" xmlns:xlink="http://www.w3.org/1999/xlink" contentScriptType="application/ecmascript" contentStyleType="text/css" height="1786px" preserveAspectRatio="none" style="width:1954px;height:1786px;" version="1.1" viewBox="0 0 1954 1786" width="1954px" zoomAndPan="magnify"><defs><filter height="300%" id="f1rtwu8q6cwym9" width="300%" x="-1" y="-1"><feGaussianBlur result="blurOut" stdDeviation="2.0"/><feColorMatrix in="blurOut" result="blurOut2" type="matrix" values="0 0 0 0 0 0 0 0 0 0 0 0 0 0 0 0 0 0 .4 0"/><feOffset dx="4.0" dy="4.0" in="blurOut2" result="blurOut3"/><feBlend in="SourceGraphic" in2="blurOut3" mode="normal"/></filter></defs><g><rect fill="#FFFFFF" filter="url(#f1rtwu8q6cwym9)" height="1658.3281" style="stroke: #A80036; stroke-width: 1.0;" width="10" x="92" y="69.4297"/><rect fill="#FFFFFF" filter="url(#f1rtwu8q6cwym9)" height="1554.8984" style="stroke: #A80036; stroke-width: 1.0;" width="10" x="97" y="151.8594"/><rect fill="#FFFFFF" filter="url(#f1rtwu8q6cwym9)" height="1191.5078" style="stroke: #A80036; stroke-width: 1.0;" width="10" x="102" y="284.5859"/><rect fill="#FFFFFF" filter="url(#f1rtwu8q6cwym9)" height="1122.2422" style="stroke: #A80036; stroke-width: 1.0;" width="10" x="406" y="318.7188"/><rect fill="#FFFFFF" filter="url(#f1rtwu8q6cwym9)" height="40.1328" style="stroke: #A80036; stroke-width: 1.0;" width="10" x="411" y="355.8516"/><rect fill="#FFFFFF" filter="url(#f1rtwu8q6cwym9)" height="460.5938" style="stroke: #A80036; stroke-width: 1.0;" width="10" x="411" y="440.1172"/><rect fill="#FFFFFF" filter="url(#f1rtwu8q6cwym9)" height="40.1328" style="stroke: #A80036; stroke-width: 1.0;" width="10" x="416" y="482.25"/><rect fill="#FFFFFF" filter="url(#f1rtwu8q6cwym9)" height="98.3984" style="stroke: #A80036; stroke-width: 1.0;" width="10" x="416" y="566.5156"/><rect fill="#FFFFFF" filter="url(#f1rtwu8q6cwym9)" height="40.1328" style="stroke: #A80036; stroke-width: 1.0;" width="10" x="416" y="709.0469"/><rect fill="#FFFFFF" filter="url(#f1rtwu8q6cwym9)" height="40.1328" style="stroke: #A80036; stroke-width: 1.0;" width="10" x="416" y="817.4453"/><rect fill="#FFFFFF" filter="url(#f1rtwu8q6cwym9)" height="40.1328" style="stroke: #A80036; stroke-width: 1.0;" width="10" x="411" y="1021.2734"/><rect fill="#FFFFFF" filter="url(#f1rtwu8q6cwym9)" height="40.1328" style="stroke: #A80036; stroke-width: 1.0;" width="10" x="411" y="1227.2656"/><rect fill="#FFFFFF" filter="url(#f1rtwu8q6cwym9)" height="25" style="stroke: #A80036; stroke-width: 1.0;" width="10" x="411" y="1335.6641"/><rect fill="#FFFFFF" filter="url(#f1rtwu8q6cwym9)" height="29.1328" style="stroke: #A80036; stroke-width: 1.0;" width="10" x="904" y="600.6484"/><rect fill="#FFFFFF" filter="url(#f1rtwu8q6cwym9)" height="14" style="stroke: #A80036; stroke-width: 1.0;" width="10" x="1075" y="946.0078"/><rect fill="#FFFFFF" filter="url(#f1rtwu8q6cwym9)" height="14" style="stroke: #A80036; stroke-width: 1.0;" width="10" x="1213" y="1672.7578"/><rect fill="#FFFFFF" filter="url(#f1rtwu8q6cwym9)" height="131.3984" style="stroke: #A80036; stroke-width: 1.0;" width="10" x="1312.5" y="1512.2266"/><rect fill="#FFFFFF" filter="url(#f1rtwu8q6cwym9)" height="57.1328" style="stroke: #A80036; stroke-width: 1.0;" width="10" x="1554.5" y="1565.4922"/><rect fill="#FFFFFF" filter="url(#f1rtwu8q6cwym9)" height="14" style="stroke: #A80036; stroke-width: 1.0;" width="10" x="1881.5" y="1594.625"/><rect fill="#FFFFFF" filter="url(#f1rtwu8q6cwym9)" height="101.3984" style="stroke: #000000; stroke-width: 2.0;" width="266" x="314.5" y="771.1797"/><rect fill="#FFFFFF" filter="url(#f1rtwu8q6cwym9)" height="101.3984" style="stroke: #000000; stroke-width: 2.0;" width="484.5" x="314.5" y="975.0078"/><rect fill="#FFFFFF" filter="url(#f1rtwu8q6cwym9)" height="201.6641" style="stroke: #000000; stroke-width: 2.0;" width="619.5" x="304.5" y="1181"/><rect fill="#FFFFFF" filter="url(#f1rtwu8q6cwym9)" height="86.2656" style="stroke: #000000; stroke-width: 2.0;" width="599.5" x="314.5" y="1289.3984"/><rect fill="#FFFFFF" filter="url(#f1rtwu8q6cwym9)" height="103.3984" style="stroke: #000000; stroke-width: 2.0;" width="675.5" x="1267.5" y="1527.2266"/><line style="stroke: #A80036; stroke-width: 1.0; stroke-dasharray: 5.0,5.0;" x1="97" x2="97" y1="38.2969" y2="1745.7578"/><line style="stroke: #A80036; stroke-width: 1.0; stroke-dasharray: 5.0,5.0;" x1="410.5" x2="410.5" y1="197.5078" y2="1745.7578"/><line style="stroke: #A80036; stroke-width: 1.0; stroke-dasharray: 5.0,5.0;" x1="908.5" x2="908.5" y1="242.8047" y2="1745.7578"/><line style="stroke: #A80036; stroke-width: 1.0; stroke-dasharray: 5.0,5.0;" x1="1079.5" x2="1079.5" y1="912.2266" y2="1745.7578"/><line style="stroke: #A80036; stroke-width: 1.0; stroke-dasharray: 5.0,5.0;" x1="1217.5" x2="1217.5" y1="110.0781" y2="1745.7578"/><line style="stroke: #A80036; stroke-width: 1.0; stroke-dasharray: 5.0,5.0;" x1="1317.5" x2="1317.5" y1="1422.3125" y2="1745.7578"/><line style="stroke: #A80036; stroke-width: 1.0; stroke-dasharray: 5.0,5.0;" x1="1559" x2="1559" y1="1116.0547" y2="1745.7578"/><line style="stroke: #A80036; stroke-width: 1.0; stroke-dasharray: 5.0,5.0;" x1="1886" x2="1886" y1="1161.3516" y2="1745.7578"/><rect fill="#FEFECE" filter="url(#f1rtwu8q6cwym9)" height="30.2969" style="stroke: #A80036; stroke-width: 1.5;" width="122" x="34" y="3"/><text fill="#000000" font-family="sans-serif" font-size="14" lengthAdjust="spacingAndGlyphs" textLength="108" x="41" y="22.9951">:SequenceMain</text><rect fill="#FEFECE" filter="url(#f1rtwu8q6cwym9)" height="30.2969" style="stroke: #A80036; stroke-width: 1.5;" width="122" x="34" y="1744.7578"/><text fill="#000000" font-family="sans-serif" font-size="14" lengthAdjust="spacingAndGlyphs" textLength="108" x="41" y="1764.7529">:SequenceMain</text><rect fill="#FEFECE" filter="url(#f1rtwu8q6cwym9)" height="30.2969" style="stroke: #A80036; stroke-width: 1.5;" width="169" x="324.5" y="1744.7578"/><text fill="#000000" font-family="sans-serif" font-size="14" lengthAdjust="spacingAndGlyphs" textLength="155" x="331.5" y="1764.7529">:SequenceBaseParser</text><rect fill="#FEFECE" filter="url(#f1rtwu8q6cwym9)" height="30.2969" style="stroke: #A80036; stroke-width: 1.5;" width="161" x="826.5" y="1744.7578"/><text fill="#000000" font-family="sans-serif" font-size="14" lengthAdjust="spacingAndGlyphs" textLength="147" x="833.5" y="1764.7529">:SequenceParseData</text><rect fill="#FEFECE" filter="url(#f1rtwu8q6cwym9)" height="30.2969" style="stroke: #A80036; stroke-width: 1.5;" width="153" x="1001.5" y="1744.7578"/><text fill="#000000" font-family="sans-serif" font-size="14" lengthAdjust="spacingAndGlyphs" textLength="139" x="1008.5" y="1764.7529">:MethodCallElement</text><rect fill="#FEFECE" filter="url(#f1rtwu8q6cwym9)" height="30.2969" style="stroke: #A80036; stroke-width: 1.5;" width="95" x="1168.5" y="1744.7578"/><text fill="#000000" font-family="sans-serif" font-size="14" lengthAdjust="spacingAndGlyphs" textLength="81" x="1175.5" y="1764.7529">:FileHandler</text><rect fill="#FEFECE" filter="url(#f1rtwu8q6cwym9)" height="30.2969" style="stroke: #A80036; stroke-width: 1.5;" width="76" x="1277.5" y="1744.7578"/><text fill="#000000" font-family="sans-serif" font-size="14" lengthAdjust="spacingAndGlyphs" textLength="62" x="1284.5" y="1764.7529">:Diagram</text><rect fill="#FEFECE" filter="url(#f1rtwu8q6cwym9)" height="30.2969" style="stroke: #A80036; stroke-width: 1.5;" width="133" x="1491" y="1744.7578"/><text fill="#000000" font-family="sans-serif" font-size="14" lengthAdjust="spacingAndGlyphs" textLength="119" x="1498" y="1764.7529">:DiagramElement</text><rect fill="#FEFECE" filter="url(#f1rtwu8q6cwym9)" height="30.2969" style="stroke: #A80036; stroke-width: 1.5;" width="89" x="1840" y="1744.7578"/><text fill="#000000" font-family="sans-serif" font-size="14" lengthAdjust="spacingAndGlyphs" textLength="75" x="1847" y="1764.7529">:Generator</text><rect fill="#FFFFFF" filter="url(#f1rtwu8q6cwym9)" height="1658.3281" style="stroke: #A80036; stroke-width: 1.0;" width="10" x="92" y="69.4297"/><rect fill="#FFFFFF" filter="url(#f1rtwu8q6cwym9)" height="1554.8984" style="stroke: #A80036; stroke-width: 1.0;" width="10" x="97" y="151.8594"/><rect fill="#FFFFFF" filter="url(#f1rtwu8q6cwym9)" height="1191.5078" style="stroke: #A80036; stroke-width: 1.0;" width="10" x="102" y="284.5859"/><rect fill="#FFFFFF" filter="url(#f1rtwu8q6cwym9)" height="1122.2422" style="stroke: #A80036; stroke-width: 1.0;" width="10" x="406" y="318.7188"/><rect fill="#FFFFFF" filter="url(#f1rtwu8q6cwym9)" height="40.1328" style="stroke: #A80036; stroke-width: 1.0;" width="10" x="411" y="355.8516"/><rect fill="#FFFFFF" filter="url(#f1rtwu8q6cwym9)" height="460.5938" style="stroke: #A80036; stroke-width: 1.0;" width="10" x="411" y="440.1172"/><rect fill="#FFFFFF" filter="url(#f1rtwu8q6cwym9)" height="40.1328" style="stroke: #A80036; stroke-width: 1.0;" width="10" x="416" y="482.25"/><rect fill="#FFFFFF" filter="url(#f1rtwu8q6cwym9)" height="98.3984" style="stroke: #A80036; stroke-width: 1.0;" width="10" x="416" y="566.5156"/><rect fill="#FFFFFF" filter="url(#f1rtwu8q6cwym9)" height="40.1328" style="stroke: #A80036; stroke-width: 1.0;" width="10" x="416" y="709.0469"/><rect fill="#FFFFFF" filter="url(#f1rtwu8q6cwym9)" height="40.1328" style="stroke: #A80036; stroke-width: 1.0;" width="10" x="416" y="817.4453"/><rect fill="#FFFFFF" filter="url(#f1rtwu8q6cwym9)" height="40.1328" style="stroke: #A80036; stroke-width: 1.0;" width="10" x="411" y="1021.2734"/><rect fill="#FFFFFF" filter="url(#f1rtwu8q6cwym9)" height="40.1328" style="stroke: #A80036; stroke-width: 1.0;" width="10" x="411" y="1227.2656"/><rect fill="#FFFFFF" filter="url(#f1rtwu8q6cwym9)" height="25" style="stroke: #A80036; stroke-width: 1.0;" width="10" x="411" y="1335.6641"/><rect fill="#FFFFFF" filter="url(#f1rtwu8q6cwym9)" height="29.1328" style="stroke: #A80036; stroke-width: 1.0;" width="10" x="904" y="600.6484"/><rect fill="#FFFFFF" filter="url(#f1rtwu8q6cwym9)" height="14" style="stroke: #A80036; stroke-width: 1.0;" width="10" x="1075" y="946.0078"/><rect fill="#FFFFFF" filter="url(#f1rtwu8q6cwym9)" height="14" style="stroke: #A80036; stroke-width: 1.0;" width="10" x="1213" y="1672.7578"/><rect fill="#FFFFFF" filter="url(#f1rtwu8q6cwym9)" height="131.3984" style="stroke: #A80036; stroke-width: 1.0;" width="10" x="1312.5" y="1512.2266"/><rect fill="#FFFFFF" filter="url(#f1rtwu8q6cwym9)" height="57.1328" style="stroke: #A80036; stroke-width: 1.0;" width="10" x="1554.5" y="1565.4922"/><rect fill="#FFFFFF" filter="url(#f1rtwu8q6cwym9)" height="14" style="stroke: #A80036; stroke-width: 1.0;" width="10" x="1881.5" y="1594.625"/><polygon fill="#A80036" points="80,65.4297,90,69.4297,80,73.4297,84,69.4297" style="stroke: #A80036; stroke-width: 1.0;"/><line style="stroke: #A80036; stroke-width: 1.0;" x1="3" x2="86" y1="69.4297" y2="69.4297"/><text fill="#000000" font-family="sans-serif" font-size="13" lengthAdjust="spacingAndGlyphs" textLength="70" x="10" y="64.3638">main(args)</text><polygon fill="#A80036" points="1156.5,94.5625,1166.5,98.5625,1156.5,102.5625,1160.5,98.5625" style="stroke: #A80036; stroke-width: 1.0;"/><line style="stroke: #A80036; stroke-width: 1.0; stroke-dasharray: 2.0,2.0;" x1="102" x2="1162.5" y1="98.5625" y2="98.5625"/><text fill="#000000" font-family="sans-serif" font-size="13" lengthAdjust="spacingAndGlyphs" textLength="51" x="109" y="93.4966">create()</text><rect fill="#FEFECE" filter="url(#f1rtwu8q6cwym9)" height="30.2969" style="stroke: #A80036; stroke-width: 1.5;" width="95" x="1168.5" y="77.4297"/><text fill="#000000" font-family="sans-serif" font-size="14" lengthAdjust="spacingAndGlyphs" textLength="81" x="1175.5" y="97.4248">:FileHandler</text><line style="stroke: #A80036; stroke-width: 1.0;" x1="102" x2="149" y1="138.8594" y2="138.8594"/><line style="stroke: #A80036; stroke-width: 1.0;" x1="149" x2="149" y1="138.8594" y2="151.8594"/><line style="stroke: #A80036; stroke-width: 1.0;" x1="108" x2="149" y1="151.8594" y2="151.8594"/><polygon fill="#A80036" points="118,147.8594,108,151.8594,118,155.8594,114,151.8594" style="stroke: #A80036; stroke-width: 1.0;"/><text fill="#000000" font-family="sans-serif" font-size="13" lengthAdjust="spacingAndGlyphs" textLength="103" x="114" y="133.7935">parseArgs(args)</text><polygon fill="#A80036" points="312.5,181.9922,322.5,185.9922,312.5,189.9922,316.5,185.9922" style="stroke: #A80036; stroke-width: 1.0;"/><line style="stroke: #A80036; stroke-width: 1.0; stroke-dasharray: 2.0,2.0;" x1="107" x2="318.5" y1="185.9922" y2="185.9922"/><text fill="#000000" font-family="sans-serif" font-size="13" lengthAdjust="spacingAndGlyphs" textLength="51" x="114" y="180.9263">create()</text><rect fill="#FEFECE" filter="url(#f1rtwu8q6cwym9)" height="30.2969" style="stroke: #A80036; stroke-width: 1.5;" width="169" x="324.5" y="164.8594"/><text fill="#000000" font-family="sans-serif" font-size="14" lengthAdjust="spacingAndGlyphs" textLength="155" x="331.5" y="184.8545">:SequenceBaseParser</text><polygon fill="#A80036" points="814.5,227.2891,824.5,231.2891,814.5,235.2891,818.5,231.2891" style="stroke: #A80036; stroke-width: 1.0;"/><line style="stroke: #A80036; stroke-width: 1.0; stroke-dasharray: 2.0,2.0;" x1="107" x2="820.5" y1="231.2891" y2="231.2891"/><text fill="#000000" font-family="sans-serif" font-size="13" lengthAdjust="spacingAndGlyphs" textLength="51" x="114" y="226.2231">create()</text><rect fill="#FEFECE" filter="url(#f1rtwu8q6cwym9)" height="30.2969" style="stroke: #A80036; stroke-width: 1.5;" width="161" x="826.5" y="210.1563"/><text fill="#000000" font-family="sans-serif" font-size="14" lengthAdjust="spacingAndGlyphs" textLength="147" x="833.5" y="230.1514">:SequenceParseData</text><line style="stroke: #A80036; stroke-width: 1.0;" x1="107" x2="154" y1="271.5859" y2="271.5859"/><line style="stroke: #A80036; stroke-width: 1.0;" x1="154" x2="154" y1="271.5859" y2="284.5859"/><line style="stroke: #A80036; stroke-width: 1.0;" x1="113" x2="154" y1="284.5859" y2="284.5859"/><polygon fill="#A80036" points="123,280.5859,113,284.5859,123,288.5859,119,284.5859" style="stroke: #A80036; stroke-width: 1.0;"/><text fill="#000000" font-family="sans-serif" font-size="13" lengthAdjust="spacingAndGlyphs" textLength="285" x="119" y="266.52">doParse(sequenceParser, methodSignature)</text><polygon fill="#A80036" points="394,314.7188,404,318.7188,394,322.7188,398,318.7188" style="stroke: #A80036; stroke-width: 1.0;"/><line style="stroke: #A80036; stroke-width: 1.0;" x1="112" x2="400" y1="318.7188" y2="318.7188"/><text fill="#000000" font-family="sans-serif" font-size="13" lengthAdjust="spacingAndGlyphs" textLength="230" x="119" y="313.6528">doParseBehavior(methodSignature)</text><line style="stroke: #A80036; stroke-width: 1.0;" x1="416" x2="463" y1="342.8516" y2="342.8516"/><line style="stroke: #A80036; stroke-width: 1.0;" x1="463" x2="463" y1="342.8516" y2="355.8516"/><line style="stroke: #A80036; stroke-width: 1.0;" x1="422" x2="463" y1="355.8516" y2="355.8516"/><polygon fill="#A80036" points="432,351.8516,422,355.8516,432,359.8516,428,355.8516" style="stroke: #A80036; stroke-width: 1.0;"/><text fill="#000000" font-family="sans-serif" font-size="13" lengthAdjust="spacingAndGlyphs" textLength="359" x="428" y="337.7856">getClassNameFromMethodSignature(methodSignature)</text><line style="stroke: #A80036; stroke-width: 1.0; stroke-dasharray: 2.0,2.0;" x1="421" x2="463" y1="394.9844" y2="394.9844"/><line style="stroke: #A80036; stroke-width: 1.0; stroke-dasharray: 2.0,2.0;" x1="463" x2="463" y1="394.9844" y2="407.9844"/><line style="stroke: #A80036; stroke-width: 1.0; stroke-dasharray: 2.0,2.0;" x1="416" x2="463" y1="407.9844" y2="407.9844"/><polygon fill="#A80036" points="426,403.9844,416,407.9844,426,411.9844,422,407.9844" style="stroke: #A80036; stroke-width: 1.0;"/><text fill="#000000" font-family="sans-serif" font-size="13" lengthAdjust="spacingAndGlyphs" textLength="71" x="428" y="389.9185">className</text><line style="stroke: #A80036; stroke-width: 1.0;" x1="416" x2="463" y1="427.1172" y2="427.1172"/><line style="stroke: #A80036; stroke-width: 1.0;" x1="463" x2="463" y1="427.1172" y2="440.1172"/><line style="stroke: #A80036; stroke-width: 1.0;" x1="422" x2="463" y1="440.1172" y2="440.1172"/><polygon fill="#A80036" points="432,436.1172,422,440.1172,432,444.1172,428,440.1172" style="stroke: #A80036; stroke-width: 1.0;"/><text fill="#000000" font-family="sans-serif" font-size="13" lengthAdjust="spacingAndGlyphs" textLength="428" x="428" y="422.0513">parseMethodCalls(methodSignature, recursiveDepth, caller, callee)</text><line style="stroke: #A80036; stroke-width: 1.0;" x1="421" x2="468" y1="469.25" y2="469.25"/><line style="stroke: #A80036; stroke-width: 1.0;" x1="468" x2="468" y1="469.25" y2="482.25"/><line style="stroke: #A80036; stroke-width: 1.0;" x1="427" x2="468" y1="482.25" y2="482.25"/><polygon fill="#A80036" points="437,478.25,427,482.25,437,486.25,433,482.25" style="stroke: #A80036; stroke-width: 1.0;"/><text fill="#000000" font-family="sans-serif" font-size="13" lengthAdjust="spacingAndGlyphs" textLength="373" x="433" y="464.1841">getMethodNameFromMethodSignature(methodSignature)</text><line style="stroke: #A80036; stroke-width: 1.0; stroke-dasharray: 2.0,2.0;" x1="426" x2="468" y1="521.3828" y2="521.3828"/><line style="stroke: #A80036; stroke-width: 1.0; stroke-dasharray: 2.0,2.0;" x1="468" x2="468" y1="521.3828" y2="534.3828"/><line style="stroke: #A80036; stroke-width: 1.0; stroke-dasharray: 2.0,2.0;" x1="421" x2="468" y1="534.3828" y2="534.3828"/><polygon fill="#A80036" points="431,530.3828,421,534.3828,431,538.3828,427,534.3828" style="stroke: #A80036; stroke-width: 1.0;"/><text fill="#000000" font-family="sans-serif" font-size="13" lengthAdjust="spacingAndGlyphs" textLength="89" x="433" y="516.3169">methodName</text><line style="stroke: #A80036; stroke-width: 1.0;" x1="421" x2="468" y1="553.5156" y2="553.5156"/><line style="stroke: #A80036; stroke-width: 1.0;" x1="468" x2="468" y1="553.5156" y2="566.5156"/><line style="stroke: #A80036; stroke-width: 1.0;" x1="427" x2="468" y1="566.5156" y2="566.5156"/><polygon fill="#A80036" points="437,562.5156,427,566.5156,437,570.5156,433,566.5156" style="stroke: #A80036; stroke-width: 1.0;"/><text fill="#000000" font-family="sans-serif" font-size="13" lengthAdjust="spacingAndGlyphs" textLength="236" x="433" y="548.4497">getClassNodeWithName(className)</text><polygon fill="#A80036" points="892,596.6484,902,600.6484,892,604.6484,896,600.6484" style="stroke: #A80036; stroke-width: 1.0;"/><line style="stroke: #A80036; stroke-width: 1.0;" x1="426" x2="898" y1="600.6484" y2="600.6484"/><text fill="#000000" font-family="sans-serif" font-size="13" lengthAdjust="spacingAndGlyphs" textLength="170" x="433" y="595.5825">getClassNode(className)</text><polygon fill="#A80036" points="437,625.7813,427,629.7813,437,633.7813,433,629.7813" style="stroke: #A80036; stroke-width: 1.0;"/><line style="stroke: #A80036; stroke-width: 1.0; stroke-dasharray: 2.0,2.0;" x1="431" x2="908" y1="629.7813" y2="629.7813"/><text fill="#000000" font-family="sans-serif" font-size="13" lengthAdjust="spacingAndGlyphs" textLength="66" x="443" y="624.7153">classNode</text><line style="stroke: #A80036; stroke-width: 1.0; stroke-dasharray: 2.0,2.0;" x1="426" x2="468" y1="663.9141" y2="663.9141"/><line style="stroke: #A80036; stroke-width: 1.0; stroke-dasharray: 2.0,2.0;" x1="468" x2="468" y1="663.9141" y2="676.9141"/><line style="stroke: #A80036; stroke-width: 1.0; stroke-dasharray: 2.0,2.0;" x1="421" x2="468" y1="676.9141" y2="676.9141"/><polygon fill="#A80036" points="431,672.9141,421,676.9141,431,680.9141,427,676.9141" style="stroke: #A80036; stroke-width: 1.0;"/><text fill="#000000" font-family="sans-serif" font-size="13" lengthAdjust="spacingAndGlyphs" textLength="66" x="433" y="658.8481">classNode</text><line style="stroke: #A80036; stroke-width: 1.0;" x1="421" x2="468" y1="696.0469" y2="696.0469"/><line style="stroke: #A80036; stroke-width: 1.0;" x1="468" x2="468" y1="696.0469" y2="709.0469"/><line style="stroke: #A80036; stroke-width: 1.0;" x1="427" x2="468" y1="709.0469" y2="709.0469"/><polygon fill="#A80036" points="437,705.0469,427,709.0469,437,713.0469,433,709.0469" style="stroke: #A80036; stroke-width: 1.0;"/><text fill="#000000" font-family="sans-serif" font-size="13" lengthAdjust="spacingAndGlyphs" textLength="268" x="433" y="690.981">getMethodNodeWithName(methodName)</text><line style="stroke: #A80036; stroke-width: 1.0; stroke-dasharray: 2.0,2.0;" x1="426" x2="468" y1="748.1797" y2="748.1797"/><line style="stroke: #A80036; stroke-width: 1.0; stroke-dasharray: 2.0,2.0;" x1="468" x2="468" y1="748.1797" y2="761.1797"/><line style="stroke: #A80036; stroke-width: 1.0; stroke-dasharray: 2.0,2.0;" x1="421" x2="468" y1="761.1797" y2="761.1797"/><polygon fill="#A80036" points="431,757.1797,421,761.1797,431,765.1797,427,761.1797" style="stroke: #A80036; stroke-width: 1.0;"/><text fill="#000000" font-family="sans-serif" font-size="13" lengthAdjust="spacingAndGlyphs" textLength="84" x="433" y="743.1138">methodNode</text><path d="M314.5,771.1797 L391.5,771.1797 L391.5,778.1797 L381.5,788.1797 L314.5,788.1797 L314.5,771.1797 " fill="#EEEEEE" style="stroke: #000000; stroke-width: 1.0;"/><rect fill="none" height="101.3984" style="stroke: #000000; stroke-width: 2.0;" width="266" x="314.5" y="771.1797"/><text fill="#000000" font-family="sans-serif" font-size="13" font-weight="bold" lengthAdjust="spacingAndGlyphs" textLength="32" x="329.5" y="784.2466">loop</text><text fill="#000000" font-family="sans-serif" font-size="11" font-weight="bold" lengthAdjust="spacingAndGlyphs" textLength="169" x="406.5" y="783.3901">[AbstractInsnNode : insns]</text><line style="stroke: #A80036; stroke-width: 1.0;" x1="421" x2="468" y1="804.4453" y2="804.4453"/><line style="stroke: #A80036; stroke-width: 1.0;" x1="468" x2="468" y1="804.4453" y2="817.4453"/><line style="stroke: #A80036; stroke-width: 1.0;" x1="427" x2="468" y1="817.4453" y2="817.4453"/><polygon fill="#A80036" points="437,813.4453,427,817.4453,437,821.4453,433,817.4453" style="stroke: #A80036; stroke-width: 1.0;"/><text fill="#000000" font-family="sans-serif" font-size="13" lengthAdjust="spacingAndGlyphs" textLength="117" x="433" y="799.3794">isMethodCall(insn)</text><line style="stroke: #A80036; stroke-width: 1.0; stroke-dasharray: 2.0,2.0;" x1="426" x2="468" y1="856.5781" y2="856.5781"/><line style="stroke: #A80036; stroke-width: 1.0; stroke-dasharray: 2.0,2.0;" x1="468" x2="468" y1="856.5781" y2="869.5781"/><line style="stroke: #A80036; stroke-width: 1.0; stroke-dasharray: 2.0,2.0;" x1="421" x2="468" y1="869.5781" y2="869.5781"/><polygon fill="#A80036" points="431,865.5781,421,869.5781,431,873.5781,427,869.5781" style="stroke: #A80036; stroke-width: 1.0;"/><text fill="#000000" font-family="sans-serif" font-size="13" lengthAdjust="spacingAndGlyphs" textLength="81" x="433" y="851.5122">isMethodCall</text><polygon fill="#A80036" points="989.5,896.7109,999.5,900.7109,989.5,904.7109,993.5,900.7109" style="stroke: #A80036; stroke-width: 1.0;"/><line style="stroke: #A80036; stroke-width: 1.0; stroke-dasharray: 2.0,2.0;" x1="416" x2="995.5" y1="900.7109" y2="900.7109"/><text fill="#000000" font-family="sans-serif" font-size="13" lengthAdjust="spacingAndGlyphs" textLength="51" x="423" y="895.645">create()</text><rect fill="#FEFECE" filter="url(#f1rtwu8q6cwym9)" height="30.2969" style="stroke: #A80036; stroke-width: 1.5;" width="153" x="1001.5" y="879.5781"/><text fill="#000000" font-family="sans-serif" font-size="14" lengthAdjust="spacingAndGlyphs" textLength="139" x="1008.5" y="899.5732">:MethodCallElement</text><polygon fill="#A80036" points="1063,942.0078,1073,946.0078,1063,950.0078,1067,946.0078" style="stroke: #A80036; stroke-width: 1.0;"/><line style="stroke: #A80036; stroke-width: 1.0;" x1="416" x2="1069" y1="946.0078" y2="946.0078"/><text fill="#000000" font-family="sans-serif" font-size="13" lengthAdjust="spacingAndGlyphs" textLength="158" x="423" y="940.9419">setGenerator(generator)</text><polygon fill="#A80036" points="427,956.0078,417,960.0078,427,964.0078,423,960.0078" style="stroke: #A80036; stroke-width: 1.0;"/><line style="stroke: #A80036; stroke-width: 1.0; stroke-dasharray: 2.0,2.0;" x1="421" x2="1079" y1="960.0078" y2="960.0078"/><path d="M314.5,975.0078 L378.5,975.0078 L378.5,982.0078 L368.5,992.0078 L314.5,992.0078 L314.5,975.0078 " fill="#EEEEEE" style="stroke: #000000; stroke-width: 1.0;"/><rect fill="none" height="101.3984" style="stroke: #000000; stroke-width: 2.0;" width="484.5" x="314.5" y="975.0078"/><text fill="#000000" font-family="sans-serif" font-size="13" font-weight="bold" lengthAdjust="spacingAndGlyphs" textLength="19" x="329.5" y="988.0747">alt</text><text fill="#000000" font-family="sans-serif" font-size="11" font-weight="bold" lengthAdjust="spacingAndGlyphs" textLength="154" x="393.5" y="987.2183">[callee.equals("NONE")]</text><line style="stroke: #A80036; stroke-width: 1.0;" x1="416" x2="463" y1="1008.2734" y2="1008.2734"/><line style="stroke: #A80036; stroke-width: 1.0;" x1="463" x2="463" y1="1008.2734" y2="1021.2734"/><line style="stroke: #A80036; stroke-width: 1.0;" x1="422" x2="463" y1="1021.2734" y2="1021.2734"/><polygon fill="#A80036" points="432,1017.2734,422,1021.2734,432,1025.2734,428,1021.2734" style="stroke: #A80036; stroke-width: 1.0;"/><text fill="#000000" font-family="sans-serif" font-size="13" lengthAdjust="spacingAndGlyphs" textLength="359" x="428" y="1003.2075">getClassNameFromMethodSignature(methodSignature)</text><line style="stroke: #A80036; stroke-width: 1.0; stroke-dasharray: 2.0,2.0;" x1="421" x2="463" y1="1060.4063" y2="1060.4063"/><line style="stroke: #A80036; stroke-width: 1.0; stroke-dasharray: 2.0,2.0;" x1="463" x2="463" y1="1060.4063" y2="1073.4063"/><line style="stroke: #A80036; stroke-width: 1.0; stroke-dasharray: 2.0,2.0;" x1="416" x2="463" y1="1073.4063" y2="1073.4063"/><polygon fill="#A80036" points="426,1069.4063,416,1073.4063,426,1077.4063,422,1073.4063" style="stroke: #A80036; stroke-width: 1.0;"/><text fill="#000000" font-family="sans-serif" font-size="13" lengthAdjust="spacingAndGlyphs" textLength="71" x="428" y="1055.3403">className</text><polygon fill="#A80036" points="1479,1100.5391,1489,1104.5391,1479,1108.5391,1483,1104.5391" style="stroke: #A80036; stroke-width: 1.0;"/><line style="stroke: #A80036; stroke-width: 1.0; stroke-dasharray: 2.0,2.0;" x1="416" x2="1485" y1="1104.5391" y2="1104.5391"/><text fill="#000000" font-family="sans-serif" font-size="13" lengthAdjust="spacingAndGlyphs" textLength="51" x="423" y="1099.4731">create()</text><rect fill="#FEFECE" filter="url(#f1rtwu8q6cwym9)" height="30.2969" style="stroke: #A80036; stroke-width: 1.5;" width="133" x="1491" y="1083.4063"/><text fill="#000000" font-family="sans-serif" font-size="14" lengthAdjust="spacingAndGlyphs" textLength="119" x="1498" y="1103.4014">:DiagramElement</text><polygon fill="#A80036" points="1828,1145.8359,1838,1149.8359,1828,1153.8359,1832,1149.8359" style="stroke: #A80036; stroke-width: 1.0;"/><line style="stroke: #A80036; stroke-width: 1.0; stroke-dasharray: 2.0,2.0;" x1="416" x2="1834" y1="1149.8359" y2="1149.8359"/><text fill="#000000" font-family="sans-serif" font-size="13" lengthAdjust="spacingAndGlyphs" textLength="51" x="423" y="1144.77">create()</text><rect fill="#FEFECE" filter="url(#f1rtwu8q6cwym9)" height="30.2969" style="stroke: #A80036; stroke-width: 1.5;" width="89" x="1840" y="1128.7031"/><text fill="#000000" font-family="sans-serif" font-size="14" lengthAdjust="spacingAndGlyphs" textLength="75" x="1847" y="1148.6982">:Generator</text><path d="M304.5,1181 L381.5,1181 L381.5,1188 L371.5,1198 L304.5,1198 L304.5,1181 " fill="#EEEEEE" style="stroke: #000000; stroke-width: 1.0;"/><rect fill="none" height="201.6641" style="stroke: #000000; stroke-width: 2.0;" width="619.5" x="304.5" y="1181"/><text fill="#000000" font-family="sans-serif" font-size="13" font-weight="bold" lengthAdjust="spacingAndGlyphs" textLength="32" x="319.5" y="1194.0669">loop</text><text fill="#000000" font-family="sans-serif" font-size="11" font-weight="bold" lengthAdjust="spacingAndGlyphs" textLength="287" x="396.5" y="1193.2104">[MethodInsnNode : methodInstructionNodes]</text><line style="stroke: #A80036; stroke-width: 1.0;" x1="416" x2="463" y1="1214.2656" y2="1214.2656"/><line style="stroke: #A80036; stroke-width: 1.0;" x1="463" x2="463" y1="1214.2656" y2="1227.2656"/><line style="stroke: #A80036; stroke-width: 1.0;" x1="422" x2="463" y1="1227.2656" y2="1227.2656"/><polygon fill="#A80036" points="432,1223.2656,422,1227.2656,432,1231.2656,428,1227.2656" style="stroke: #A80036; stroke-width: 1.0;"/><text fill="#000000" font-family="sans-serif" font-size="13" lengthAdjust="spacingAndGlyphs" textLength="372" x="428" y="1209.1997">buildMethodSignature(paramTypes, insnNode, nextCallee)</text><line style="stroke: #A80036; stroke-width: 1.0; stroke-dasharray: 2.0,2.0;" x1="421" x2="463" y1="1266.3984" y2="1266.3984"/><line style="stroke: #A80036; stroke-width: 1.0; stroke-dasharray: 2.0,2.0;" x1="463" x2="463" y1="1266.3984" y2="1279.3984"/><line style="stroke: #A80036; stroke-width: 1.0; stroke-dasharray: 2.0,2.0;" x1="416" x2="463" y1="1279.3984" y2="1279.3984"/><polygon fill="#A80036" points="426,1275.3984,416,1279.3984,426,1283.3984,422,1279.3984" style="stroke: #A80036; stroke-width: 1.0;"/><text fill="#000000" font-family="sans-serif" font-size="13" lengthAdjust="spacingAndGlyphs" textLength="112" x="428" y="1261.3325">methodSignature</text><path d="M314.5,1289.3984 L378.5,1289.3984 L378.5,1296.3984 L368.5,1306.3984 L314.5,1306.3984 L314.5,1289.3984 " fill="#EEEEEE" style="stroke: #000000; stroke-width: 1.0;"/><rect fill="none" height="86.2656" style="stroke: #000000; stroke-width: 2.0;" width="599.5" x="314.5" y="1289.3984"/><text fill="#000000" font-family="sans-serif" font-size="13" font-weight="bold" lengthAdjust="spacingAndGlyphs" textLength="19" x="329.5" y="1302.4653">alt</text><text fill="#000000" font-family="sans-serif" font-size="11" font-weight="bold" lengthAdjust="spacingAndGlyphs" textLength="137" x="393.5" y="1301.6089">[recursiveDepth != 0]</text><line style="stroke: #A80036; stroke-width: 1.0;" x1="416" x2="463" y1="1322.6641" y2="1322.6641"/><line style="stroke: #A80036; stroke-width: 1.0;" x1="463" x2="463" y1="1322.6641" y2="1335.6641"/><line style="stroke: #A80036; stroke-width: 1.0;" x1="422" x2="463" y1="1335.6641" y2="1335.6641"/><polygon fill="#A80036" points="432,1331.6641,422,1335.6641,432,1339.6641,428,1335.6641" style="stroke: #A80036; stroke-width: 1.0;"/><text fill="#000000" font-family="sans-serif" font-size="13" lengthAdjust="spacingAndGlyphs" textLength="474" x="428" y="1317.5981">parseMethodCalls(methodSignature, recursiveDepth-1, nextCallee, callee)</text><line style="stroke: #A80036; stroke-width: 1.0; stroke-dasharray: 2.0,2.0;" x1="421" x2="463" y1="1359.6641" y2="1359.6641"/><line style="stroke: #A80036; stroke-width: 1.0; stroke-dasharray: 2.0,2.0;" x1="463" x2="463" y1="1359.6641" y2="1372.6641"/><line style="stroke: #A80036; stroke-width: 1.0; stroke-dasharray: 2.0,2.0;" x1="416" x2="463" y1="1372.6641" y2="1372.6641"/><polygon fill="#A80036" points="426,1368.6641,416,1372.6641,426,1376.6641,422,1372.6641" style="stroke: #A80036; stroke-width: 1.0;"/><polygon fill="#A80036" points="1265.5,1406.7969,1275.5,1410.7969,1265.5,1414.7969,1269.5,1410.7969" style="stroke: #A80036; stroke-width: 1.0;"/><line style="stroke: #A80036; stroke-width: 1.0; stroke-dasharray: 2.0,2.0;" x1="416" x2="1271.5" y1="1410.7969" y2="1410.7969"/><text fill="#000000" font-family="sans-serif" font-size="13" lengthAdjust="spacingAndGlyphs" textLength="51" x="423" y="1405.731">create()</text><rect fill="#FEFECE" filter="url(#f1rtwu8q6cwym9)" height="30.2969" style="stroke: #A80036; stroke-width: 1.5;" width="76" x="1277.5" y="1389.6641"/><text fill="#000000" font-family="sans-serif" font-size="14" lengthAdjust="spacingAndGlyphs" textLength="62" x="1284.5" y="1409.6592">:Diagram</text><polygon fill="#A80036" points="123,1436.9609,113,1440.9609,123,1444.9609,119,1440.9609" style="stroke: #A80036; stroke-width: 1.0;"/><line style="stroke: #A80036; stroke-width: 1.0; stroke-dasharray: 2.0,2.0;" x1="117" x2="410" y1="1440.9609" y2="1440.9609"/><line style="stroke: #A80036; stroke-width: 1.0; stroke-dasharray: 2.0,2.0;" x1="112" x2="154" y1="1475.0938" y2="1475.0938"/><line style="stroke: #A80036; stroke-width: 1.0; stroke-dasharray: 2.0,2.0;" x1="154" x2="154" y1="1475.0938" y2="1488.0938"/><line style="stroke: #A80036; stroke-width: 1.0; stroke-dasharray: 2.0,2.0;" x1="107" x2="154" y1="1488.0938" y2="1488.0938"/><polygon fill="#A80036" points="117,1484.0938,107,1488.0938,117,1492.0938,113,1488.0938" style="stroke: #A80036; stroke-width: 1.0;"/><text fill="#000000" font-family="sans-serif" font-size="13" lengthAdjust="spacingAndGlyphs" textLength="53" x="119" y="1470.0278">diagram</text><polygon fill="#A80036" points="1300.5,1508.2266,1310.5,1512.2266,1300.5,1516.2266,1304.5,1512.2266" style="stroke: #A80036; stroke-width: 1.0;"/><line style="stroke: #A80036; stroke-width: 1.0;" x1="107" x2="1306.5" y1="1512.2266" y2="1512.2266"/><text fill="#000000" font-family="sans-serif" font-size="13" lengthAdjust="spacingAndGlyphs" textLength="68" x="114" y="1507.1606">generate()</text><path d="M1267.5,1527.2266 L1344.5,1527.2266 L1344.5,1534.2266 L1334.5,1544.2266 L1267.5,1544.2266 L1267.5,1527.2266 " fill="#EEEEEE" style="stroke: #000000; stroke-width: 1.0;"/><rect fill="none" height="103.3984" style="stroke: #000000; stroke-width: 2.0;" width="675.5" x="1267.5" y="1527.2266"/><text fill="#000000" font-family="sans-serif" font-size="13" font-weight="bold" lengthAdjust="spacingAndGlyphs" textLength="32" x="1282.5" y="1540.2935">loop</text><text fill="#000000" font-family="sans-serif" font-size="11" font-weight="bold" lengthAdjust="spacingAndGlyphs" textLength="186" x="1359.5" y="1539.437">[DiagramElement : elements]</text><polygon fill="#A80036" points="1542.5,1561.4922,1552.5,1565.4922,1542.5,1569.4922,1546.5,1565.4922" style="stroke: #A80036; stroke-width: 1.0;"/><line style="stroke: #A80036; stroke-width: 1.0;" x1="1322.5" x2="1548.5" y1="1565.4922" y2="1565.4922"/><text fill="#000000" font-family="sans-serif" font-size="13" lengthAdjust="spacingAndGlyphs" textLength="213" x="1329.5" y="1560.4263">generate(StringBuilder, Diagram)</text><polygon fill="#A80036" points="1869.5,1590.625,1879.5,1594.625,1869.5,1598.625,1873.5,1594.625" style="stroke: #A80036; stroke-width: 1.0;"/><line style="stroke: #A80036; stroke-width: 1.0;" x1="1564.5" x2="1875.5" y1="1594.625" y2="1594.625"/><text fill="#000000" font-family="sans-serif" font-size="13" lengthAdjust="spacingAndGlyphs" textLength="298" x="1571.5" y="1589.5591">generate(Appearance, StringBuilder, Diagram)</text><polygon fill="#A80036" points="1575.5,1604.625,1565.5,1608.625,1575.5,1612.625,1571.5,1608.625" style="stroke: #A80036; stroke-width: 1.0;"/><line style="stroke: #A80036; stroke-width: 1.0; stroke-dasharray: 2.0,2.0;" x1="1569.5" x2="1885.5" y1="1608.625" y2="1608.625"/><polygon fill="#A80036" points="1333.5,1618.625,1323.5,1622.625,1333.5,1626.625,1329.5,1622.625" style="stroke: #A80036; stroke-width: 1.0;"/><line style="stroke: #A80036; stroke-width: 1.0; stroke-dasharray: 2.0,2.0;" x1="1327.5" x2="1558.5" y1="1622.625" y2="1622.625"/><polygon fill="#A80036" points="118,1639.625,108,1643.625,118,1647.625,114,1643.625" style="stroke: #A80036; stroke-width: 1.0;"/><line style="stroke: #A80036; stroke-width: 1.0; stroke-dasharray: 2.0,2.0;" x1="112" x2="1316.5" y1="1643.625" y2="1643.625"/><polygon fill="#A80036" points="1201,1668.7578,1211,1672.7578,1201,1676.7578,1205,1672.7578" style="stroke: #A80036; stroke-width: 1.0;"/><line style="stroke: #A80036; stroke-width: 1.0;" x1="107" x2="1207" y1="1672.7578" y2="1672.7578"/><text fill="#000000" font-family="sans-serif" font-size="13" lengthAdjust="spacingAndGlyphs" textLength="213" x="114" y="1667.6919">writeToFile(filepath, StringBuilder)</text><polygon fill="#A80036" points="118,1682.7578,108,1686.7578,118,1690.7578,114,1686.7578" style="stroke: #A80036; stroke-width: 1.0;"/><line style="stroke: #A80036; stroke-width: 1.0; stroke-dasharray: 2.0,2.0;" x1="112" x2="1217" y1="1686.7578" y2="1686.7578"/><line style="stroke: #A80036; stroke-width: 1.0; stroke-dasharray: 2.0,2.0;" x1="107" x2="149" y1="1705.7578" y2="1705.7578"/><line style="stroke: #A80036; stroke-width: 1.0; stroke-dasharray: 2.0,2.0;" x1="149" x2="149" y1="1705.7578" y2="1718.7578"/><line style="stroke: #A80036; stroke-width: 1.0; stroke-dasharray: 2.0,2.0;" x1="102" x2="149" y1="1718.7578" y2="1718.7578"/><polygon fill="#A80036" points="112,1714.7578,102,1718.7578,112,1722.7578,108,1718.7578" style="stroke: #A80036; stroke-width: 1.0;"/><polygon fill="#A80036" points="14,1723.7578,4,1727.7578,14,1731.7578,10,1727.7578" style="stroke: #A80036; stroke-width: 1.0;"/><line style="stroke: #A80036; stroke-width: 1.0; stroke-dasharray: 2.0,2.0;" x1="8" x2="96" y1="1727.7578" y2="1727.7578"/><!--MD5=[4c0ced184910dfb8b200fc7d779c1a45]
@startuml
autoactivate on

participant ":SequenceMain" as main
participant ":SequenceBaseParser" as parser
participant ":SequenceParseData" as data
participant ":MethodCallElement" as call
participant ":FileHandler" as handler
participant ":Diagram" as diagram
participant ":DiagramElement" as element
participant ":Generator" as generator

[-> main : main(args)

main - -> handler ** : create()

main -> main : parseArgs(args)

main - -> parser ** : create()
main - -> data ** : create()

main -> main : doParse(sequenceParser, methodSignature)

main -> parser : doParseBehavior(methodSignature)

parser -> parser : getClassNameFromMethodSignature(methodSignature)
return className

parser -> parser : parseMethodCalls(methodSignature, recursiveDepth, caller, callee)

parser -> parser : getMethodNameFromMethodSignature(methodSignature)
return methodName

parser -> parser : getClassNodeWithName(className)
parser -> data : getClassNode(className)
return classNode
return classNode

parser -> parser : getMethodNodeWithName(methodName)
return methodNode

loop AbstractInsnNode : insns
parser -> parser : isMethodCall(insn)
return isMethodCall
end

create call
parser - -> call : create()
parser -> call : setGenerator(generator)
return


alt callee.equals("NONE")
parser -> parser : getClassNameFromMethodSignature(methodSignature)
return className
end

parser - -> element ** : create()
parser - -> generator ** : create()

loop MethodInsnNode : methodInstructionNodes
parser -> parser : buildMethodSignature(paramTypes, insnNode, nextCallee)
return methodSignature

alt recursiveDepth != 0
parser -> parser : parseMethodCalls(methodSignature, recursiveDepth-1, nextCallee, callee)
return
end

end


parser - -> diagram ** : create()
return

return diagram

main -> diagram : generate()

loop DiagramElement : elements
diagram -> element : generate(StringBuilder, Diagram)
element -> generator : generate(Appearance, StringBuilder, Diagram)
return
return
end

return

main -> handler : writeToFile(filepath, StringBuilder)
return

return
return
@enduml

PlantUML version 1.2020.01beta5(Unknown compile time)
(GPL source distribution)
Java Runtime: Java(TM) SE Runtime Environment
JVM: Java HotSpot(TM) 64-Bit Server VM
Java Version: 1.7.0_25-b15
Operating System: Linux
Default Encoding: UTF-8
Language: en
Country: US
--></g></svg>