<?xml version="1.0" encoding="UTF-8" standalone="no"?><svg xmlns="http://www.w3.org/2000/svg" xmlns:xlink="http://www.w3.org/1999/xlink" contentScriptType="application/ecmascript" contentStyleType="text/css" height="1851px" preserveAspectRatio="none" style="width:1779px;height:1851px;" version="1.1" viewBox="0 0 1779 1851" width="1779px" zoomAndPan="magnify"><defs><filter height="300%" id="f1rtwu8q6cwym9" width="300%" x="-1" y="-1"><feGaussianBlur result="blurOut" stdDeviation="2.0"/><feColorMatrix in="blurOut" result="blurOut2" type="matrix" values="0 0 0 0 0 0 0 0 0 0 0 0 0 0 0 0 0 0 .4 0"/><feOffset dx="4.0" dy="4.0" in="blurOut2" result="blurOut3"/><feBlend in="SourceGraphic" in2="blurOut3" mode="normal"/></filter></defs><g><rect fill="#FFFFFF" filter="url(#f1rtwu8q6cwym9)" height="1728.5156" style="stroke: #A80036; stroke-width: 1.0;" width="10" x="83" y="71.9609"/><rect fill="#FFFFFF" filter="url(#f1rtwu8q6cwym9)" height="1600.5547" style="stroke: #A80036; stroke-width: 1.0;" width="10" x="88" y="156.9219"/><rect fill="#FFFFFF" filter="url(#f1rtwu8q6cwym9)" height="1227.2266" style="stroke: #A80036; stroke-width: 1.0;" width="10" x="93" y="293.4922"/><rect fill="#FFFFFF" filter="url(#f1rtwu8q6cwym9)" height="1155.5234" style="stroke: #A80036; stroke-width: 1.0;" width="10" x="368" y="328.8438"/><rect fill="#FFFFFF" filter="url(#f1rtwu8q6cwym9)" height="41.3516" style="stroke: #A80036; stroke-width: 1.0;" width="10" x="373" y="367.1953"/><rect fill="#FFFFFF" filter="url(#f1rtwu8q6cwym9)" height="475.2188" style="stroke: #A80036; stroke-width: 1.0;" width="10" x="373" y="453.8984"/><rect fill="#FFFFFF" filter="url(#f1rtwu8q6cwym9)" height="41.3516" style="stroke: #A80036; stroke-width: 1.0;" width="10" x="378" y="497.25"/><rect fill="#FFFFFF" filter="url(#f1rtwu8q6cwym9)" height="102.0547" style="stroke: #A80036; stroke-width: 1.0;" width="10" x="378" y="583.9531"/><rect fill="#FFFFFF" filter="url(#f1rtwu8q6cwym9)" height="41.3516" style="stroke: #A80036; stroke-width: 1.0;" width="10" x="378" y="731.3594"/><rect fill="#FFFFFF" filter="url(#f1rtwu8q6cwym9)" height="41.3516" style="stroke: #A80036; stroke-width: 1.0;" width="10" x="378" y="843.4141"/><rect fill="#FFFFFF" filter="url(#f1rtwu8q6cwym9)" height="41.3516" style="stroke: #A80036; stroke-width: 1.0;" width="10" x="373" y="1053.4297"/><rect fill="#FFFFFF" filter="url(#f1rtwu8q6cwym9)" height="41.3516" style="stroke: #A80036; stroke-width: 1.0;" width="10" x="373" y="1265.7031"/><rect fill="#FFFFFF" filter="url(#f1rtwu8q6cwym9)" height="25" style="stroke: #A80036; stroke-width: 1.0;" width="10" x="373" y="1377.7578"/><rect fill="#FFFFFF" filter="url(#f1rtwu8q6cwym9)" height="30.3516" style="stroke: #A80036; stroke-width: 1.0;" width="10" x="817" y="619.3047"/><rect fill="#FFFFFF" filter="url(#f1rtwu8q6cwym9)" height="14" style="stroke: #A80036; stroke-width: 1.0;" width="10" x="975.5" y="975.7266"/><rect fill="#FFFFFF" filter="url(#f1rtwu8q6cwym9)" height="14" style="stroke: #A80036; stroke-width: 1.0;" width="10" x="1104.5" y="1723.4766"/><rect fill="#FFFFFF" filter="url(#f1rtwu8q6cwym9)" height="135.0547" style="stroke: #A80036; stroke-width: 1.0;" width="10" x="1199" y="1558.0703"/><rect fill="#FFFFFF" filter="url(#f1rtwu8q6cwym9)" height="58.3516" style="stroke: #A80036; stroke-width: 1.0;" width="10" x="1416" y="1613.7734"/><rect fill="#FFFFFF" filter="url(#f1rtwu8q6cwym9)" height="14" style="stroke: #A80036; stroke-width: 1.0;" width="10" x="1710" y="1644.125"/><rect fill="#FEFECE" filter="url(#f1rtwu8q6cwym9)" height="31.6094" style="stroke: #A80036; stroke-width: 1.5;" width="90" x="1062.5" y="79.9609"/><text fill="#000000" font-family="sans-serif" font-size="14" lengthAdjust="spacingAndGlyphs" textLength="76" x="1069.5" y="101.4941">:FileHandler</text><rect fill="#FEFECE" filter="url(#f1rtwu8q6cwym9)" height="31.6094" style="stroke: #A80036; stroke-width: 1.5;" width="156" x="293" y="169.9219"/><text fill="#000000" font-family="sans-serif" font-size="14" lengthAdjust="spacingAndGlyphs" textLength="142" x="300" y="191.4551">:SequenceBaseParser</text><rect fill="#FEFECE" filter="url(#f1rtwu8q6cwym9)" height="31.6094" style="stroke: #A80036; stroke-width: 1.5;" width="149" x="745.5" y="216.5313"/><text fill="#000000" font-family="sans-serif" font-size="14" lengthAdjust="spacingAndGlyphs" textLength="135" x="752.5" y="238.0645">:SequenceParseData</text><rect fill="#FFFFFF" filter="url(#f1rtwu8q6cwym9)" height="105.0547" style="stroke: #000000; stroke-width: 2.0;" width="240" x="283" y="794.7109"/><rect fill="#FEFECE" filter="url(#f1rtwu8q6cwym9)" height="31.6094" style="stroke: #A80036; stroke-width: 1.5;" width="140" x="908.5" y="906.7656"/><text fill="#000000" font-family="sans-serif" font-size="14" lengthAdjust="spacingAndGlyphs" textLength="126" x="915.5" y="928.2988">:MethodCallElement</text><rect fill="#FFFFFF" filter="url(#f1rtwu8q6cwym9)" height="105.0547" style="stroke: #000000; stroke-width: 2.0;" width="438" x="283" y="1004.7266"/><rect fill="#FEFECE" filter="url(#f1rtwu8q6cwym9)" height="31.6094" style="stroke: #A80036; stroke-width: 1.5;" width="122" x="1358" y="1116.7813"/><text fill="#000000" font-family="sans-serif" font-size="14" lengthAdjust="spacingAndGlyphs" textLength="108" x="1365" y="1138.3145">:DiagramElement</text><rect fill="#FEFECE" filter="url(#f1rtwu8q6cwym9)" height="31.6094" style="stroke: #A80036; stroke-width: 1.5;" width="83" x="1671.5" y="1163.3906"/><text fill="#000000" font-family="sans-serif" font-size="14" lengthAdjust="spacingAndGlyphs" textLength="69" x="1678.5" y="1184.9238">:Generator</text><rect fill="#FFFFFF" filter="url(#f1rtwu8q6cwym9)" height="207.7578" style="stroke: #000000; stroke-width: 2.0;" width="564" x="273" y="1217"/><rect fill="#FFFFFF" filter="url(#f1rtwu8q6cwym9)" height="88.7031" style="stroke: #000000; stroke-width: 2.0;" width="544" x="283" y="1329.0547"/><rect fill="#FEFECE" filter="url(#f1rtwu8q6cwym9)" height="31.6094" style="stroke: #A80036; stroke-width: 1.5;" width="71" x="1166.5" y="1431.7578"/><text fill="#000000" font-family="sans-serif" font-size="14" lengthAdjust="spacingAndGlyphs" textLength="57" x="1173.5" y="1453.291">:Diagram</text><rect fill="#FFFFFF" filter="url(#f1rtwu8q6cwym9)" height="107.0547" style="stroke: #000000; stroke-width: 2.0;" width="612" x="1156.5" y="1573.0703"/><line style="stroke: #A80036; stroke-width: 1.0; stroke-dasharray: 5.0,5.0;" x1="88" x2="88" y1="39.6094" y2="1809.4766"/><line style="stroke: #A80036; stroke-width: 1.0; stroke-dasharray: 5.0,5.0;" x1="373" x2="373" y1="203.2266" y2="1809.4766"/><line style="stroke: #A80036; stroke-width: 1.0; stroke-dasharray: 5.0,5.0;" x1="821.5" x2="821.5" y1="249.8359" y2="1809.4766"/><line style="stroke: #A80036; stroke-width: 1.0; stroke-dasharray: 5.0,5.0;" x1="980.5" x2="980.5" y1="940.0703" y2="1809.4766"/><line style="stroke: #A80036; stroke-width: 1.0; stroke-dasharray: 5.0,5.0;" x1="1109.5" x2="1109.5" y1="113.2656" y2="1809.4766"/><line style="stroke: #A80036; stroke-width: 1.0; stroke-dasharray: 5.0,5.0;" x1="1203.5" x2="1203.5" y1="1465.0625" y2="1809.4766"/><line style="stroke: #A80036; stroke-width: 1.0; stroke-dasharray: 5.0,5.0;" x1="1421" x2="1421" y1="1150.0859" y2="1809.4766"/><line style="stroke: #A80036; stroke-width: 1.0; stroke-dasharray: 5.0,5.0;" x1="1714.5" x2="1714.5" y1="1196.6953" y2="1809.4766"/><rect fill="#FEFECE" filter="url(#f1rtwu8q6cwym9)" height="31.6094" style="stroke: #A80036; stroke-width: 1.5;" width="112" x="30" y="3"/><text fill="#000000" font-family="sans-serif" font-size="14" lengthAdjust="spacingAndGlyphs" textLength="98" x="37" y="24.5332">:SequenceMain</text><rect fill="#FEFECE" filter="url(#f1rtwu8q6cwym9)" height="31.6094" style="stroke: #A80036; stroke-width: 1.5;" width="112" x="30" y="1808.4766"/><text fill="#000000" font-family="sans-serif" font-size="14" lengthAdjust="spacingAndGlyphs" textLength="98" x="37" y="1830.0098">:SequenceMain</text><rect fill="#FEFECE" filter="url(#f1rtwu8q6cwym9)" height="31.6094" style="stroke: #A80036; stroke-width: 1.5;" width="156" x="293" y="1808.4766"/><text fill="#000000" font-family="sans-serif" font-size="14" lengthAdjust="spacingAndGlyphs" textLength="142" x="300" y="1830.0098">:SequenceBaseParser</text><rect fill="#FEFECE" filter="url(#f1rtwu8q6cwym9)" height="31.6094" style="stroke: #A80036; stroke-width: 1.5;" width="149" x="745.5" y="1808.4766"/><text fill="#000000" font-family="sans-serif" font-size="14" lengthAdjust="spacingAndGlyphs" textLength="135" x="752.5" y="1830.0098">:SequenceParseData</text><rect fill="#FEFECE" filter="url(#f1rtwu8q6cwym9)" height="31.6094" style="stroke: #A80036; stroke-width: 1.5;" width="140" x="908.5" y="1808.4766"/><text fill="#000000" font-family="sans-serif" font-size="14" lengthAdjust="spacingAndGlyphs" textLength="126" x="915.5" y="1830.0098">:MethodCallElement</text><rect fill="#FEFECE" filter="url(#f1rtwu8q6cwym9)" height="31.6094" style="stroke: #A80036; stroke-width: 1.5;" width="90" x="1062.5" y="1808.4766"/><text fill="#000000" font-family="sans-serif" font-size="14" lengthAdjust="spacingAndGlyphs" textLength="76" x="1069.5" y="1830.0098">:FileHandler</text><rect fill="#FEFECE" filter="url(#f1rtwu8q6cwym9)" height="31.6094" style="stroke: #A80036; stroke-width: 1.5;" width="71" x="1166.5" y="1808.4766"/><text fill="#000000" font-family="sans-serif" font-size="14" lengthAdjust="spacingAndGlyphs" textLength="57" x="1173.5" y="1830.0098">:Diagram</text><rect fill="#FEFECE" filter="url(#f1rtwu8q6cwym9)" height="31.6094" style="stroke: #A80036; stroke-width: 1.5;" width="122" x="1358" y="1808.4766"/><text fill="#000000" font-family="sans-serif" font-size="14" lengthAdjust="spacingAndGlyphs" textLength="108" x="1365" y="1830.0098">:DiagramElement</text><rect fill="#FEFECE" filter="url(#f1rtwu8q6cwym9)" height="31.6094" style="stroke: #A80036; stroke-width: 1.5;" width="83" x="1671.5" y="1808.4766"/><text fill="#000000" font-family="sans-serif" font-size="14" lengthAdjust="spacingAndGlyphs" textLength="69" x="1678.5" y="1830.0098">:Generator</text><rect fill="#FFFFFF" filter="url(#f1rtwu8q6cwym9)" height="1728.5156" style="stroke: #A80036; stroke-width: 1.0;" width="10" x="83" y="71.9609"/><rect fill="#FFFFFF" filter="url(#f1rtwu8q6cwym9)" height="1600.5547" style="stroke: #A80036; stroke-width: 1.0;" width="10" x="88" y="156.9219"/><rect fill="#FFFFFF" filter="url(#f1rtwu8q6cwym9)" height="1227.2266" style="stroke: #A80036; stroke-width: 1.0;" width="10" x="93" y="293.4922"/><rect fill="#FFFFFF" filter="url(#f1rtwu8q6cwym9)" height="1155.5234" style="stroke: #A80036; stroke-width: 1.0;" width="10" x="368" y="328.8438"/><rect fill="#FFFFFF" filter="url(#f1rtwu8q6cwym9)" height="41.3516" style="stroke: #A80036; stroke-width: 1.0;" width="10" x="373" y="367.1953"/><rect fill="#FFFFFF" filter="url(#f1rtwu8q6cwym9)" height="475.2188" style="stroke: #A80036; stroke-width: 1.0;" width="10" x="373" y="453.8984"/><rect fill="#FFFFFF" filter="url(#f1rtwu8q6cwym9)" height="41.3516" style="stroke: #A80036; stroke-width: 1.0;" width="10" x="378" y="497.25"/><rect fill="#FFFFFF" filter="url(#f1rtwu8q6cwym9)" height="102.0547" style="stroke: #A80036; stroke-width: 1.0;" width="10" x="378" y="583.9531"/><rect fill="#FFFFFF" filter="url(#f1rtwu8q6cwym9)" height="41.3516" style="stroke: #A80036; stroke-width: 1.0;" width="10" x="378" y="731.3594"/><rect fill="#FFFFFF" filter="url(#f1rtwu8q6cwym9)" height="41.3516" style="stroke: #A80036; stroke-width: 1.0;" width="10" x="378" y="843.4141"/><rect fill="#FFFFFF" filter="url(#f1rtwu8q6cwym9)" height="41.3516" style="stroke: #A80036; stroke-width: 1.0;" width="10" x="373" y="1053.4297"/><rect fill="#FFFFFF" filter="url(#f1rtwu8q6cwym9)" height="41.3516" style="stroke: #A80036; stroke-width: 1.0;" width="10" x="373" y="1265.7031"/><rect fill="#FFFFFF" filter="url(#f1rtwu8q6cwym9)" height="25" style="stroke: #A80036; stroke-width: 1.0;" width="10" x="373" y="1377.7578"/><rect fill="#FFFFFF" filter="url(#f1rtwu8q6cwym9)" height="30.3516" style="stroke: #A80036; stroke-width: 1.0;" width="10" x="817" y="619.3047"/><rect fill="#FFFFFF" filter="url(#f1rtwu8q6cwym9)" height="14" style="stroke: #A80036; stroke-width: 1.0;" width="10" x="975.5" y="975.7266"/><rect fill="#FFFFFF" filter="url(#f1rtwu8q6cwym9)" height="14" style="stroke: #A80036; stroke-width: 1.0;" width="10" x="1104.5" y="1723.4766"/><rect fill="#FFFFFF" filter="url(#f1rtwu8q6cwym9)" height="135.0547" style="stroke: #A80036; stroke-width: 1.0;" width="10" x="1199" y="1558.0703"/><rect fill="#FFFFFF" filter="url(#f1rtwu8q6cwym9)" height="58.3516" style="stroke: #A80036; stroke-width: 1.0;" width="10" x="1416" y="1613.7734"/><rect fill="#FFFFFF" filter="url(#f1rtwu8q6cwym9)" height="14" style="stroke: #A80036; stroke-width: 1.0;" width="10" x="1710" y="1644.125"/><polygon fill="#A80036" points="71,67.9609,81,71.9609,71,75.9609,75,71.9609" style="stroke: #A80036; stroke-width: 1.0;"/><line style="stroke: #A80036; stroke-width: 1.0;" x1="3" x2="77" y1="71.9609" y2="71.9609"/><text fill="#000000" font-family="sans-serif" font-size="13" lengthAdjust="spacingAndGlyphs" textLength="61" x="10" y="67.1045">main(args)</text><polygon fill="#A80036" points="1050.5,98.3125,1060.5,102.3125,1050.5,106.3125,1054.5,102.3125" style="stroke: #A80036; stroke-width: 1.0;"/><line style="stroke: #A80036; stroke-width: 1.0; stroke-dasharray: 2.0,2.0;" x1="93" x2="1056.5" y1="102.3125" y2="102.3125"/><text fill="#000000" font-family="sans-serif" font-size="13" lengthAdjust="spacingAndGlyphs" textLength="44" x="100" y="97.4561">create()</text><rect fill="#FEFECE" filter="url(#f1rtwu8q6cwym9)" height="31.6094" style="stroke: #A80036; stroke-width: 1.5;" width="90" x="1062.5" y="79.9609"/><text fill="#000000" font-family="sans-serif" font-size="14" lengthAdjust="spacingAndGlyphs" textLength="76" x="1069.5" y="101.4941">:FileHandler</text><line style="stroke: #A80036; stroke-width: 1.0;" x1="93" x2="140" y1="143.9219" y2="143.9219"/><line style="stroke: #A80036; stroke-width: 1.0;" x1="140" x2="140" y1="143.9219" y2="156.9219"/><line style="stroke: #A80036; stroke-width: 1.0;" x1="99" x2="140" y1="156.9219" y2="156.9219"/><polygon fill="#A80036" points="109,152.9219,99,156.9219,109,160.9219,105,156.9219" style="stroke: #A80036; stroke-width: 1.0;"/><text fill="#000000" font-family="sans-serif" font-size="13" lengthAdjust="spacingAndGlyphs" textLength="92" x="105" y="139.0654">parseArgs(args)</text><polygon fill="#A80036" points="281,188.2734,291,192.2734,281,196.2734,285,192.2734" style="stroke: #A80036; stroke-width: 1.0;"/><line style="stroke: #A80036; stroke-width: 1.0; stroke-dasharray: 2.0,2.0;" x1="98" x2="287" y1="192.2734" y2="192.2734"/><text fill="#000000" font-family="sans-serif" font-size="13" lengthAdjust="spacingAndGlyphs" textLength="44" x="105" y="187.417">create()</text><rect fill="#FEFECE" filter="url(#f1rtwu8q6cwym9)" height="31.6094" style="stroke: #A80036; stroke-width: 1.5;" width="156" x="293" y="169.9219"/><text fill="#000000" font-family="sans-serif" font-size="14" lengthAdjust="spacingAndGlyphs" textLength="142" x="300" y="191.4551">:SequenceBaseParser</text><polygon fill="#A80036" points="733.5,234.8828,743.5,238.8828,733.5,242.8828,737.5,238.8828" style="stroke: #A80036; stroke-width: 1.0;"/><line style="stroke: #A80036; stroke-width: 1.0; stroke-dasharray: 2.0,2.0;" x1="98" x2="739.5" y1="238.8828" y2="238.8828"/><text fill="#000000" font-family="sans-serif" font-size="13" lengthAdjust="spacingAndGlyphs" textLength="44" x="105" y="234.0264">create()</text><rect fill="#FEFECE" filter="url(#f1rtwu8q6cwym9)" height="31.6094" style="stroke: #A80036; stroke-width: 1.5;" width="149" x="745.5" y="216.5313"/><text fill="#000000" font-family="sans-serif" font-size="14" lengthAdjust="spacingAndGlyphs" textLength="135" x="752.5" y="238.0645">:SequenceParseData</text><line style="stroke: #A80036; stroke-width: 1.0;" x1="98" x2="145" y1="280.4922" y2="280.4922"/><line style="stroke: #A80036; stroke-width: 1.0;" x1="145" x2="145" y1="280.4922" y2="293.4922"/><line style="stroke: #A80036; stroke-width: 1.0;" x1="104" x2="145" y1="293.4922" y2="293.4922"/><polygon fill="#A80036" points="114,289.4922,104,293.4922,114,297.4922,110,293.4922" style="stroke: #A80036; stroke-width: 1.0;"/><text fill="#000000" font-family="sans-serif" font-size="13" lengthAdjust="spacingAndGlyphs" textLength="256" x="110" y="275.6357">doParse(sequenceParser, methodSignature)</text><polygon fill="#A80036" points="356,324.8438,366,328.8438,356,332.8438,360,328.8438" style="stroke: #A80036; stroke-width: 1.0;"/><line style="stroke: #A80036; stroke-width: 1.0;" x1="103" x2="362" y1="328.8438" y2="328.8438"/><text fill="#000000" font-family="sans-serif" font-size="13" lengthAdjust="spacingAndGlyphs" textLength="203" x="110" y="323.9873">doParseBehavior(methodSignature)</text><line style="stroke: #A80036; stroke-width: 1.0;" x1="378" x2="425" y1="354.1953" y2="354.1953"/><line style="stroke: #A80036; stroke-width: 1.0;" x1="425" x2="425" y1="354.1953" y2="367.1953"/><line style="stroke: #A80036; stroke-width: 1.0;" x1="384" x2="425" y1="367.1953" y2="367.1953"/><polygon fill="#A80036" points="394,363.1953,384,367.1953,394,371.1953,390,367.1953" style="stroke: #A80036; stroke-width: 1.0;"/><text fill="#000000" font-family="sans-serif" font-size="13" lengthAdjust="spacingAndGlyphs" textLength="319" x="390" y="349.3389">getClassNameFromMethodSignature(methodSignature)</text><line style="stroke: #A80036; stroke-width: 1.0; stroke-dasharray: 2.0,2.0;" x1="383" x2="425" y1="407.5469" y2="407.5469"/><line style="stroke: #A80036; stroke-width: 1.0; stroke-dasharray: 2.0,2.0;" x1="425" x2="425" y1="407.5469" y2="420.5469"/><line style="stroke: #A80036; stroke-width: 1.0; stroke-dasharray: 2.0,2.0;" x1="378" x2="425" y1="420.5469" y2="420.5469"/><polygon fill="#A80036" points="388,416.5469,378,420.5469,388,424.5469,384,420.5469" style="stroke: #A80036; stroke-width: 1.0;"/><text fill="#000000" font-family="sans-serif" font-size="13" lengthAdjust="spacingAndGlyphs" textLength="65" x="390" y="402.6904">className</text><line style="stroke: #A80036; stroke-width: 1.0;" x1="378" x2="425" y1="440.8984" y2="440.8984"/><line style="stroke: #A80036; stroke-width: 1.0;" x1="425" x2="425" y1="440.8984" y2="453.8984"/><line style="stroke: #A80036; stroke-width: 1.0;" x1="384" x2="425" y1="453.8984" y2="453.8984"/><polygon fill="#A80036" points="394,449.8984,384,453.8984,394,457.8984,390,453.8984" style="stroke: #A80036; stroke-width: 1.0;"/><text fill="#000000" font-family="sans-serif" font-size="13" lengthAdjust="spacingAndGlyphs" textLength="384" x="390" y="436.042">parseMethodCalls(methodSignature, recursiveDepth, caller, callee)</text><line style="stroke: #A80036; stroke-width: 1.0;" x1="383" x2="430" y1="484.25" y2="484.25"/><line style="stroke: #A80036; stroke-width: 1.0;" x1="430" x2="430" y1="484.25" y2="497.25"/><line style="stroke: #A80036; stroke-width: 1.0;" x1="389" x2="430" y1="497.25" y2="497.25"/><polygon fill="#A80036" points="399,493.25,389,497.25,399,501.25,395,497.25" style="stroke: #A80036; stroke-width: 1.0;"/><text fill="#000000" font-family="sans-serif" font-size="13" lengthAdjust="spacingAndGlyphs" textLength="329" x="395" y="479.3936">getMethodNameFromMethodSignature(methodSignature)</text><line style="stroke: #A80036; stroke-width: 1.0; stroke-dasharray: 2.0,2.0;" x1="388" x2="430" y1="537.6016" y2="537.6016"/><line style="stroke: #A80036; stroke-width: 1.0; stroke-dasharray: 2.0,2.0;" x1="430" x2="430" y1="537.6016" y2="550.6016"/><line style="stroke: #A80036; stroke-width: 1.0; stroke-dasharray: 2.0,2.0;" x1="383" x2="430" y1="550.6016" y2="550.6016"/><polygon fill="#A80036" points="393,546.6016,383,550.6016,393,554.6016,389,550.6016" style="stroke: #A80036; stroke-width: 1.0;"/><text fill="#000000" font-family="sans-serif" font-size="13" lengthAdjust="spacingAndGlyphs" textLength="77" x="395" y="532.7451">methodName</text><line style="stroke: #A80036; stroke-width: 1.0;" x1="383" x2="430" y1="570.9531" y2="570.9531"/><line style="stroke: #A80036; stroke-width: 1.0;" x1="430" x2="430" y1="570.9531" y2="583.9531"/><line style="stroke: #A80036; stroke-width: 1.0;" x1="389" x2="430" y1="583.9531" y2="583.9531"/><polygon fill="#A80036" points="399,579.9531,389,583.9531,399,587.9531,395,583.9531" style="stroke: #A80036; stroke-width: 1.0;"/><text fill="#000000" font-family="sans-serif" font-size="13" lengthAdjust="spacingAndGlyphs" textLength="215" x="395" y="566.0967">getClassNodeWithName(className)</text><polygon fill="#A80036" points="805,615.3047,815,619.3047,805,623.3047,809,619.3047" style="stroke: #A80036; stroke-width: 1.0;"/><line style="stroke: #A80036; stroke-width: 1.0;" x1="388" x2="811" y1="619.3047" y2="619.3047"/><text fill="#000000" font-family="sans-serif" font-size="13" lengthAdjust="spacingAndGlyphs" textLength="154" x="395" y="614.4482">getClassNode(className)</text><polygon fill="#A80036" points="399,645.6563,389,649.6563,399,653.6563,395,649.6563" style="stroke: #A80036; stroke-width: 1.0;"/><line style="stroke: #A80036; stroke-width: 1.0; stroke-dasharray: 2.0,2.0;" x1="393" x2="821" y1="649.6563" y2="649.6563"/><text fill="#000000" font-family="sans-serif" font-size="13" lengthAdjust="spacingAndGlyphs" textLength="61" x="405" y="644.7998">classNode</text><line style="stroke: #A80036; stroke-width: 1.0; stroke-dasharray: 2.0,2.0;" x1="388" x2="430" y1="685.0078" y2="685.0078"/><line style="stroke: #A80036; stroke-width: 1.0; stroke-dasharray: 2.0,2.0;" x1="430" x2="430" y1="685.0078" y2="698.0078"/><line style="stroke: #A80036; stroke-width: 1.0; stroke-dasharray: 2.0,2.0;" x1="383" x2="430" y1="698.0078" y2="698.0078"/><polygon fill="#A80036" points="393,694.0078,383,698.0078,393,702.0078,389,698.0078" style="stroke: #A80036; stroke-width: 1.0;"/><text fill="#000000" font-family="sans-serif" font-size="13" lengthAdjust="spacingAndGlyphs" textLength="61" x="395" y="680.1514">classNode</text><line style="stroke: #A80036; stroke-width: 1.0;" x1="383" x2="430" y1="718.3594" y2="718.3594"/><line style="stroke: #A80036; stroke-width: 1.0;" x1="430" x2="430" y1="718.3594" y2="731.3594"/><line style="stroke: #A80036; stroke-width: 1.0;" x1="389" x2="430" y1="731.3594" y2="731.3594"/><polygon fill="#A80036" points="399,727.3594,389,731.3594,399,735.3594,395,731.3594" style="stroke: #A80036; stroke-width: 1.0;"/><text fill="#000000" font-family="sans-serif" font-size="13" lengthAdjust="spacingAndGlyphs" textLength="237" x="395" y="713.5029">getMethodNodeWithName(methodName)</text><line style="stroke: #A80036; stroke-width: 1.0; stroke-dasharray: 2.0,2.0;" x1="388" x2="430" y1="771.7109" y2="771.7109"/><line style="stroke: #A80036; stroke-width: 1.0; stroke-dasharray: 2.0,2.0;" x1="430" x2="430" y1="771.7109" y2="784.7109"/><line style="stroke: #A80036; stroke-width: 1.0; stroke-dasharray: 2.0,2.0;" x1="383" x2="430" y1="784.7109" y2="784.7109"/><polygon fill="#A80036" points="393,780.7109,383,784.7109,393,788.7109,389,784.7109" style="stroke: #A80036; stroke-width: 1.0;"/><text fill="#000000" font-family="sans-serif" font-size="13" lengthAdjust="spacingAndGlyphs" textLength="73" x="395" y="766.8545">methodNode</text><path d="M283,794.7109 L356,794.7109 L356,802.7109 L346,812.7109 L283,812.7109 L283,794.7109 " fill="#EEEEEE" style="stroke: #000000; stroke-width: 1.0;"/><rect fill="none" height="105.0547" style="stroke: #000000; stroke-width: 2.0;" width="240" x="283" y="794.7109"/><text fill="#000000" font-family="sans-serif" font-size="13" font-weight="bold" lengthAdjust="spacingAndGlyphs" textLength="28" x="298" y="809.2061">loop</text><text fill="#000000" font-family="sans-serif" font-size="11" font-weight="bold" lengthAdjust="spacingAndGlyphs" textLength="147" x="371" y="808.1299">[AbstractInsnNode : insns]</text><line style="stroke: #A80036; stroke-width: 1.0;" x1="383" x2="430" y1="830.4141" y2="830.4141"/><line style="stroke: #A80036; stroke-width: 1.0;" x1="430" x2="430" y1="830.4141" y2="843.4141"/><line style="stroke: #A80036; stroke-width: 1.0;" x1="389" x2="430" y1="843.4141" y2="843.4141"/><polygon fill="#A80036" points="399,839.4141,389,843.4141,399,847.4141,395,843.4141" style="stroke: #A80036; stroke-width: 1.0;"/><text fill="#000000" font-family="sans-serif" font-size="13" lengthAdjust="spacingAndGlyphs" textLength="107" x="395" y="825.5576">isMethodCall(insn)</text><line style="stroke: #A80036; stroke-width: 1.0; stroke-dasharray: 2.0,2.0;" x1="388" x2="430" y1="883.7656" y2="883.7656"/><line style="stroke: #A80036; stroke-width: 1.0; stroke-dasharray: 2.0,2.0;" x1="430" x2="430" y1="883.7656" y2="896.7656"/><line style="stroke: #A80036; stroke-width: 1.0; stroke-dasharray: 2.0,2.0;" x1="383" x2="430" y1="896.7656" y2="896.7656"/><polygon fill="#A80036" points="393,892.7656,383,896.7656,393,900.7656,389,896.7656" style="stroke: #A80036; stroke-width: 1.0;"/><text fill="#000000" font-family="sans-serif" font-size="13" lengthAdjust="spacingAndGlyphs" textLength="75" x="395" y="878.9092">isMethodCall</text><polygon fill="#A80036" points="896.5,925.1172,906.5,929.1172,896.5,933.1172,900.5,929.1172" style="stroke: #A80036; stroke-width: 1.0;"/><line style="stroke: #A80036; stroke-width: 1.0; stroke-dasharray: 2.0,2.0;" x1="378" x2="902.5" y1="929.1172" y2="929.1172"/><text fill="#000000" font-family="sans-serif" font-size="13" lengthAdjust="spacingAndGlyphs" textLength="44" x="385" y="924.2607">create()</text><rect fill="#FEFECE" filter="url(#f1rtwu8q6cwym9)" height="31.6094" style="stroke: #A80036; stroke-width: 1.5;" width="140" x="908.5" y="906.7656"/><text fill="#000000" font-family="sans-serif" font-size="14" lengthAdjust="spacingAndGlyphs" textLength="126" x="915.5" y="928.2988">:MethodCallElement</text><polygon fill="#A80036" points="963.5,971.7266,973.5,975.7266,963.5,979.7266,967.5,975.7266" style="stroke: #A80036; stroke-width: 1.0;"/><line style="stroke: #A80036; stroke-width: 1.0;" x1="378" x2="969.5" y1="975.7266" y2="975.7266"/><text fill="#000000" font-family="sans-serif" font-size="13" lengthAdjust="spacingAndGlyphs" textLength="137" x="385" y="970.8701">setGenerator(generator)</text><polygon fill="#A80036" points="389,985.7266,379,989.7266,389,993.7266,385,989.7266" style="stroke: #A80036; stroke-width: 1.0;"/><line style="stroke: #A80036; stroke-width: 1.0; stroke-dasharray: 2.0,2.0;" x1="383" x2="979.5" y1="989.7266" y2="989.7266"/><path d="M283,1004.7266 L344,1004.7266 L344,1012.7266 L334,1022.7266 L283,1022.7266 L283,1004.7266 " fill="#EEEEEE" style="stroke: #000000; stroke-width: 1.0;"/><rect fill="none" height="105.0547" style="stroke: #000000; stroke-width: 2.0;" width="438" x="283" y="1004.7266"/><text fill="#000000" font-family="sans-serif" font-size="13" font-weight="bold" lengthAdjust="spacingAndGlyphs" textLength="16" x="298" y="1019.2217">alt</text><text fill="#000000" font-family="sans-serif" font-size="11" font-weight="bold" lengthAdjust="spacingAndGlyphs" textLength="126" x="359" y="1018.1455">[callee.equals("NONE")]</text><line style="stroke: #A80036; stroke-width: 1.0;" x1="378" x2="425" y1="1040.4297" y2="1040.4297"/><line style="stroke: #A80036; stroke-width: 1.0;" x1="425" x2="425" y1="1040.4297" y2="1053.4297"/><line style="stroke: #A80036; stroke-width: 1.0;" x1="384" x2="425" y1="1053.4297" y2="1053.4297"/><polygon fill="#A80036" points="394,1049.4297,384,1053.4297,394,1057.4297,390,1053.4297" style="stroke: #A80036; stroke-width: 1.0;"/><text fill="#000000" font-family="sans-serif" font-size="13" lengthAdjust="spacingAndGlyphs" textLength="319" x="390" y="1035.5732">getClassNameFromMethodSignature(methodSignature)</text><line style="stroke: #A80036; stroke-width: 1.0; stroke-dasharray: 2.0,2.0;" x1="383" x2="425" y1="1093.7813" y2="1093.7813"/><line style="stroke: #A80036; stroke-width: 1.0; stroke-dasharray: 2.0,2.0;" x1="425" x2="425" y1="1093.7813" y2="1106.7813"/><line style="stroke: #A80036; stroke-width: 1.0; stroke-dasharray: 2.0,2.0;" x1="378" x2="425" y1="1106.7813" y2="1106.7813"/><polygon fill="#A80036" points="388,1102.7813,378,1106.7813,388,1110.7813,384,1106.7813" style="stroke: #A80036; stroke-width: 1.0;"/><text fill="#000000" font-family="sans-serif" font-size="13" lengthAdjust="spacingAndGlyphs" textLength="65" x="390" y="1088.9248">className</text><polygon fill="#A80036" points="1346,1135.1328,1356,1139.1328,1346,1143.1328,1350,1139.1328" style="stroke: #A80036; stroke-width: 1.0;"/><line style="stroke: #A80036; stroke-width: 1.0; stroke-dasharray: 2.0,2.0;" x1="378" x2="1352" y1="1139.1328" y2="1139.1328"/><text fill="#000000" font-family="sans-serif" font-size="13" lengthAdjust="spacingAndGlyphs" textLength="44" x="385" y="1134.2764">create()</text><rect fill="#FEFECE" filter="url(#f1rtwu8q6cwym9)" height="31.6094" style="stroke: #A80036; stroke-width: 1.5;" width="122" x="1358" y="1116.7813"/><text fill="#000000" font-family="sans-serif" font-size="14" lengthAdjust="spacingAndGlyphs" textLength="108" x="1365" y="1138.3145">:DiagramElement</text><polygon fill="#A80036" points="1659.5,1181.7422,1669.5,1185.7422,1659.5,1189.7422,1663.5,1185.7422" style="stroke: #A80036; stroke-width: 1.0;"/><line style="stroke: #A80036; stroke-width: 1.0; stroke-dasharray: 2.0,2.0;" x1="378" x2="1665.5" y1="1185.7422" y2="1185.7422"/><text fill="#000000" font-family="sans-serif" font-size="13" lengthAdjust="spacingAndGlyphs" textLength="44" x="385" y="1180.8857">create()</text><rect fill="#FEFECE" filter="url(#f1rtwu8q6cwym9)" height="31.6094" style="stroke: #A80036; stroke-width: 1.5;" width="83" x="1671.5" y="1163.3906"/><text fill="#000000" font-family="sans-serif" font-size="14" lengthAdjust="spacingAndGlyphs" textLength="69" x="1678.5" y="1184.9238">:Generator</text><path d="M273,1217 L346,1217 L346,1225 L336,1235 L273,1235 L273,1217 " fill="#EEEEEE" style="stroke: #000000; stroke-width: 1.0;"/><rect fill="none" height="207.7578" style="stroke: #000000; stroke-width: 2.0;" width="564" x="273" y="1217"/><text fill="#000000" font-family="sans-serif" font-size="13" font-weight="bold" lengthAdjust="spacingAndGlyphs" textLength="28" x="288" y="1231.4951">loop</text><text fill="#000000" font-family="sans-serif" font-size="11" font-weight="bold" lengthAdjust="spacingAndGlyphs" textLength="249" x="361" y="1230.4189">[MethodInsnNode : methodInstructionNodes]</text><line style="stroke: #A80036; stroke-width: 1.0;" x1="378" x2="425" y1="1252.7031" y2="1252.7031"/><line style="stroke: #A80036; stroke-width: 1.0;" x1="425" x2="425" y1="1252.7031" y2="1265.7031"/><line style="stroke: #A80036; stroke-width: 1.0;" x1="384" x2="425" y1="1265.7031" y2="1265.7031"/><polygon fill="#A80036" points="394,1261.7031,384,1265.7031,394,1269.7031,390,1265.7031" style="stroke: #A80036; stroke-width: 1.0;"/><text fill="#000000" font-family="sans-serif" font-size="13" lengthAdjust="spacingAndGlyphs" textLength="335" x="390" y="1247.8467">buildMethodSignature(paramTypes, insnNode, nextCallee)</text><line style="stroke: #A80036; stroke-width: 1.0; stroke-dasharray: 2.0,2.0;" x1="383" x2="425" y1="1306.0547" y2="1306.0547"/><line style="stroke: #A80036; stroke-width: 1.0; stroke-dasharray: 2.0,2.0;" x1="425" x2="425" y1="1306.0547" y2="1319.0547"/><line style="stroke: #A80036; stroke-width: 1.0; stroke-dasharray: 2.0,2.0;" x1="378" x2="425" y1="1319.0547" y2="1319.0547"/><polygon fill="#A80036" points="388,1315.0547,378,1319.0547,388,1323.0547,384,1319.0547" style="stroke: #A80036; stroke-width: 1.0;"/><text fill="#000000" font-family="sans-serif" font-size="13" lengthAdjust="spacingAndGlyphs" textLength="98" x="390" y="1301.1982">methodSignature</text><path d="M283,1329.0547 L344,1329.0547 L344,1337.0547 L334,1347.0547 L283,1347.0547 L283,1329.0547 " fill="#EEEEEE" style="stroke: #000000; stroke-width: 1.0;"/><rect fill="none" height="88.7031" style="stroke: #000000; stroke-width: 2.0;" width="544" x="283" y="1329.0547"/><text fill="#000000" font-family="sans-serif" font-size="13" font-weight="bold" lengthAdjust="spacingAndGlyphs" textLength="16" x="298" y="1343.5498">alt</text><text fill="#000000" font-family="sans-serif" font-size="11" font-weight="bold" lengthAdjust="spacingAndGlyphs" textLength="114" x="359" y="1342.4736">[recursiveDepth != 0]</text><line style="stroke: #A80036; stroke-width: 1.0;" x1="378" x2="425" y1="1364.7578" y2="1364.7578"/><line style="stroke: #A80036; stroke-width: 1.0;" x1="425" x2="425" y1="1364.7578" y2="1377.7578"/><line style="stroke: #A80036; stroke-width: 1.0;" x1="384" x2="425" y1="1377.7578" y2="1377.7578"/><polygon fill="#A80036" points="394,1373.7578,384,1377.7578,394,1381.7578,390,1377.7578" style="stroke: #A80036; stroke-width: 1.0;"/><text fill="#000000" font-family="sans-serif" font-size="13" lengthAdjust="spacingAndGlyphs" textLength="425" x="390" y="1359.9014">parseMethodCalls(methodSignature, recursiveDepth-1, nextCallee, callee)</text><line style="stroke: #A80036; stroke-width: 1.0; stroke-dasharray: 2.0,2.0;" x1="383" x2="425" y1="1401.7578" y2="1401.7578"/><line style="stroke: #A80036; stroke-width: 1.0; stroke-dasharray: 2.0,2.0;" x1="425" x2="425" y1="1401.7578" y2="1414.7578"/><line style="stroke: #A80036; stroke-width: 1.0; stroke-dasharray: 2.0,2.0;" x1="378" x2="425" y1="1414.7578" y2="1414.7578"/><polygon fill="#A80036" points="388,1410.7578,378,1414.7578,388,1418.7578,384,1414.7578" style="stroke: #A80036; stroke-width: 1.0;"/><polygon fill="#A80036" points="1154.5,1450.1094,1164.5,1454.1094,1154.5,1458.1094,1158.5,1454.1094" style="stroke: #A80036; stroke-width: 1.0;"/><line style="stroke: #A80036; stroke-width: 1.0; stroke-dasharray: 2.0,2.0;" x1="378" x2="1160.5" y1="1454.1094" y2="1454.1094"/><text fill="#000000" font-family="sans-serif" font-size="13" lengthAdjust="spacingAndGlyphs" textLength="44" x="385" y="1449.2529">create()</text><rect fill="#FEFECE" filter="url(#f1rtwu8q6cwym9)" height="31.6094" style="stroke: #A80036; stroke-width: 1.5;" width="71" x="1166.5" y="1431.7578"/><text fill="#000000" font-family="sans-serif" font-size="14" lengthAdjust="spacingAndGlyphs" textLength="57" x="1173.5" y="1453.291">:Diagram</text><polygon fill="#A80036" points="114,1480.3672,104,1484.3672,114,1488.3672,110,1484.3672" style="stroke: #A80036; stroke-width: 1.0;"/><line style="stroke: #A80036; stroke-width: 1.0; stroke-dasharray: 2.0,2.0;" x1="108" x2="372" y1="1484.3672" y2="1484.3672"/><line style="stroke: #A80036; stroke-width: 1.0; stroke-dasharray: 2.0,2.0;" x1="103" x2="145" y1="1519.7188" y2="1519.7188"/><line style="stroke: #A80036; stroke-width: 1.0; stroke-dasharray: 2.0,2.0;" x1="145" x2="145" y1="1519.7188" y2="1532.7188"/><line style="stroke: #A80036; stroke-width: 1.0; stroke-dasharray: 2.0,2.0;" x1="98" x2="145" y1="1532.7188" y2="1532.7188"/><polygon fill="#A80036" points="108,1528.7188,98,1532.7188,108,1536.7188,104,1532.7188" style="stroke: #A80036; stroke-width: 1.0;"/><text fill="#000000" font-family="sans-serif" font-size="13" lengthAdjust="spacingAndGlyphs" textLength="46" x="110" y="1514.8623">diagram</text><polygon fill="#A80036" points="1187,1554.0703,1197,1558.0703,1187,1562.0703,1191,1558.0703" style="stroke: #A80036; stroke-width: 1.0;"/><line style="stroke: #A80036; stroke-width: 1.0;" x1="98" x2="1193" y1="1558.0703" y2="1558.0703"/><text fill="#000000" font-family="sans-serif" font-size="13" lengthAdjust="spacingAndGlyphs" textLength="58" x="105" y="1553.2139">generate()</text><path d="M1156.5,1573.0703 L1229.5,1573.0703 L1229.5,1581.0703 L1219.5,1591.0703 L1156.5,1591.0703 L1156.5,1573.0703 " fill="#EEEEEE" style="stroke: #000000; stroke-width: 1.0;"/><rect fill="none" height="107.0547" style="stroke: #000000; stroke-width: 2.0;" width="612" x="1156.5" y="1573.0703"/><text fill="#000000" font-family="sans-serif" font-size="13" font-weight="bold" lengthAdjust="spacingAndGlyphs" textLength="28" x="1171.5" y="1587.5654">loop</text><text fill="#000000" font-family="sans-serif" font-size="11" font-weight="bold" lengthAdjust="spacingAndGlyphs" textLength="160" x="1244.5" y="1586.4893">[DiagramElement : elements]</text><polygon fill="#A80036" points="1404,1609.7734,1414,1613.7734,1404,1617.7734,1408,1613.7734" style="stroke: #A80036; stroke-width: 1.0;"/><line style="stroke: #A80036; stroke-width: 1.0;" x1="1209" x2="1410" y1="1613.7734" y2="1613.7734"/><text fill="#000000" font-family="sans-serif" font-size="13" lengthAdjust="spacingAndGlyphs" textLength="188" x="1216" y="1608.917">generate(StringBuilder, Diagram)</text><polygon fill="#A80036" points="1698,1640.125,1708,1644.125,1698,1648.125,1702,1644.125" style="stroke: #A80036; stroke-width: 1.0;"/><line style="stroke: #A80036; stroke-width: 1.0;" x1="1426" x2="1704" y1="1644.125" y2="1644.125"/><text fill="#000000" font-family="sans-serif" font-size="13" lengthAdjust="spacingAndGlyphs" textLength="265" x="1433" y="1639.2686">generate(Appearance, StringBuilder, Diagram)</text><polygon fill="#A80036" points="1437,1654.125,1427,1658.125,1437,1662.125,1433,1658.125" style="stroke: #A80036; stroke-width: 1.0;"/><line style="stroke: #A80036; stroke-width: 1.0; stroke-dasharray: 2.0,2.0;" x1="1431" x2="1714" y1="1658.125" y2="1658.125"/><polygon fill="#A80036" points="1220,1668.125,1210,1672.125,1220,1676.125,1216,1672.125" style="stroke: #A80036; stroke-width: 1.0;"/><line style="stroke: #A80036; stroke-width: 1.0; stroke-dasharray: 2.0,2.0;" x1="1214" x2="1420" y1="1672.125" y2="1672.125"/><polygon fill="#A80036" points="109,1689.125,99,1693.125,109,1697.125,105,1693.125" style="stroke: #A80036; stroke-width: 1.0;"/><line style="stroke: #A80036; stroke-width: 1.0; stroke-dasharray: 2.0,2.0;" x1="103" x2="1203" y1="1693.125" y2="1693.125"/><polygon fill="#A80036" points="1092.5,1719.4766,1102.5,1723.4766,1092.5,1727.4766,1096.5,1723.4766" style="stroke: #A80036; stroke-width: 1.0;"/><line style="stroke: #A80036; stroke-width: 1.0;" x1="98" x2="1098.5" y1="1723.4766" y2="1723.4766"/><text fill="#000000" font-family="sans-serif" font-size="13" lengthAdjust="spacingAndGlyphs" textLength="193" x="105" y="1718.6201">writeToFile(filepath, StringBuilder)</text><polygon fill="#A80036" points="109,1733.4766,99,1737.4766,109,1741.4766,105,1737.4766" style="stroke: #A80036; stroke-width: 1.0;"/><line style="stroke: #A80036; stroke-width: 1.0; stroke-dasharray: 2.0,2.0;" x1="103" x2="1108.5" y1="1737.4766" y2="1737.4766"/><line style="stroke: #A80036; stroke-width: 1.0; stroke-dasharray: 2.0,2.0;" x1="98" x2="140" y1="1756.4766" y2="1756.4766"/><line style="stroke: #A80036; stroke-width: 1.0; stroke-dasharray: 2.0,2.0;" x1="140" x2="140" y1="1756.4766" y2="1769.4766"/><line style="stroke: #A80036; stroke-width: 1.0; stroke-dasharray: 2.0,2.0;" x1="93" x2="140" y1="1769.4766" y2="1769.4766"/><polygon fill="#A80036" points="103,1765.4766,93,1769.4766,103,1773.4766,99,1769.4766" style="stroke: #A80036; stroke-width: 1.0;"/><line style="stroke: #A80036; stroke-width: 1.0; stroke-dasharray: 2.0,2.0;" x1="93" x2="135" y1="1778.4766" y2="1778.4766"/><line style="stroke: #A80036; stroke-width: 1.0; stroke-dasharray: 2.0,2.0;" x1="135" x2="135" y1="1778.4766" y2="1791.4766"/><line style="stroke: #A80036; stroke-width: 1.0; stroke-dasharray: 2.0,2.0;" x1="94" x2="135" y1="1791.4766" y2="1791.4766"/><polygon fill="#A80036" points="104,1787.4766,94,1791.4766,104,1795.4766,100,1791.4766" style="stroke: #A80036; stroke-width: 1.0;"/><!--MD5=[690302fb03423d4634b60a5bfa664c87]
@startuml
autoactivate on

participant ":SequenceMain" as main
participant ":SequenceBaseParser" as parser
participant ":SequenceParseData" as data
participant ":MethodCallElement" as call
participant ":FileHandler" as handler
participant ":Diagram" as diagram
participant ":DiagramElement" as element
participant ":Generator" as generator

[-> main : main(args)

main - -> handler ** : create()

main -> main : parseArgs(args)

main - -> parser ** : create()
main - -> data ** : create()

main -> main : doParse(sequenceParser, methodSignature)

main -> parser : doParseBehavior(methodSignature)

parser -> parser : getClassNameFromMethodSignature(methodSignature)
return className

parser -> parser : parseMethodCalls(methodSignature, recursiveDepth, caller, callee)

parser -> parser : getMethodNameFromMethodSignature(methodSignature)
return methodName

parser -> parser : getClassNodeWithName(className)
parser -> data : getClassNode(className)
return classNode
return classNode

parser -> parser : getMethodNodeWithName(methodName)
return methodNode

loop AbstractInsnNode : insns
parser -> parser : isMethodCall(insn)
return isMethodCall
end

create call
parser - -> call : create()
parser -> call : setGenerator(generator)
return


alt callee.equals("NONE")
parser -> parser : getClassNameFromMethodSignature(methodSignature)
return className
end

parser - -> element ** : create()
parser - -> generator ** : create()

loop MethodInsnNode : methodInstructionNodes
parser -> parser : buildMethodSignature(paramTypes, insnNode, nextCallee)
return methodSignature

alt recursiveDepth != 0
parser -> parser : parseMethodCalls(methodSignature, recursiveDepth-1, nextCallee, callee)
return
end

end


parser - -> diagram ** : create()
return

return diagram

main -> diagram : generate()

loop DiagramElement : elements
diagram -> element : generate(StringBuilder, Diagram)
element -> generator : generate(Appearance, StringBuilder, Diagram)
return
return
end

return

main -> handler : writeToFile(filepath, StringBuilder)
return

return
return
@enduml

PlantUML version 1.2019.13(Tue Dec 10 12:18:29 EST 2019)
(GPL source distribution)
Java Runtime: Java(TM) SE Runtime Environment
JVM: Java HotSpot(TM) 64-Bit Server VM
Java Version: 1.8.0_221-b11
Operating System: Windows 10
Default Encoding: Cp1252
Language: en
Country: US
--></g></svg>